<?xml version="1.0" encoding="utf-8"?>
<!-- Generator: Adobe Illustrator 13.0.2, SVG Export Plug-In . SVG Version: 6.00 Build 14948)  -->
<!DOCTYPE svg PUBLIC "-//W3C//DTD SVG 1.1//EN" "http://www.w3.org/Graphics/SVG/1.1/DTD/svg11.dtd">
<svg version="1.1" id="Logo" xmlns="http://www.w3.org/2000/svg" xmlns:xlink="http://www.w3.org/1999/xlink" x="0px" y="0px"
	 width="158.533px" height="36.85px" viewBox="0 0 158.533 36.85" enable-background="new 0 0 158.533 36.85" xml:space="preserve" stroke-width="0">
<g>
	<g>
		<circle fill="#FFFFFF" cx="18.429" cy="18.425" r="15.89"/>
		<path fill="#1A171B" d="M18.428,1.35c-9.43,0-17.077,7.642-17.077,17.075c0,9.429,7.647,17.075,17.077,17.075
			c9.432,0,17.079-7.646,17.079-17.075C35.507,8.991,27.859,1.35,18.428,1.35z M18.428,33.745c-8.46,0-15.321-6.859-15.321-15.32
			s6.861-15.32,15.321-15.32c8.465,0,15.323,6.859,15.323,15.32S26.893,33.745,18.428,33.745z"/>
		<path fill="#1A171B" d="M25.729,9.926c-3.696-2.071-8.325-2.089-11.997-1.148v-1.59h-1.595v2.078
			c-0.684,0.247-1.317,0.527-1.881,0.832c0,0,0.793-0.098,1.881-0.031v13.896c-0.792,1.221-0.982,2.408-0.796,3.777
			c0.211,1.531,1.367,2.554,2.277,3.311c-0.536-1.545-0.576-2.95-0.419-3.801c0.301-1.588,1.232-2.729,5.252-3.6
			c4.171-0.898,9.112-1.315,10.745-5.364C29.941,16.436,30.403,12.55,25.729,9.926z M15.981,20.378
			c-0.894,0.627-1.637,1.212-2.249,1.771V10.275c1.242,0.263,2.557,0.801,3.463,1.867C19.425,14.775,18.669,18.492,15.981,20.378z"
			/>
		<g>
			<path fill="#1A171B" d="M0,18.425C0,8.245,8.252,0,18.428,0l0,0c10.177,0,18.429,8.245,18.43,18.425l0,0
				c-0.001,10.174-8.253,18.425-18.43,18.425l0,0C8.252,36.85,0,28.599,0,18.425L0,18.425z M5.635,5.631
				c-3.274,3.274-5.3,7.796-5.3,12.794l0,0c0,4.995,2.025,9.517,5.3,12.791l0,0c3.275,3.274,7.797,5.3,12.793,5.3l0,0
				c4.996,0,9.52-2.025,12.794-5.3l0,0c3.275-3.274,5.301-7.796,5.301-12.791l0,0c0-4.998-2.025-9.52-5.301-12.794l0,0
				c-3.274-3.273-7.798-5.297-12.794-5.297l0,0C13.432,0.334,8.91,2.357,5.635,5.631L5.635,5.631z"/>
		</g>
	</g>
	<g>
		<path fill="#F8B323" d="M44.818,7.739c0.184-0.04,0.363-0.065,0.541-0.078c0.176-0.013,0.376-0.021,0.6-0.021
			c0.366,0,0.739,0.04,1.12,0.118c0.04,0.065,0.075,0.161,0.108,0.285c0.032,0.125,0.064,0.259,0.098,0.403
			c0.032,0.145,0.06,0.285,0.079,0.422c0.02,0.139,0.035,0.254,0.049,0.345c0.118-0.21,0.262-0.416,0.433-0.619
			c0.17-0.203,0.376-0.384,0.619-0.54c0.242-0.158,0.514-0.285,0.815-0.385c0.302-0.098,0.636-0.146,1.003-0.146
			c0.562,0,1.091,0.104,1.582,0.314c0.491,0.209,0.92,0.527,1.287,0.953s0.652,0.96,0.855,1.602
			c0.203,0.643,0.305,1.402,0.305,2.281c0,0.852-0.125,1.615-0.373,2.289c-0.25,0.676-0.61,1.248-1.082,1.721
			c-0.472,0.471-1.049,0.834-1.729,1.09c-0.682,0.256-1.454,0.384-2.319,0.384c-0.224,0-0.442-0.009-0.658-0.029
			c-0.217-0.02-0.397-0.043-0.54-0.069v4.521c-0.25,0.039-0.489,0.064-0.718,0.078c-0.229,0.014-0.456,0.02-0.679,0.02
			c-0.224,0-0.449-0.006-0.679-0.02c-0.229-0.014-0.469-0.039-0.717-0.078V7.739z M47.61,15.76c0.353,0.104,0.759,0.156,1.218,0.156
			c0.812,0,1.436-0.262,1.867-0.785c0.433-0.525,0.648-1.318,0.648-2.379c0-0.406-0.032-0.783-0.098-1.131
			c-0.066-0.346-0.178-0.645-0.334-0.895c-0.158-0.248-0.357-0.444-0.6-0.59c-0.243-0.143-0.541-0.215-0.895-0.215
			c-0.328,0-0.606,0.062-0.836,0.186c-0.229,0.125-0.416,0.295-0.56,0.512c-0.145,0.217-0.249,0.469-0.315,0.757
			c-0.065,0.288-0.097,0.597-0.097,0.924V15.76z"/>
		<path fill="#F8B323" d="M57.044,9.882h-1.316c-0.04-0.171-0.069-0.351-0.089-0.54s-0.029-0.371-0.029-0.541
			c0-0.354,0.039-0.701,0.118-1.042h4.049v10.163C59.305,18,58.846,18.039,58.4,18.039c-0.433,0-0.885-0.039-1.356-0.117V9.882z
			 M56.632,6.049c-0.079-0.445-0.118-0.885-0.118-1.316c0-0.42,0.039-0.858,0.118-1.317c0.222-0.04,0.462-0.069,0.718-0.089
			c0.255-0.02,0.487-0.029,0.697-0.029c0.223,0,0.465,0.01,0.727,0.029c0.263,0.02,0.505,0.049,0.728,0.089
			c0.04,0.224,0.065,0.442,0.079,0.659C59.593,4.29,59.6,4.51,59.6,4.732c0,0.209-0.007,0.426-0.02,0.648
			c-0.014,0.223-0.039,0.445-0.079,0.668c-0.223,0.039-0.462,0.066-0.717,0.078c-0.256,0.014-0.495,0.021-0.718,0.021
			c-0.21,0-0.445-0.007-0.707-0.021C57.097,6.115,56.854,6.088,56.632,6.049z"/>
		<path fill="#F8B323" d="M62.528,7.759c0.196-0.038,0.383-0.068,0.56-0.089c0.177-0.02,0.371-0.029,0.58-0.029
			c0.196,0,0.391,0.014,0.58,0.04s0.377,0.059,0.561,0.099c0.039,0.065,0.075,0.16,0.107,0.284c0.033,0.125,0.062,0.256,0.089,0.394
			s0.049,0.275,0.069,0.412c0.02,0.139,0.035,0.254,0.049,0.345c0.288-0.406,0.642-0.77,1.061-1.091
			c0.42-0.32,0.944-0.482,1.572-0.482c0.131,0,0.282,0.008,0.453,0.021c0.17,0.013,0.295,0.032,0.373,0.06
			c0.026,0.131,0.046,0.281,0.059,0.451c0.014,0.17,0.021,0.348,0.021,0.531c0,0.223-0.01,0.465-0.03,0.727
			c-0.02,0.263-0.056,0.512-0.107,0.747c-0.145-0.026-0.305-0.04-0.481-0.04c-0.178,0-0.286,0-0.324,0
			c-0.224,0-0.473,0.023-0.747,0.069c-0.275,0.046-0.537,0.167-0.787,0.364c-0.248,0.196-0.455,0.49-0.619,0.885
			c-0.164,0.393-0.245,0.943-0.245,1.65v4.836c-0.236,0.039-0.472,0.064-0.708,0.078c-0.235,0.014-0.465,0.02-0.688,0.02
			s-0.449-0.006-0.679-0.02c-0.229-0.014-0.468-0.039-0.717-0.078V7.759z"/>
		<path fill="#F8B323" d="M75.305,11.238c0-0.314-0.053-0.57-0.157-0.767s-0.249-0.351-0.433-0.462s-0.41-0.188-0.678-0.227
			c-0.27-0.039-0.567-0.059-0.895-0.059c-0.708,0-1.462,0.138-2.261,0.412c-0.184-0.34-0.321-0.66-0.413-0.963
			c-0.092-0.301-0.137-0.661-0.137-1.08c0.576-0.197,1.152-0.342,1.729-0.433c0.576-0.092,1.113-0.138,1.611-0.138
			c1.363,0,2.428,0.328,3.194,0.982c0.767,0.655,1.15,1.703,1.15,3.146v5.896c-0.459,0.145-1.016,0.282-1.671,0.413
			s-1.396,0.196-2.222,0.196c-0.668,0-1.281-0.06-1.838-0.177s-1.035-0.314-1.435-0.59s-0.708-0.629-0.924-1.062
			s-0.324-0.963-0.324-1.592c0-0.63,0.134-1.157,0.403-1.583c0.268-0.426,0.615-0.766,1.041-1.021s0.9-0.439,1.426-0.551
			c0.523-0.111,1.048-0.167,1.572-0.167c0.38,0,0.799,0.021,1.258,0.06V11.238z M75.305,13.263
			c-0.157-0.026-0.328-0.049-0.512-0.068c-0.184-0.021-0.347-0.03-0.49-0.03c-0.643,0-1.15,0.115-1.524,0.345
			c-0.373,0.229-0.56,0.599-0.56,1.11c0,0.341,0.071,0.604,0.216,0.786c0.145,0.185,0.317,0.317,0.521,0.403
			c0.203,0.085,0.42,0.137,0.649,0.157c0.229,0.019,0.429,0.029,0.6,0.029c0.196,0,0.393-0.017,0.589-0.05
			c0.197-0.032,0.367-0.062,0.512-0.088V13.263z"/>
		<path fill="#F8B323" d="M80.769,9.882h-1.277l-0.099-0.394l3.676-4.697h0.452v2.968h2.379c0.039,0.196,0.065,0.374,0.078,0.53
			c0.013,0.158,0.02,0.322,0.02,0.492c0,0.184-0.007,0.361-0.02,0.531s-0.039,0.36-0.078,0.569h-2.379v3.99
			c0,0.406,0.032,0.733,0.099,0.983c0.065,0.248,0.16,0.445,0.285,0.59c0.124,0.145,0.278,0.242,0.462,0.294
			c0.183,0.053,0.399,0.079,0.648,0.079c0.196,0,0.39-0.017,0.58-0.049c0.189-0.033,0.356-0.062,0.501-0.089
			c0.092,0.249,0.157,0.508,0.197,0.776c0.039,0.269,0.059,0.508,0.059,0.717c0,0.145-0.003,0.266-0.01,0.364
			s-0.017,0.193-0.029,0.285c-0.604,0.144-1.227,0.216-1.868,0.216c-1.192,0-2.103-0.278-2.731-0.835
			c-0.629-0.558-0.944-1.465-0.944-2.723V9.882z"/>
		<path fill="#F8B323" d="M90.242,13.695c0.053,0.786,0.328,1.356,0.826,1.71c0.498,0.354,1.153,0.53,1.966,0.53
			c0.445,0,0.901-0.042,1.366-0.127c0.465-0.086,0.907-0.207,1.326-0.363c0.145,0.262,0.269,0.576,0.374,0.943
			c0.104,0.367,0.164,0.76,0.177,1.18c-1.021,0.393-2.176,0.589-3.459,0.589c-0.943,0-1.753-0.131-2.428-0.394
			c-0.676-0.262-1.226-0.625-1.651-1.091c-0.426-0.465-0.74-1.019-0.943-1.66s-0.305-1.343-0.305-2.104
			c0-0.747,0.104-1.448,0.314-2.104s0.521-1.226,0.934-1.71c0.413-0.484,0.924-0.868,1.533-1.15
			c0.609-0.281,1.319-0.422,2.133-0.422c0.708,0,1.337,0.125,1.887,0.373c0.551,0.249,1.019,0.59,1.405,1.021
			c0.387,0.434,0.679,0.947,0.875,1.543c0.196,0.598,0.295,1.236,0.295,1.918c0,0.248-0.01,0.494-0.029,0.736
			c-0.02,0.243-0.043,0.436-0.069,0.58H90.242z M94.233,11.75c-0.026-0.63-0.2-1.137-0.521-1.523
			c-0.322-0.387-0.771-0.58-1.348-0.58c-0.654,0-1.152,0.184-1.493,0.551c-0.341,0.366-0.544,0.883-0.609,1.553H94.233z"/>
		<path fill="#F8B323" d="M99.068,7.759c0.184-0.038,0.367-0.068,0.551-0.089c0.184-0.02,0.387-0.029,0.609-0.029
			s0.419,0.01,0.59,0.029c0.17,0.021,0.347,0.051,0.53,0.089c0.04,0.065,0.075,0.161,0.108,0.285
			c0.032,0.125,0.062,0.256,0.088,0.394c0.026,0.138,0.05,0.271,0.069,0.402s0.036,0.243,0.049,0.334
			c0.131-0.195,0.288-0.393,0.472-0.589s0.396-0.374,0.639-0.53c0.242-0.158,0.515-0.285,0.816-0.385
			c0.301-0.098,0.635-0.146,1.002-0.146c1.153,0,2.021,0.314,2.604,0.943s0.875,1.619,0.875,2.969v6.486
			c-0.472,0.078-0.938,0.117-1.396,0.117c-0.459,0-0.924-0.039-1.396-0.117v-5.74c0-0.707-0.108-1.252-0.324-1.631
			c-0.217-0.381-0.593-0.57-1.131-0.57c-0.223,0-0.452,0.033-0.688,0.098c-0.236,0.066-0.449,0.193-0.639,0.383
			c-0.19,0.191-0.345,0.457-0.462,0.797c-0.118,0.342-0.178,0.786-0.178,1.336v5.328c-0.471,0.078-0.937,0.117-1.396,0.117
			c-0.458,0-0.924-0.039-1.396-0.117V7.759z"/>
		<path fill="#1A171B" d="M110.96,7.896c0.079-0.013,0.177-0.022,0.295-0.029c0.118-0.006,0.217-0.01,0.296-0.01
			c0.078,0,0.176,0.004,0.294,0.01c0.118,0.007,0.217,0.017,0.295,0.029l0.118,1.377c0.275-0.42,0.671-0.793,1.189-1.121
			c0.518-0.328,1.189-0.491,2.015-0.491c0.615,0,1.18,0.095,1.69,0.284c0.511,0.191,0.946,0.488,1.307,0.895
			c0.361,0.406,0.643,0.918,0.846,1.533c0.203,0.616,0.305,1.357,0.305,2.221c0,0.865-0.118,1.643-0.354,2.33
			c-0.236,0.688-0.58,1.271-1.033,1.749c-0.451,0.479-1.009,0.845-1.67,1.101c-0.662,0.256-1.419,0.384-2.271,0.384
			c-0.314,0-0.655-0.026-1.022-0.079c-0.367-0.052-0.701-0.131-1.002-0.235v4.718c-0.079,0.013-0.19,0.022-0.334,0.029
			c-0.145,0.006-0.25,0.01-0.314,0.01c-0.079,0-0.188-0.004-0.324-0.01c-0.138-0.007-0.246-0.017-0.325-0.029V7.896z
			 M112.258,16.644c0.301,0.118,0.612,0.206,0.934,0.266c0.32,0.059,0.75,0.089,1.287,0.089c0.512,0,0.996-0.082,1.455-0.246
			c0.458-0.164,0.858-0.423,1.199-0.776c0.34-0.354,0.609-0.803,0.806-1.347c0.196-0.543,0.295-1.195,0.295-1.955
			c0-1.206-0.227-2.15-0.679-2.832c-0.451-0.681-1.183-1.021-2.191-1.021c-0.314,0-0.655,0.053-1.021,0.158
			c-0.367,0.104-0.705,0.284-1.013,0.54c-0.308,0.255-0.563,0.589-0.767,1.002s-0.305,0.935-0.305,1.563V16.644z"/>
		<path fill="#1A171B" d="M127.857,11.297c0-0.864-0.203-1.497-0.609-1.896s-1.01-0.6-1.809-0.6c-0.523,0-1.002,0.037-1.435,0.107
			c-0.433,0.072-0.819,0.162-1.16,0.266c-0.065-0.117-0.121-0.287-0.167-0.511c-0.046-0.222-0.068-0.433-0.068-0.628
			c0.341-0.105,0.76-0.193,1.258-0.266s1.009-0.108,1.533-0.108c1.271,0,2.214,0.278,2.831,0.835
			c0.615,0.557,0.923,1.432,0.923,2.624v6.624c-0.459,0.093-1.016,0.184-1.671,0.275s-1.277,0.138-1.867,0.138
			c-1.218,0-2.179-0.242-2.879-0.728c-0.702-0.484-1.052-1.271-1.052-2.358c0-0.524,0.102-0.993,0.305-1.405s0.484-0.76,0.845-1.042
			s0.793-0.494,1.298-0.64c0.504-0.144,1.058-0.215,1.661-0.215c0.472,0,0.878,0.016,1.218,0.049
			c0.341,0.033,0.623,0.062,0.846,0.088V11.297z M127.857,13.047c-0.223-0.026-0.502-0.056-0.836-0.089
			c-0.334-0.032-0.651-0.049-0.953-0.049c-0.982,0-1.742,0.184-2.28,0.55c-0.537,0.367-0.806,0.893-0.806,1.572
			c0,0.434,0.082,0.78,0.246,1.042c0.164,0.263,0.376,0.462,0.639,0.6c0.262,0.138,0.551,0.229,0.865,0.275s0.629,0.069,0.943,0.069
			c0.406,0,0.786-0.02,1.14-0.06c0.354-0.039,0.701-0.091,1.042-0.157V13.047z"/>
		<path fill="#1A171B" d="M132.214,7.896c0.104-0.013,0.206-0.022,0.305-0.029c0.099-0.006,0.192-0.01,0.285-0.01
			c0.104,0,0.203,0.004,0.295,0.01c0.091,0.007,0.189,0.017,0.294,0.029c0.026,0.236,0.046,0.515,0.06,0.836
			c0.013,0.32,0.02,0.612,0.02,0.875c0.263-0.484,0.629-0.895,1.101-1.229c0.473-0.335,1.094-0.502,1.868-0.502
			c0.064,0,0.134,0,0.206,0s0.154,0.007,0.245,0.02c0.04,0.223,0.06,0.433,0.06,0.629c0,0.211-0.02,0.413-0.06,0.609
			c-0.104-0.012-0.187-0.02-0.245-0.02s-0.121,0-0.187,0c-0.892,0-1.605,0.282-2.143,0.846c-0.538,0.562-0.806,1.5-0.806,2.811v5.15
			c-0.079,0.012-0.188,0.021-0.324,0.029c-0.139,0.006-0.247,0.01-0.325,0.01c-0.065,0-0.171-0.004-0.314-0.01
			c-0.144-0.008-0.255-0.018-0.334-0.029V7.896z"/>
		<path fill="#1A171B" d="M139.681,8.998h-1.71c-0.013-0.066-0.022-0.151-0.029-0.256c-0.007-0.105-0.01-0.21-0.01-0.314
			c0-0.105,0.003-0.203,0.01-0.295s0.017-0.17,0.029-0.236h1.71V6.01l1.219-1.199h0.079v3.086h2.713
			c0.013,0.066,0.022,0.145,0.029,0.236c0.006,0.092,0.01,0.189,0.01,0.295c0,0.104-0.004,0.209-0.01,0.314
			c-0.007,0.104-0.017,0.189-0.029,0.256h-2.713v6.525c0,0.328,0.042,0.586,0.128,0.776c0.085,0.19,0.196,0.337,0.334,0.442
			s0.295,0.174,0.472,0.206s0.356,0.05,0.54,0.05c0.459,0,0.858-0.06,1.199-0.178c0.092,0.342,0.157,0.708,0.196,1.102
			c-0.472,0.144-1.021,0.216-1.65,0.216c-0.747,0-1.354-0.2-1.818-0.6s-0.698-1.052-0.698-1.956V8.998z"/>
		<path fill="#1A171B" d="M146.582,13.105c0,1.336,0.308,2.32,0.924,2.949c0.615,0.629,1.539,0.943,2.771,0.943
			c0.498,0,0.96-0.043,1.386-0.128s0.842-0.2,1.248-0.345c0.065,0.145,0.118,0.322,0.157,0.531s0.065,0.399,0.079,0.57
			c-0.38,0.17-0.826,0.301-1.337,0.393c-0.512,0.092-1.068,0.138-1.671,0.138c-0.864,0-1.608-0.128-2.231-0.384
			c-0.622-0.256-1.133-0.611-1.532-1.07c-0.4-0.459-0.695-1.006-0.885-1.643c-0.19-0.635-0.285-1.332-0.285-2.092
			c0-0.734,0.089-1.422,0.266-2.064s0.445-1.205,0.806-1.69c0.359-0.485,0.822-0.865,1.386-1.14
			c0.563-0.275,1.238-0.413,2.024-0.413c0.655,0,1.238,0.11,1.749,0.334c0.512,0.224,0.94,0.534,1.288,0.934
			c0.347,0.399,0.609,0.878,0.786,1.435c0.177,0.558,0.265,1.164,0.265,1.818c0,0.118-0.003,0.27-0.009,0.452
			c-0.007,0.185-0.017,0.341-0.029,0.472H146.582z M152.479,12.024c0-0.405-0.052-0.806-0.157-1.198
			c-0.104-0.394-0.269-0.738-0.491-1.033c-0.223-0.294-0.512-0.533-0.865-0.717s-0.779-0.275-1.277-0.275
			c-0.917,0-1.631,0.282-2.143,0.846c-0.511,0.562-0.819,1.355-0.924,2.378H152.479z"/>
		<path fill="#1A171B" d="M157.235,8.998h-1.258c-0.014-0.066-0.022-0.145-0.029-0.236s-0.011-0.189-0.011-0.295
			c0-0.104,0.004-0.209,0.011-0.314s0.016-0.189,0.029-0.256h2.556v10.025c-0.079,0.012-0.188,0.021-0.324,0.029
			c-0.139,0.006-0.246,0.01-0.325,0.01c-0.065,0-0.17-0.004-0.314-0.01c-0.144-0.008-0.255-0.018-0.334-0.029V8.998z M156.587,5.439
			c-0.014-0.117-0.023-0.262-0.029-0.433c-0.007-0.17-0.011-0.313-0.011-0.433c0-0.104,0.004-0.235,0.011-0.393
			c0.006-0.157,0.016-0.288,0.029-0.393c0.118-0.014,0.262-0.023,0.433-0.03c0.17-0.006,0.314-0.009,0.432-0.009
			c0.105,0,0.236,0.003,0.394,0.009c0.157,0.007,0.288,0.017,0.394,0.03c0.013,0.104,0.022,0.235,0.029,0.393
			c0.006,0.157,0.01,0.289,0.01,0.393c0,0.119-0.004,0.263-0.01,0.433c-0.007,0.171-0.017,0.315-0.029,0.433
			c-0.105,0.014-0.236,0.023-0.394,0.029c-0.157,0.008-0.288,0.01-0.394,0.01c-0.117,0-0.262-0.002-0.432-0.01
			C156.849,5.463,156.705,5.453,156.587,5.439z"/>
	</g>
	<g>
		<path fill="#1A171B" d="M45.009,25.256c0.051-0.008,0.113-0.014,0.188-0.018c0.072-0.003,0.139-0.005,0.197-0.005
			c0.064,0,0.131,0.002,0.197,0.005c0.064,0.004,0.123,0.01,0.174,0.018v7.882c-0.051,0.007-0.109,0.013-0.174,0.017
			c-0.066,0.004-0.133,0.006-0.197,0.006c-0.074,0-0.145-0.002-0.215-0.006c-0.068-0.004-0.125-0.01-0.17-0.017V25.256z
			 M46.28,29.104l2.773-3.848c0.059-0.008,0.119-0.014,0.182-0.018c0.062-0.003,0.123-0.005,0.182-0.005
			c0.08,0,0.156,0.002,0.229,0.005c0.074,0.004,0.15,0.01,0.23,0.018l-2.695,3.771l3.113,4.111
			c-0.082,0.007-0.164,0.013-0.248,0.017S49.88,33.16,49.8,33.16c-0.066,0-0.133-0.002-0.203-0.006
			c-0.068-0.004-0.137-0.01-0.203-0.017L46.28,29.104z"/>
		<path fill="#1A171B" d="M54.448,29.443c0-0.482-0.113-0.835-0.34-1.059c-0.227-0.223-0.562-0.334-1.008-0.334
			c-0.293,0-0.561,0.021-0.801,0.061c-0.242,0.04-0.457,0.09-0.646,0.148c-0.037-0.066-0.068-0.161-0.094-0.285
			c-0.025-0.125-0.039-0.242-0.039-0.352c0.191-0.059,0.424-0.107,0.703-0.148c0.277-0.039,0.562-0.06,0.854-0.06
			c0.709,0,1.236,0.155,1.58,0.466c0.342,0.311,0.514,0.799,0.514,1.464v3.694c-0.256,0.051-0.566,0.102-0.932,0.153
			s-0.713,0.077-1.041,0.077c-0.68,0-1.215-0.135-1.605-0.406c-0.391-0.27-0.588-0.709-0.588-1.315c0-0.292,0.057-0.554,0.17-0.784
			c0.113-0.229,0.271-0.424,0.473-0.58c0.201-0.158,0.441-0.276,0.723-0.357c0.281-0.08,0.59-0.12,0.928-0.12
			c0.262,0,0.488,0.009,0.68,0.028c0.189,0.018,0.346,0.034,0.471,0.049V29.443z M54.448,30.419
			c-0.125-0.015-0.279-0.031-0.467-0.05c-0.186-0.018-0.363-0.027-0.531-0.027c-0.547,0-0.973,0.103-1.271,0.307
			c-0.299,0.205-0.449,0.498-0.449,0.878c0,0.241,0.045,0.435,0.137,0.581s0.211,0.258,0.357,0.334
			c0.145,0.076,0.307,0.128,0.48,0.154c0.176,0.025,0.352,0.037,0.527,0.037c0.227,0,0.438-0.01,0.635-0.032
			c0.199-0.022,0.393-0.052,0.582-0.088V30.419z"/>
		<path fill="#1A171B" d="M56.991,27.547c0.059-0.008,0.115-0.014,0.17-0.017c0.055-0.004,0.107-0.006,0.16-0.006
			c0.057,0,0.113,0.002,0.164,0.006c0.051,0.003,0.105,0.009,0.164,0.017c0.014,0.131,0.025,0.296,0.033,0.493
			s0.01,0.369,0.01,0.515c0.074-0.131,0.168-0.264,0.285-0.4c0.117-0.135,0.254-0.257,0.412-0.367
			c0.156-0.109,0.338-0.198,0.543-0.268c0.203-0.07,0.428-0.104,0.668-0.104c0.643,0,1.111,0.192,1.404,0.575
			c0.291,0.384,0.438,0.924,0.438,1.617v3.53c-0.043,0.007-0.104,0.013-0.182,0.017c-0.076,0.004-0.137,0.006-0.18,0.006
			c-0.037,0-0.096-0.002-0.176-0.006s-0.143-0.01-0.186-0.017v-3.312c0-0.621-0.098-1.066-0.291-1.337s-0.484-0.405-0.871-0.405
			c-0.256,0-0.498,0.051-0.725,0.153s-0.422,0.251-0.586,0.444s-0.295,0.433-0.389,0.718c-0.096,0.285-0.143,0.61-0.143,0.976v2.763
			c-0.045,0.007-0.105,0.013-0.182,0.017s-0.137,0.006-0.182,0.006c-0.035,0-0.094-0.002-0.174-0.006
			c-0.082-0.004-0.143-0.01-0.188-0.017V27.547z"/>
		<path fill="#1A171B" d="M63.515,28.16H62.56c-0.006-0.036-0.012-0.084-0.016-0.143s-0.006-0.116-0.006-0.175
			s0.002-0.113,0.006-0.165c0.004-0.051,0.01-0.095,0.016-0.131h0.955v-1.053l0.68-0.669h0.043v1.722h1.514
			c0.008,0.036,0.012,0.08,0.016,0.131c0.004,0.052,0.006,0.106,0.006,0.165s-0.002,0.116-0.006,0.175s-0.008,0.106-0.016,0.143
			h-1.514v3.641c0,0.182,0.023,0.326,0.072,0.433c0.047,0.106,0.109,0.188,0.186,0.247s0.164,0.096,0.264,0.115
			c0.098,0.018,0.199,0.027,0.301,0.027c0.256,0,0.479-0.033,0.67-0.1c0.051,0.19,0.088,0.395,0.109,0.614
			c-0.264,0.081-0.57,0.12-0.922,0.12c-0.416,0-0.754-0.111-1.014-0.334s-0.389-0.586-0.389-1.091V28.16z"/>
		<path fill="#1A171B" d="M69.161,33.27c-0.418,0-0.783-0.075-1.098-0.225c-0.314-0.15-0.574-0.357-0.783-0.619
			c-0.209-0.264-0.363-0.574-0.465-0.933c-0.104-0.358-0.154-0.741-0.154-1.151c0-0.408,0.051-0.793,0.154-1.15
			c0.102-0.358,0.256-0.669,0.465-0.932c0.209-0.264,0.469-0.471,0.783-0.62s0.68-0.225,1.098-0.225c0.416,0,0.779,0.075,1.09,0.225
			s0.57,0.356,0.779,0.62c0.207,0.263,0.365,0.573,0.471,0.932c0.105,0.357,0.158,0.742,0.158,1.15c0,0.41-0.053,0.793-0.158,1.151
			s-0.264,0.669-0.471,0.933c-0.209,0.262-0.469,0.469-0.779,0.619C69.94,33.194,69.577,33.27,69.161,33.27z M69.161,32.633
			c0.584,0,1.021-0.204,1.309-0.613c0.289-0.409,0.434-0.969,0.434-1.678s-0.145-1.268-0.434-1.678
			c-0.287-0.408-0.725-0.613-1.309-0.613c-0.586,0-1.021,0.205-1.311,0.613c-0.289,0.41-0.434,0.969-0.434,1.678
			s0.145,1.269,0.434,1.678S68.575,32.633,69.161,32.633z"/>
		<path fill="#1A171B" d="M73.271,27.547c0.059-0.008,0.115-0.014,0.17-0.017c0.055-0.004,0.107-0.006,0.16-0.006
			c0.057,0,0.113,0.002,0.164,0.006c0.051,0.003,0.105,0.009,0.164,0.017c0.014,0.131,0.025,0.296,0.033,0.493
			s0.01,0.369,0.01,0.515c0.074-0.131,0.168-0.264,0.285-0.4c0.117-0.135,0.254-0.257,0.412-0.367
			c0.156-0.109,0.338-0.198,0.543-0.268c0.203-0.07,0.428-0.104,0.668-0.104c0.643,0,1.111,0.192,1.404,0.575
			c0.291,0.384,0.438,0.924,0.438,1.617v3.53c-0.043,0.007-0.104,0.013-0.182,0.017c-0.076,0.004-0.137,0.006-0.18,0.006
			c-0.037,0-0.096-0.002-0.176-0.006s-0.143-0.01-0.186-0.017v-3.312c0-0.621-0.098-1.066-0.291-1.337s-0.484-0.405-0.871-0.405
			c-0.256,0-0.498,0.051-0.725,0.153s-0.422,0.251-0.586,0.444s-0.295,0.433-0.389,0.718c-0.096,0.285-0.143,0.61-0.143,0.976v2.763
			c-0.045,0.007-0.105,0.013-0.182,0.017s-0.137,0.006-0.182,0.006c-0.035,0-0.094-0.002-0.174-0.006
			c-0.082-0.004-0.143-0.01-0.188-0.017V27.547z"/>
		<path fill="#1A171B" d="M82.425,25.256c0.074-0.008,0.178-0.019,0.312-0.033s0.279-0.029,0.434-0.044
			c0.152-0.015,0.309-0.026,0.465-0.033c0.158-0.007,0.299-0.011,0.424-0.011c0.861,0,1.523,0.166,1.982,0.498
			c0.461,0.334,0.691,0.85,0.691,1.552c0,0.228-0.035,0.433-0.104,0.62c-0.07,0.186-0.164,0.354-0.279,0.504
			c-0.117,0.15-0.254,0.275-0.412,0.378c-0.156,0.103-0.32,0.179-0.488,0.23c0.227,0.029,0.447,0.089,0.658,0.181
			c0.213,0.092,0.4,0.219,0.564,0.384s0.297,0.369,0.395,0.614c0.1,0.244,0.148,0.539,0.148,0.883c0,0.395-0.078,0.734-0.236,1.02
			c-0.156,0.285-0.375,0.521-0.656,0.712s-0.615,0.331-0.998,0.423c-0.385,0.091-0.803,0.137-1.256,0.137
			c-0.117,0-0.248-0.004-0.395-0.012c-0.146-0.007-0.295-0.016-0.443-0.027c-0.15-0.011-0.297-0.025-0.439-0.043
			c-0.143-0.02-0.264-0.035-0.367-0.05V25.256z M84.224,28.609c0.592,0,1.025-0.131,1.299-0.395c0.273-0.263,0.41-0.605,0.41-1.03
			c0-0.395-0.145-0.726-0.432-0.992c-0.289-0.267-0.744-0.399-1.365-0.399c-0.191,0-0.371,0.007-0.543,0.021
			s-0.309,0.029-0.412,0.044v2.751H84.224z M83.181,32.523c0.104,0.016,0.24,0.027,0.412,0.039c0.172,0.011,0.352,0.016,0.543,0.016
			c0.285,0,0.564-0.025,0.838-0.076c0.275-0.051,0.518-0.139,0.729-0.264c0.213-0.123,0.383-0.288,0.51-0.492
			c0.129-0.205,0.193-0.461,0.193-0.768c0-0.308-0.055-0.564-0.164-0.773c-0.111-0.209-0.26-0.379-0.451-0.51
			c-0.189-0.131-0.412-0.227-0.668-0.285s-0.529-0.088-0.822-0.088h-1.119V32.523z"/>
		<path fill="#1A171B" d="M89.179,30.451c0,0.746,0.172,1.295,0.516,1.645c0.344,0.352,0.857,0.527,1.545,0.527
			c0.277,0,0.535-0.024,0.773-0.072c0.236-0.047,0.469-0.111,0.695-0.191c0.037,0.08,0.066,0.18,0.088,0.296
			c0.021,0.117,0.037,0.224,0.045,0.317c-0.213,0.096-0.461,0.168-0.746,0.22s-0.596,0.077-0.932,0.077
			c-0.482,0-0.896-0.072-1.244-0.214c-0.348-0.143-0.633-0.342-0.855-0.598s-0.387-0.562-0.494-0.915
			c-0.105-0.355-0.158-0.744-0.158-1.168c0-0.409,0.049-0.793,0.148-1.15c0.098-0.359,0.248-0.673,0.449-0.943
			s0.459-0.482,0.773-0.637c0.314-0.152,0.689-0.229,1.129-0.229c0.365,0,0.689,0.062,0.975,0.187
			c0.285,0.124,0.525,0.298,0.719,0.521c0.193,0.224,0.34,0.489,0.439,0.8c0.098,0.311,0.146,0.649,0.146,1.015
			c0,0.065-0.002,0.149-0.004,0.252c-0.004,0.103-0.01,0.19-0.018,0.263H89.179z M92.468,29.849c0-0.226-0.029-0.449-0.088-0.669
			c-0.059-0.219-0.15-0.41-0.273-0.575c-0.125-0.165-0.285-0.298-0.482-0.4s-0.436-0.153-0.713-0.153
			c-0.512,0-0.91,0.157-1.195,0.472c-0.285,0.313-0.457,0.757-0.516,1.326H92.468z"/>
		<path fill="#1A171B" d="M94.78,27.547c0.059-0.008,0.115-0.014,0.17-0.017c0.055-0.004,0.107-0.006,0.16-0.006
			c0.057,0,0.113,0.002,0.164,0.006c0.051,0.003,0.105,0.009,0.164,0.017c0.014,0.131,0.025,0.287,0.033,0.466
			s0.01,0.341,0.01,0.487c0.146-0.27,0.352-0.498,0.615-0.686c0.262-0.186,0.609-0.279,1.041-0.279c0.037,0,0.074,0,0.115,0
			c0.039,0,0.086,0.004,0.137,0.012c0.021,0.124,0.033,0.24,0.033,0.351c0,0.116-0.012,0.229-0.033,0.34
			c-0.059-0.007-0.104-0.011-0.137-0.011s-0.068,0-0.104,0c-0.498,0-0.896,0.156-1.195,0.471c-0.301,0.314-0.449,0.838-0.449,1.568
			v2.872c-0.045,0.007-0.105,0.013-0.182,0.017s-0.137,0.006-0.182,0.006c-0.035,0-0.094-0.002-0.174-0.006
			c-0.082-0.004-0.143-0.01-0.188-0.017V27.547z"/>
		<path fill="#1A171B" d="M98.618,27.547c0.059-0.008,0.115-0.014,0.17-0.017c0.055-0.004,0.107-0.006,0.158-0.006
			c0.059,0,0.113,0.002,0.164,0.006c0.051,0.003,0.105,0.009,0.164,0.017c0.016,0.131,0.027,0.296,0.033,0.493
			c0.008,0.197,0.012,0.369,0.012,0.515c0.072-0.131,0.168-0.264,0.285-0.4c0.117-0.135,0.254-0.257,0.41-0.367
			c0.158-0.109,0.338-0.198,0.543-0.268c0.205-0.07,0.428-0.104,0.67-0.104c0.643,0,1.109,0.192,1.402,0.575
			c0.293,0.384,0.439,0.924,0.439,1.617v3.53c-0.045,0.007-0.105,0.013-0.182,0.017s-0.137,0.006-0.182,0.006
			c-0.035,0-0.094-0.002-0.174-0.006c-0.082-0.004-0.143-0.01-0.188-0.017v-3.312c0-0.621-0.096-1.066-0.291-1.337
			c-0.193-0.271-0.484-0.405-0.871-0.405c-0.256,0-0.496,0.051-0.723,0.153s-0.422,0.251-0.588,0.444
			c-0.164,0.193-0.293,0.433-0.389,0.718s-0.143,0.61-0.143,0.976v2.763c-0.043,0.007-0.104,0.013-0.18,0.017
			c-0.078,0.004-0.139,0.006-0.182,0.006c-0.037,0-0.096-0.002-0.176-0.006s-0.143-0.01-0.186-0.017V27.547z"/>
	</g>
</g>
</svg>
