<?xml version="1.0" encoding="utf-8"?>
<!-- Generator: Adobe Illustrator 15.1.0, SVG Export Plug-In . SVG Version: 6.00 Build 0)  -->
<!DOCTYPE svg PUBLIC "-//W3C//DTD SVG 1.1//EN" "http://www.w3.org/Graphics/SVG/1.1/DTD/svg11.dtd">
<svg version="1.1" id="Logo" xmlns="http://www.w3.org/2000/svg" xmlns:xlink="http://www.w3.org/1999/xlink" x="0px" y="0px"
	 width="158.533px" height="36.85px" viewBox="0 0 158.533 36.85" enable-background="new 0 0 158.533 36.85" xml:space="preserve" stroke-width="0">
<g>
	<circle fill="#FFFFFF" cx="18.429" cy="18.425" r="15.89"/>
	<path fill="#1A171B" d="M18.428,1.35c-9.43,0-17.077,7.645-17.077,17.075c0,9.429,7.647,17.075,17.077,17.075
		c9.432,0,17.079-7.646,17.079-17.075C35.507,8.991,27.859,1.35,18.428,1.35z M18.428,33.745c-8.46,0-15.321-6.859-15.321-15.32
		s6.861-15.32,15.321-15.32c8.465,0,15.323,6.859,15.323,15.32S26.893,33.745,18.428,33.745z"/>
	<path fill="#1A171B" d="M25.729,9.926c-3.696-2.071-8.325-2.089-11.997-1.148v-1.59h-1.595v2.078
		c-0.684,0.247-1.317,0.527-1.881,0.832c0,0,0.793-0.098,1.881-0.031v13.896c-0.792,1.221-0.982,2.408-0.796,3.777
		c0.211,1.528,1.367,2.554,2.277,3.311c-0.536-1.545-0.576-2.95-0.419-3.801c0.301-1.588,1.232-2.729,5.252-3.603
		c4.171-0.896,9.112-1.312,10.745-5.361C29.941,16.436,30.403,12.55,25.729,9.926z M15.981,20.378
		c-0.894,0.627-1.637,1.212-2.249,1.771V10.275c1.242,0.266,2.557,0.804,3.463,1.867C19.425,14.775,18.669,18.492,15.981,20.378z"/>
	<g>
		<path fill="#1A171B" d="M0,18.425C0,8.245,8.252,0,18.428,0l0,0c10.177,0,18.429,8.245,18.43,18.425l0,0
			c-0.001,10.174-8.253,18.425-18.43,18.425l0,0C8.252,36.85,0,28.599,0,18.425L0,18.425z M5.635,5.631
			c-3.274,3.274-5.3,7.796-5.3,12.794l0,0c0,4.995,2.025,9.517,5.3,12.791l0,0c3.275,3.274,7.797,5.3,12.793,5.3l0,0
			c4.996,0,9.52-2.022,12.794-5.3l0,0c3.275-3.274,5.301-7.796,5.301-12.791l0,0c0-4.998-2.025-9.52-5.301-12.794l0,0
			c-3.274-3.273-7.798-5.297-12.794-5.297l0,0C13.432,0.334,8.91,2.357,5.635,5.631L5.635,5.631z"/>
	</g>
</g>
<g>
	<path fill="#F8B323" d="M44.818,7.74c0.184-0.04,0.363-0.065,0.541-0.078c0.176-0.016,0.376-0.021,0.6-0.021
		c0.366,0,0.739,0.04,1.12,0.118c0.04,0.065,0.075,0.161,0.108,0.285c0.032,0.125,0.064,0.259,0.098,0.4
		c0.032,0.146,0.06,0.285,0.079,0.425c0.02,0.139,0.035,0.254,0.049,0.345c0.118-0.21,0.262-0.416,0.433-0.619
		c0.17-0.203,0.376-0.384,0.619-0.54c0.242-0.158,0.514-0.285,0.815-0.385c0.302-0.101,0.636-0.146,1.003-0.146
		c0.562,0,1.091,0.104,1.582,0.314c0.491,0.209,0.92,0.527,1.287,0.953c0.367,0.426,0.652,0.96,0.855,1.602
		c0.203,0.646,0.305,1.402,0.305,2.281c0,0.852-0.125,1.615-0.373,2.289c-0.25,0.676-0.61,1.248-1.082,1.721
		s-1.049,0.834-1.729,1.09c-0.682,0.258-1.454,0.387-2.319,0.387c-0.224,0-0.442-0.012-0.658-0.029
		c-0.217-0.021-0.397-0.043-0.54-0.069v4.521c-0.25,0.039-0.489,0.062-0.718,0.078c-0.229,0.014-0.456,0.02-0.679,0.02
		c-0.224,0-0.449-0.006-0.679-0.02c-0.229-0.017-0.469-0.039-0.717-0.078V7.74L44.818,7.74z M47.61,15.76
		c0.353,0.104,0.759,0.156,1.218,0.156c0.812,0,1.436-0.265,1.867-0.785c0.433-0.525,0.648-1.318,0.648-2.379
		c0-0.406-0.032-0.783-0.098-1.131c-0.066-0.349-0.178-0.646-0.334-0.896c-0.158-0.248-0.357-0.441-0.6-0.59
		C50.068,9.992,49.77,9.92,49.416,9.92c-0.328,0-0.606,0.062-0.836,0.186c-0.229,0.125-0.416,0.295-0.56,0.515
		c-0.145,0.217-0.249,0.469-0.315,0.757c-0.065,0.288-0.097,0.597-0.097,0.924v3.46L47.61,15.76L47.61,15.76z"/>
	<path fill="#F8B323" d="M57.044,9.882h-1.316c-0.04-0.171-0.069-0.351-0.089-0.54S55.61,8.971,55.61,8.801
		c0-0.354,0.039-0.701,0.118-1.042h4.049v10.163C59.305,18,58.846,18.039,58.4,18.039c-0.433,0-0.885-0.039-1.356-0.117V9.882z
		 M56.632,6.049c-0.079-0.445-0.118-0.885-0.118-1.316c0-0.42,0.039-0.855,0.118-1.314c0.222-0.04,0.462-0.069,0.718-0.089
		C57.605,3.308,57.837,3.3,58.047,3.3c0.223,0,0.465,0.01,0.727,0.029c0.263,0.02,0.505,0.049,0.728,0.089
		c0.04,0.224,0.065,0.439,0.079,0.659C59.593,4.29,59.6,4.51,59.6,4.732c0,0.209-0.007,0.429-0.02,0.648
		c-0.014,0.223-0.039,0.445-0.079,0.668c-0.223,0.039-0.462,0.066-0.717,0.078c-0.256,0.014-0.495,0.021-0.718,0.021
		c-0.21,0-0.445-0.007-0.707-0.021C57.097,6.115,56.854,6.088,56.632,6.049z"/>
	<path fill="#F8B323" d="M62.528,7.759c0.196-0.038,0.383-0.068,0.56-0.089c0.177-0.021,0.371-0.029,0.58-0.029
		c0.196,0,0.391,0.017,0.58,0.04c0.189,0.026,0.377,0.062,0.561,0.102c0.039,0.062,0.075,0.157,0.107,0.281
		c0.033,0.125,0.062,0.256,0.089,0.396c0.027,0.138,0.049,0.272,0.069,0.412c0.02,0.139,0.035,0.254,0.049,0.345
		c0.288-0.406,0.642-0.771,1.061-1.091c0.42-0.32,0.944-0.482,1.572-0.482c0.131,0,0.282,0.008,0.453,0.021
		c0.17,0.013,0.295,0.029,0.373,0.06c0.026,0.131,0.046,0.281,0.059,0.451c0.014,0.17,0.021,0.348,0.021,0.531
		c0,0.223-0.01,0.465-0.03,0.727c-0.02,0.264-0.056,0.512-0.107,0.747c-0.145-0.025-0.305-0.04-0.481-0.04c-0.178,0-0.286,0-0.324,0
		c-0.224,0-0.473,0.023-0.747,0.069c-0.275,0.046-0.537,0.167-0.787,0.364c-0.248,0.193-0.455,0.487-0.619,0.885
		c-0.164,0.393-0.245,0.94-0.245,1.647v4.836c-0.236,0.039-0.472,0.064-0.708,0.078c-0.235,0.017-0.465,0.021-0.688,0.021
		c-0.223,0-0.449-0.006-0.679-0.021c-0.229-0.014-0.468-0.039-0.717-0.078V7.759H62.528z"/>
	<path fill="#F8B323" d="M75.305,11.238c0-0.312-0.053-0.567-0.157-0.767s-0.249-0.351-0.433-0.462s-0.41-0.188-0.678-0.227
		c-0.27-0.039-0.567-0.062-0.895-0.062c-0.708,0-1.462,0.138-2.261,0.412c-0.184-0.34-0.321-0.66-0.413-0.963
		c-0.092-0.301-0.137-0.661-0.137-1.08c0.576-0.197,1.152-0.342,1.729-0.433c0.576-0.095,1.113-0.141,1.611-0.141
		c1.363,0,2.428,0.328,3.194,0.982c0.767,0.654,1.15,1.703,1.15,3.146v5.896c-0.459,0.145-1.016,0.282-1.671,0.413
		c-0.655,0.131-1.396,0.193-2.222,0.193c-0.668,0-1.281-0.06-1.838-0.177c-0.557-0.117-1.035-0.312-1.435-0.59
		s-0.708-0.629-0.924-1.062c-0.216-0.435-0.324-0.965-0.324-1.594c0-0.63,0.134-1.155,0.403-1.583
		c0.268-0.426,0.615-0.766,1.041-1.021c0.426-0.255,0.9-0.439,1.426-0.552c0.523-0.11,1.048-0.167,1.572-0.167
		c0.38,0,0.799,0.021,1.258,0.061V11.23h0.004V11.238z M75.305,13.263c-0.157-0.026-0.328-0.049-0.512-0.068
		c-0.184-0.021-0.347-0.027-0.49-0.027c-0.643,0-1.15,0.115-1.524,0.345c-0.373,0.229-0.56,0.599-0.56,1.11
		c0,0.341,0.071,0.604,0.216,0.786c0.145,0.185,0.317,0.314,0.521,0.4c0.203,0.085,0.42,0.137,0.649,0.157
		c0.229,0.019,0.429,0.029,0.6,0.029c0.196,0,0.393-0.02,0.589-0.053c0.197-0.029,0.367-0.062,0.512-0.088L75.305,13.263
		L75.305,13.263z"/>
	<path fill="#F8B323" d="M80.769,9.882h-1.274l-0.099-0.396l3.674-4.694h0.451v2.968h2.379c0.039,0.196,0.065,0.374,0.078,0.53
		c0.016,0.158,0.021,0.319,0.021,0.492c0,0.184-0.007,0.358-0.021,0.528c-0.013,0.17-0.039,0.36-0.078,0.569h-2.379v3.99
		c0,0.403,0.033,0.73,0.102,0.98c0.062,0.248,0.158,0.445,0.283,0.59c0.123,0.146,0.277,0.242,0.464,0.294
		c0.183,0.056,0.397,0.079,0.646,0.079c0.196,0,0.391-0.017,0.58-0.049c0.189-0.033,0.356-0.062,0.502-0.089
		c0.092,0.249,0.156,0.508,0.196,0.776c0.039,0.269,0.06,0.508,0.06,0.717c0,0.145-0.004,0.266-0.011,0.364
		c-0.007,0.098-0.017,0.19-0.028,0.282c-0.604,0.146-1.228,0.219-1.869,0.219c-1.189,0-2.103-0.278-2.729-0.835
		c-0.629-0.561-0.941-1.468-0.941-2.726V9.882H80.769z"/>
	<path fill="#F8B323" d="M90.242,13.695c0.053,0.786,0.327,1.356,0.825,1.713c0.498,0.354,1.154,0.527,1.967,0.527
		c0.445,0,0.9-0.042,1.365-0.127c0.466-0.086,0.908-0.207,1.326-0.363c0.146,0.265,0.27,0.576,0.375,0.943
		c0.104,0.367,0.164,0.76,0.176,1.18c-1.021,0.396-2.176,0.592-3.459,0.592c-0.942,0-1.752-0.134-2.428-0.396
		c-0.678-0.262-1.228-0.625-1.65-1.091c-0.426-0.465-0.74-1.021-0.943-1.66s-0.305-1.343-0.305-2.104
		c0-0.747,0.104-1.448,0.314-2.104c0.209-0.656,0.521-1.226,0.934-1.71c0.412-0.484,0.924-0.868,1.533-1.15
		c0.606-0.278,1.316-0.422,2.133-0.422c0.707,0,1.337,0.125,1.887,0.373c0.551,0.249,1.02,0.59,1.404,1.021
		c0.388,0.434,0.68,0.944,0.875,1.543c0.197,0.598,0.296,1.233,0.296,1.918c0,0.248-0.011,0.494-0.029,0.733
		c-0.021,0.243-0.043,0.438-0.069,0.58h-6.524L90.242,13.695L90.242,13.695z M94.233,11.75c-0.026-0.63-0.2-1.14-0.521-1.523
		c-0.322-0.387-0.771-0.58-1.348-0.58c-0.654,0-1.152,0.187-1.493,0.554c-0.341,0.363-0.544,0.883-0.608,1.553L94.233,11.75
		L94.233,11.75z"/>
	<path fill="#F8B323" d="M99.067,7.759c0.185-0.038,0.367-0.068,0.552-0.089c0.185-0.021,0.387-0.029,0.608-0.029
		c0.223,0,0.42,0.01,0.59,0.029c0.17,0.021,0.348,0.051,0.531,0.089c0.039,0.065,0.072,0.161,0.105,0.285
		c0.029,0.125,0.062,0.256,0.088,0.394c0.023,0.141,0.05,0.271,0.066,0.402c0.021,0.131,0.037,0.243,0.052,0.334
		c0.131-0.195,0.288-0.393,0.472-0.589c0.186-0.196,0.396-0.374,0.641-0.53c0.242-0.158,0.516-0.285,0.814-0.385
		c0.303-0.098,0.637-0.146,1.002-0.146c1.153,0,2.021,0.314,2.604,0.943c0.584,0.629,0.875,1.619,0.875,2.969v6.486
		c-0.471,0.078-0.938,0.117-1.396,0.117c-0.459,0-0.924-0.039-1.396-0.117v-5.74c0-0.707-0.107-1.252-0.323-1.631
		c-0.218-0.381-0.595-0.57-1.132-0.57c-0.223,0-0.451,0.033-0.688,0.101c-0.233,0.063-0.446,0.19-0.639,0.383
		c-0.19,0.189-0.347,0.457-0.462,0.797c-0.118,0.342-0.18,0.786-0.18,1.336v5.328c-0.472,0.078-0.938,0.117-1.396,0.117
		s-0.924-0.039-1.396-0.117V7.759H99.067z"/>
	<path fill="#1A171B" d="M110.96,7.896c0.079-0.013,0.178-0.021,0.295-0.026c0.118-0.009,0.217-0.013,0.296-0.013
		c0.078,0,0.177,0.004,0.294,0.013c0.118,0.007,0.217,0.017,0.295,0.026l0.118,1.377c0.275-0.42,0.671-0.793,1.188-1.121
		c0.519-0.325,1.188-0.488,2.016-0.488c0.615,0,1.18,0.095,1.689,0.281c0.512,0.191,0.947,0.488,1.308,0.896
		c0.36,0.406,0.644,0.918,0.847,1.533c0.202,0.616,0.305,1.354,0.305,2.221s-0.116,1.643-0.354,2.33
		c-0.234,0.688-0.58,1.271-1.031,1.749c-0.451,0.478-1.011,0.845-1.67,1.101c-0.662,0.259-1.421,0.387-2.271,0.387
		c-0.313,0-0.655-0.026-1.021-0.079c-0.367-0.055-0.701-0.131-1.004-0.235v4.718c-0.078,0.016-0.189,0.022-0.334,0.029
		c-0.146,0.006-0.25,0.01-0.312,0.01c-0.078,0-0.188-0.004-0.323-0.01c-0.14-0.007-0.246-0.017-0.325-0.029L110.96,7.896
		L110.96,7.896z M112.258,16.644c0.302,0.118,0.612,0.206,0.935,0.269c0.32,0.059,0.75,0.089,1.287,0.089
		c0.514,0,0.996-0.082,1.455-0.246c0.457-0.164,0.857-0.423,1.198-0.776c0.341-0.353,0.609-0.803,0.806-1.347
		c0.196-0.543,0.295-1.195,0.295-1.955c0-1.206-0.227-2.15-0.678-2.832c-0.451-0.681-1.184-1.021-2.189-1.021
		c-0.314,0-0.655,0.053-1.021,0.155c-0.367,0.104-0.705,0.284-1.014,0.54c-0.309,0.255-0.562,0.589-0.768,1.002
		c-0.207,0.413-0.307,0.938-0.307,1.563L112.258,16.644L112.258,16.644z"/>
	<path fill="#1A171B" d="M127.856,11.297c0-0.864-0.203-1.497-0.608-1.896c-0.406-0.396-1.011-0.6-1.81-0.6
		c-0.522,0-1.002,0.037-1.437,0.107c-0.435,0.069-0.817,0.159-1.16,0.266c-0.063-0.117-0.118-0.287-0.167-0.511
		c-0.046-0.225-0.066-0.436-0.066-0.628c0.342-0.105,0.761-0.193,1.259-0.269s1.009-0.105,1.532-0.105
		c1.271,0,2.215,0.275,2.832,0.835c0.615,0.557,0.922,1.432,0.922,2.624v6.624c-0.459,0.093-1.016,0.184-1.67,0.272
		c-0.655,0.091-1.277,0.141-1.867,0.141c-1.219,0-2.18-0.242-2.879-0.729c-0.702-0.484-1.053-1.271-1.053-2.358
		c0-0.521,0.103-0.99,0.306-1.402c0.202-0.412,0.483-0.76,0.845-1.042s0.793-0.494,1.298-0.643c0.505-0.144,1.058-0.215,1.661-0.215
		c0.473,0,0.878,0.019,1.219,0.049c0.34,0.033,0.623,0.062,0.846,0.091v-0.609L127.856,11.297L127.856,11.297z M127.856,13.047
		c-0.225-0.026-0.502-0.056-0.836-0.089c-0.334-0.032-0.65-0.049-0.953-0.049c-0.981,0-1.741,0.184-2.279,0.55
		c-0.537,0.367-0.807,0.893-0.807,1.572c0,0.434,0.082,0.777,0.246,1.042c0.164,0.263,0.377,0.462,0.64,0.6
		c0.262,0.138,0.551,0.229,0.864,0.275c0.312,0.046,0.629,0.066,0.941,0.066c0.406,0,0.786-0.02,1.143-0.06
		c0.354-0.039,0.701-0.091,1.041-0.157V13.047z"/>
	<path fill="#1A171B" d="M132.214,7.896c0.104-0.013,0.206-0.021,0.305-0.026c0.102-0.009,0.192-0.013,0.285-0.013
		c0.104,0,0.203,0.004,0.295,0.013c0.092,0.007,0.189,0.017,0.295,0.026c0.025,0.236,0.045,0.518,0.062,0.836
		c0.013,0.32,0.021,0.612,0.021,0.875c0.262-0.481,0.629-0.895,1.102-1.229c0.473-0.335,1.094-0.502,1.867-0.502
		c0.062,0,0.135,0,0.205,0c0.072,0,0.154,0.007,0.246,0.02c0.039,0.226,0.061,0.436,0.061,0.629c0,0.211-0.021,0.413-0.061,0.609
		c-0.104-0.012-0.188-0.02-0.246-0.02s-0.121,0-0.188,0c-0.893,0-1.604,0.279-2.145,0.846c-0.537,0.562-0.805,1.5-0.805,2.811v5.15
		c-0.08,0.012-0.188,0.021-0.324,0.029c-0.141,0.006-0.248,0.01-0.326,0.01c-0.063,0-0.17-0.004-0.312-0.01
		c-0.145-0.011-0.255-0.021-0.334-0.029L132.214,7.896L132.214,7.896z"/>
	<path fill="#1A171B" d="M139.681,8.998h-1.709c-0.014-0.066-0.021-0.151-0.029-0.256c-0.008-0.105-0.01-0.21-0.01-0.314
		c0-0.104,0.002-0.203,0.01-0.295c0.009-0.092,0.019-0.17,0.029-0.236h1.709V6.01l1.219-1.199h0.08v3.086h2.713
		c0.015,0.066,0.021,0.146,0.029,0.236c0.006,0.092,0.01,0.189,0.01,0.295c0,0.104-0.004,0.209-0.01,0.314
		c-0.008,0.104-0.018,0.188-0.029,0.256h-2.713v6.522c0,0.328,0.041,0.586,0.127,0.776c0.086,0.188,0.197,0.337,0.334,0.442
		c0.141,0.104,0.295,0.174,0.475,0.204c0.177,0.031,0.354,0.052,0.54,0.052c0.459,0,0.856-0.062,1.196-0.181
		c0.095,0.345,0.158,0.708,0.197,1.104c-0.473,0.144-1.021,0.216-1.648,0.216c-0.747,0-1.354-0.2-1.818-0.6
		c-0.464-0.4-0.695-1.055-0.695-1.956V8.998H139.681z"/>
	<path fill="#1A171B" d="M146.582,13.105c0,1.336,0.308,2.32,0.924,2.949c0.615,0.629,1.539,0.943,2.771,0.943
		c0.498,0,0.961-0.043,1.389-0.128c0.426-0.085,0.842-0.2,1.248-0.348c0.062,0.146,0.115,0.322,0.154,0.531s0.065,0.399,0.08,0.57
		c-0.381,0.17-0.826,0.301-1.338,0.393s-1.065,0.141-1.67,0.141c-0.865,0-1.609-0.131-2.229-0.387
		c-0.622-0.256-1.136-0.608-1.532-1.067c-0.398-0.459-0.693-1.009-0.885-1.646c-0.189-0.635-0.285-1.332-0.285-2.092
		c0-0.734,0.089-1.422,0.268-2.064c0.178-0.642,0.443-1.202,0.807-1.688c0.357-0.485,0.822-0.865,1.386-1.14
		c0.563-0.275,1.237-0.413,2.024-0.413c0.654,0,1.236,0.107,1.748,0.334c0.513,0.224,0.938,0.531,1.289,0.934
		c0.346,0.399,0.606,0.878,0.785,1.435c0.178,0.561,0.266,1.164,0.266,1.818c0,0.118-0.004,0.271-0.01,0.452
		c-0.008,0.185-0.019,0.341-0.029,0.472H146.582z M152.479,12.024c0-0.402-0.055-0.806-0.158-1.195
		c-0.104-0.396-0.268-0.738-0.49-1.033c-0.223-0.294-0.512-0.533-0.865-0.717c-0.354-0.187-0.779-0.275-1.277-0.275
		c-0.916,0-1.631,0.282-2.143,0.846c-0.511,0.562-0.818,1.355-0.924,2.378L152.479,12.024L152.479,12.024z"/>
	<path fill="#1A171B" d="M157.235,8.998h-1.258c-0.017-0.066-0.022-0.146-0.029-0.236c-0.008-0.091-0.012-0.188-0.012-0.295
		c0-0.104,0.004-0.209,0.012-0.314c0.007-0.104,0.016-0.188,0.029-0.256h2.556v10.025c-0.079,0.012-0.188,0.021-0.324,0.029
		c-0.14,0.006-0.246,0.01-0.325,0.01c-0.064,0-0.17-0.004-0.314-0.01c-0.144-0.011-0.254-0.021-0.334-0.029V8.998L157.235,8.998z
		 M156.587,5.439c-0.014-0.114-0.023-0.262-0.029-0.433c-0.007-0.17-0.011-0.313-0.011-0.433c0-0.104,0.004-0.235,0.011-0.396
		c0.006-0.157,0.019-0.288,0.029-0.393c0.118-0.017,0.262-0.023,0.434-0.03c0.17-0.006,0.313-0.009,0.434-0.009
		c0.104,0,0.234,0.003,0.396,0.009c0.154,0.007,0.287,0.017,0.394,0.03c0.013,0.104,0.022,0.232,0.028,0.393
		c0.006,0.157,0.01,0.289,0.01,0.396c0,0.116-0.004,0.263-0.01,0.433c-0.006,0.171-0.019,0.312-0.028,0.433
		c-0.104,0.017-0.236,0.023-0.394,0.029c-0.158,0.008-0.289,0.01-0.396,0.01c-0.117,0-0.264-0.002-0.434-0.01
		C156.849,5.463,156.705,5.453,156.587,5.439z"/>
</g>
<g>
	<path fill="#1A171B" d="M44.399,25.088c0.043-0.007,0.108-0.012,0.197-0.018c0.088-0.004,0.167-0.005,0.241-0.005
		c0.065,0,0.142,0.001,0.229,0.005c0.088,0.006,0.157,0.011,0.208,0.018l1.52,7.023l1.806-7.023
		c0.044-0.007,0.115-0.012,0.213-0.018c0.1-0.004,0.181-0.005,0.247-0.005c0.058,0,0.138,0.001,0.24,0.005
		c0.103,0.006,0.178,0.011,0.229,0.018l1.795,7.023l1.542-7.023c0.059-0.007,0.123-0.012,0.192-0.018
		c0.069-0.004,0.137-0.005,0.203-0.005c0.072,0,0.15,0.001,0.234,0.005c0.084,0.006,0.148,0.011,0.191,0.018l-1.904,7.866
		c-0.051,0.008-0.127,0.013-0.229,0.017c-0.102,0.004-0.186,0.005-0.251,0.005c-0.073,0-0.162-0.001-0.269-0.005
		c-0.105-0.004-0.184-0.009-0.235-0.017l-1.76-6.85l-1.75,6.85c-0.051,0.008-0.128,0.013-0.23,0.017s-0.185,0.005-0.252,0.005
		c-0.072,0-0.163-0.001-0.267-0.005c-0.106-0.004-0.184-0.009-0.235-0.017L44.399,25.088z"/>
	<path fill="#1A171B" d="M55.383,27.988h-0.7c-0.007-0.035-0.014-0.079-0.017-0.132c-0.004-0.051-0.005-0.104-0.005-0.163
		s0.001-0.116,0.005-0.175c0.003-0.059,0.009-0.104,0.017-0.143h1.421v5.579c-0.043,0.008-0.103,0.013-0.18,0.017
		c-0.077,0.004-0.137,0.005-0.18,0.005c-0.037,0-0.095-0.001-0.176-0.005c-0.08-0.004-0.141-0.009-0.185-0.017V27.988z
		 M55.022,26.008c-0.007-0.066-0.013-0.146-0.017-0.241S55,25.592,55,25.527c0-0.059,0.001-0.132,0.005-0.219
		c0.004-0.089,0.009-0.161,0.017-0.22c0.065-0.007,0.145-0.012,0.241-0.018c0.094-0.004,0.174-0.005,0.24-0.005
		c0.059,0,0.132,0.001,0.219,0.005c0.088,0.006,0.161,0.011,0.219,0.018c0.007,0.059,0.012,0.131,0.017,0.22
		c0.004,0.087,0.006,0.16,0.006,0.219c0,0.065-0.002,0.146-0.006,0.24c-0.004,0.095-0.009,0.175-0.017,0.241
		c-0.058,0.007-0.131,0.012-0.219,0.016c-0.087,0.004-0.16,0.007-0.219,0.007c-0.065,0-0.146-0.003-0.24-0.007
		C55.167,26.02,55.087,26.015,55.022,26.008z"/>
	<path fill="#1A171B" d="M58.031,27.375c0.057-0.008,0.115-0.014,0.17-0.018c0.053-0.004,0.106-0.005,0.158-0.005
		c0.058,0,0.112,0.001,0.164,0.005c0.052,0.004,0.106,0.01,0.165,0.018c0.014,0.131,0.025,0.295,0.033,0.492
		c0.007,0.195,0.011,0.367,0.011,0.514c0.072-0.131,0.167-0.264,0.284-0.399c0.117-0.135,0.253-0.257,0.41-0.365
		c0.158-0.109,0.338-0.198,0.542-0.269c0.204-0.069,0.426-0.104,0.667-0.104c0.641,0,1.107,0.19,1.4,0.573
		c0.291,0.384,0.437,0.92,0.437,1.613v3.522c-0.044,0.008-0.104,0.013-0.181,0.017c-0.076,0.004-0.136,0.005-0.18,0.005
		c-0.037,0-0.094-0.001-0.174-0.005c-0.081-0.004-0.143-0.009-0.186-0.017v-3.305c0-0.618-0.097-1.063-0.291-1.335
		c-0.192-0.27-0.483-0.403-0.87-0.403c-0.255,0-0.496,0.051-0.722,0.151c-0.227,0.104-0.421,0.25-0.584,0.443
		c-0.165,0.193-0.295,0.432-0.389,0.717c-0.094,0.284-0.142,0.608-0.142,0.976v2.756c-0.044,0.008-0.104,0.013-0.181,0.017
		c-0.076,0.004-0.136,0.005-0.18,0.005c-0.037,0-0.094-0.001-0.174-0.005c-0.081-0.004-0.143-0.009-0.186-0.017v-5.578H58.031z"/>
	<path fill="#1A171B" d="M64.54,27.988h-0.952c-0.007-0.035-0.014-0.082-0.017-0.143c-0.003-0.058-0.005-0.116-0.005-0.175
		s0.002-0.113,0.005-0.164c0.003-0.051,0.009-0.094,0.017-0.131h0.952v-1.051l0.679-0.667h0.043v1.718h1.511
		c0.006,0.037,0.012,0.08,0.017,0.131c0.003,0.051,0.004,0.105,0.004,0.164s-0.001,0.117-0.004,0.175
		c-0.004,0.061-0.01,0.106-0.017,0.143h-1.511v3.634c0,0.182,0.024,0.326,0.072,0.432c0.047,0.106,0.108,0.188,0.186,0.246
		c0.076,0.059,0.164,0.097,0.262,0.115c0.098,0.018,0.199,0.026,0.301,0.026c0.256,0,0.477-0.031,0.667-0.099
		c0.051,0.189,0.088,0.394,0.109,0.612c-0.263,0.08-0.569,0.121-0.919,0.121c-0.416,0-0.753-0.111-1.012-0.334
		c-0.258-0.224-0.388-0.585-0.388-1.09V27.988z"/>
	<path fill="#1A171B" d="M68.458,30.274c0,0.744,0.171,1.292,0.514,1.643c0.342,0.351,0.857,0.524,1.542,0.524
		c0.277,0,0.535-0.022,0.771-0.07c0.237-0.047,0.469-0.11,0.695-0.191c0.037,0.081,0.065,0.179,0.088,0.296
		c0.022,0.116,0.037,0.223,0.043,0.317c-0.211,0.094-0.46,0.168-0.744,0.218c-0.285,0.051-0.594,0.077-0.93,0.077
		c-0.481,0-0.895-0.071-1.242-0.213c-0.347-0.144-0.631-0.342-0.853-0.599c-0.223-0.255-0.387-0.559-0.493-0.913
		c-0.105-0.354-0.158-0.74-0.158-1.163c0-0.409,0.049-0.793,0.147-1.149c0.098-0.357,0.248-0.671,0.448-0.941
		c0.201-0.27,0.458-0.479,0.771-0.635c0.313-0.153,0.688-0.229,1.126-0.229c0.365,0,0.69,0.062,0.975,0.185
		c0.285,0.125,0.523,0.298,0.715,0.521c0.195,0.222,0.34,0.488,0.438,0.798c0.098,0.311,0.147,0.647,0.147,1.013
		c0,0.065-0.002,0.149-0.005,0.252c-0.003,0.104-0.009,0.189-0.016,0.262h-3.979V30.274z M71.739,29.672
		c0-0.227-0.029-0.448-0.088-0.668c-0.057-0.218-0.149-0.409-0.272-0.574c-0.125-0.163-0.285-0.297-0.482-0.397
		c-0.197-0.104-0.434-0.152-0.711-0.152c-0.51,0-0.908,0.156-1.192,0.47c-0.284,0.313-0.456,0.755-0.514,1.323L71.739,29.672
		L71.739,29.672z"/>
	<path fill="#1A171B" d="M74.047,27.375c0.058-0.008,0.115-0.014,0.17-0.018c0.054-0.004,0.107-0.005,0.158-0.005
		c0.059,0,0.113,0.001,0.165,0.005c0.052,0.004,0.105,0.01,0.165,0.018c0.014,0.131,0.024,0.286,0.033,0.465
		c0.006,0.179,0.01,0.341,0.01,0.487c0.145-0.271,0.35-0.499,0.612-0.686c0.263-0.186,0.61-0.279,1.04-0.279
		c0.037,0,0.075,0,0.115,0c0.041,0,0.086,0.005,0.137,0.013c0.022,0.124,0.033,0.24,0.033,0.35c0,0.117-0.01,0.229-0.033,0.339
		c-0.059-0.007-0.104-0.01-0.137-0.01c-0.033,0-0.067,0-0.104,0c-0.497,0-0.894,0.156-1.192,0.47
		c-0.299,0.314-0.448,0.835-0.448,1.564v2.866c-0.044,0.008-0.104,0.013-0.181,0.017c-0.077,0.004-0.136,0.005-0.18,0.005
		c-0.037,0-0.095-0.001-0.175-0.005s-0.142-0.009-0.186-0.017v-5.579H74.047z"/>
	<path fill="#1A171B" d="M78.128,27.988h-0.952c-0.007-0.035-0.013-0.082-0.016-0.143c-0.003-0.058-0.005-0.116-0.005-0.175
		s0.002-0.113,0.005-0.164s0.009-0.094,0.016-0.131h0.952v-1.051l0.68-0.667h0.043v1.718h1.511c0.006,0.037,0.013,0.08,0.017,0.131
		c0.002,0.051,0.004,0.105,0.004,0.164s-0.002,0.117-0.004,0.175c-0.004,0.061-0.011,0.106-0.017,0.143h-1.511v3.634
		c0,0.182,0.024,0.326,0.071,0.432c0.047,0.106,0.109,0.188,0.187,0.246c0.076,0.059,0.164,0.097,0.262,0.115
		s0.198,0.026,0.301,0.026c0.255,0,0.478-0.031,0.667-0.099c0.051,0.189,0.088,0.394,0.107,0.612
		c-0.262,0.08-0.568,0.121-0.918,0.121c-0.416,0-0.753-0.111-1.012-0.334c-0.258-0.224-0.389-0.585-0.389-1.09L78.128,27.988
		L78.128,27.988z"/>
	<path fill="#1A171B" d="M81.585,24.913c0.043-0.007,0.105-0.014,0.182-0.018s0.137-0.005,0.18-0.005
		c0.037,0,0.097,0.001,0.177,0.005s0.142,0.011,0.187,0.018v3.458c0.071-0.134,0.168-0.267,0.285-0.4
		c0.115-0.134,0.252-0.257,0.402-0.366c0.152-0.109,0.327-0.196,0.52-0.263c0.195-0.065,0.408-0.098,0.643-0.098
		c0.641,0,1.113,0.19,1.416,0.573c0.303,0.384,0.455,0.92,0.455,1.613v3.522c-0.047,0.008-0.104,0.013-0.182,0.017
		c-0.078,0.004-0.137,0.005-0.182,0.005c-0.035,0-0.096-0.001-0.175-0.005s-0.144-0.009-0.187-0.017v-3.305
		c0-0.618-0.103-1.063-0.308-1.335c-0.202-0.27-0.499-0.403-0.884-0.403c-0.258,0-0.496,0.047-0.717,0.143
		c-0.225,0.094-0.416,0.234-0.576,0.421c-0.159,0.187-0.286,0.419-0.377,0.699c-0.092,0.282-0.137,0.604-0.137,0.969v2.812
		c-0.045,0.008-0.104,0.013-0.181,0.017c-0.078,0.004-0.138,0.005-0.183,0.005c-0.034,0-0.094-0.001-0.174-0.005
		s-0.145-0.009-0.188-0.017v-8.041H81.585z"/>
	<path fill="#1A171B" d="M87.799,27.375c0.046-0.008,0.106-0.014,0.187-0.018s0.14-0.005,0.177-0.005
		c0.043,0,0.103,0.001,0.18,0.005c0.076,0.004,0.138,0.01,0.181,0.018v3.14c0,0.395,0.039,0.717,0.121,0.968
		c0.08,0.252,0.198,0.449,0.354,0.593c0.157,0.143,0.349,0.239,0.575,0.295c0.226,0.055,0.48,0.082,0.766,0.082
		c0.242,0,0.457-0.014,0.646-0.038c0.189-0.025,0.357-0.062,0.502-0.104v-4.934c0.046-0.008,0.107-0.014,0.188-0.018
		c0.081-0.004,0.141-0.005,0.176-0.005c0.043,0,0.104,0.001,0.182,0.005c0.074,0.004,0.137,0.01,0.18,0.018v5.438
		c-0.27,0.072-0.57,0.138-0.902,0.191c-0.332,0.055-0.674,0.082-1.022,0.082c-0.343,0-0.666-0.033-0.97-0.099
		c-0.303-0.066-0.563-0.191-0.785-0.379c-0.223-0.186-0.401-0.442-0.532-0.771c-0.131-0.329-0.196-0.756-0.196-1.28v-3.184H87.799z"
		/>
	<path fill="#1A171B" d="M94.135,27.375c0.058-0.008,0.114-0.014,0.169-0.018s0.107-0.005,0.158-0.005
		c0.059,0,0.113,0.001,0.164,0.005s0.105,0.01,0.164,0.018c0.014,0.131,0.025,0.286,0.031,0.465c0.01,0.179,0.014,0.341,0.014,0.487
		c0.146-0.271,0.35-0.499,0.611-0.686c0.263-0.186,0.607-0.279,1.041-0.279c0.033,0,0.072,0,0.113,0
		c0.039,0,0.086,0.005,0.135,0.013c0.022,0.124,0.035,0.24,0.035,0.35c0,0.117-0.013,0.229-0.035,0.339
		c-0.057-0.007-0.102-0.01-0.135-0.01c-0.031,0-0.066,0-0.104,0c-0.495,0-0.895,0.156-1.193,0.47
		c-0.299,0.314-0.447,0.835-0.447,1.564v2.866c-0.043,0.008-0.104,0.013-0.182,0.017c-0.074,0.004-0.137,0.005-0.18,0.005
		c-0.037,0-0.094-0.001-0.176-0.005c-0.08-0.004-0.143-0.009-0.186-0.017L94.135,27.375L94.135,27.375z"/>
</g>
</svg>
