<?xml version="1.0" encoding="utf-8"?>
<!-- Generator: Adobe Illustrator 13.0.2, SVG Export Plug-In . SVG Version: 6.00 Build 14948)  -->
<!DOCTYPE svg PUBLIC "-//W3C//DTD SVG 1.1//EN" "http://www.w3.org/Graphics/SVG/1.1/DTD/svg11.dtd">
<svg version="1.1" id="Logo" xmlns="http://www.w3.org/2000/svg" xmlns:xlink="http://www.w3.org/1999/xlink" x="0px" y="0px"
	 width="158.533px" height="36.85px" viewBox="0 0 158.533 36.85" enable-background="new 0 0 158.533 36.85" xml:space="preserve" stroke-width="0">
<g>
	<circle fill="#FFFFFF" cx="18.429" cy="18.425" r="15.89"/>
	<path fill="#1A171B" d="M18.428,1.35c-9.43,0-17.077,7.643-17.077,17.075c0,9.429,7.647,17.075,17.077,17.075
		c9.432,0,17.079-7.646,17.079-17.075C35.507,8.991,27.859,1.35,18.428,1.35z M18.428,33.745c-8.46,0-15.321-6.859-15.321-15.32
		s6.861-15.32,15.321-15.32c8.465,0,15.323,6.859,15.323,15.32S26.893,33.745,18.428,33.745z"/>
	<path fill="#1A171B" d="M25.729,9.926c-3.696-2.071-8.325-2.089-11.997-1.148v-1.59h-1.595v2.078
		c-0.684,0.247-1.317,0.527-1.881,0.832c0,0,0.793-0.098,1.881-0.031v13.896c-0.792,1.221-0.982,2.408-0.796,3.777
		c0.211,1.53,1.367,2.554,2.277,3.311c-0.536-1.545-0.576-2.95-0.419-3.801c0.301-1.588,1.232-2.729,5.252-3.601
		c4.171-0.897,9.112-1.314,10.745-5.363C29.941,16.436,30.403,12.55,25.729,9.926z M15.981,20.378
		c-0.894,0.627-1.637,1.212-2.249,1.771V10.275c1.242,0.264,2.557,0.802,3.463,1.867C19.425,14.775,18.669,18.492,15.981,20.378z"/>
	<g>
		<path fill="#1A171B" d="M0,18.425C0,8.245,8.252,0,18.428,0l0,0c10.177,0,18.429,8.245,18.43,18.425l0,0
			c-0.001,10.174-8.253,18.425-18.43,18.425l0,0C8.252,36.85,0,28.599,0,18.425L0,18.425z M5.635,5.631
			c-3.274,3.274-5.3,7.796-5.3,12.794l0,0c0,4.995,2.025,9.517,5.3,12.791l0,0c3.275,3.274,7.797,5.3,12.793,5.3l0,0
			c4.996,0,9.52-2.024,12.794-5.3l0,0c3.275-3.274,5.301-7.796,5.301-12.791l0,0c0-4.998-2.025-9.52-5.301-12.794l0,0
			c-3.274-3.273-7.798-5.297-12.794-5.297l0,0C13.432,0.334,8.91,2.357,5.635,5.631L5.635,5.631z"/>
	</g>
</g>
<g>
	<path fill="#F8B323" d="M44.818,7.74c0.184-0.04,0.363-0.065,0.541-0.078c0.176-0.014,0.376-0.021,0.6-0.021
		c0.366,0,0.739,0.04,1.12,0.118c0.04,0.065,0.075,0.161,0.108,0.285c0.032,0.125,0.064,0.259,0.098,0.402
		c0.032,0.146,0.06,0.285,0.079,0.423c0.02,0.139,0.035,0.254,0.049,0.345c0.118-0.21,0.262-0.416,0.433-0.619
		c0.17-0.203,0.376-0.384,0.619-0.54c0.242-0.158,0.514-0.285,0.815-0.385c0.302-0.099,0.636-0.146,1.003-0.146
		c0.562,0,1.091,0.104,1.582,0.314c0.491,0.209,0.92,0.527,1.287,0.953c0.367,0.426,0.652,0.96,0.855,1.602
		c0.203,0.644,0.305,1.402,0.305,2.281c0,0.852-0.125,1.615-0.373,2.289c-0.25,0.676-0.61,1.248-1.082,1.721
		c-0.472,0.471-1.049,0.834-1.729,1.09c-0.682,0.256-1.454,0.385-2.319,0.385c-0.224,0-0.442-0.01-0.658-0.029
		c-0.217-0.021-0.397-0.043-0.54-0.069v4.521c-0.25,0.039-0.489,0.063-0.718,0.078c-0.229,0.014-0.456,0.02-0.679,0.02
		c-0.224,0-0.449-0.006-0.679-0.02c-0.229-0.015-0.469-0.039-0.717-0.078V7.74z M47.61,15.76c0.353,0.104,0.759,0.156,1.218,0.156
		c0.812,0,1.436-0.263,1.867-0.785c0.433-0.525,0.648-1.318,0.648-2.379c0-0.406-0.032-0.783-0.098-1.131
		c-0.066-0.347-0.178-0.646-0.334-0.896c-0.158-0.248-0.357-0.443-0.6-0.59c-0.243-0.143-0.541-0.215-0.895-0.215
		c-0.328,0-0.606,0.062-0.836,0.186c-0.229,0.125-0.416,0.295-0.56,0.513c-0.145,0.217-0.249,0.469-0.315,0.757
		c-0.065,0.288-0.097,0.597-0.097,0.924v3.46H47.61z"/>
	<path fill="#F8B323" d="M57.044,9.882h-1.316c-0.04-0.171-0.069-0.351-0.089-0.54S55.61,8.971,55.61,8.801
		c0-0.354,0.039-0.701,0.118-1.042h4.049v10.163C59.305,18,58.846,18.039,58.4,18.039c-0.433,0-0.885-0.039-1.356-0.117V9.882z
		 M56.632,6.049c-0.079-0.445-0.118-0.885-0.118-1.316c0-0.42,0.039-0.857,0.118-1.316c0.222-0.04,0.462-0.069,0.718-0.089
		c0.255-0.021,0.487-0.029,0.697-0.029c0.223,0,0.465,0.01,0.727,0.029c0.263,0.02,0.505,0.049,0.728,0.089
		c0.04,0.224,0.065,0.441,0.079,0.659C59.593,4.29,59.6,4.51,59.6,4.732c0,0.209-0.007,0.427-0.02,0.648
		c-0.014,0.223-0.039,0.445-0.079,0.668c-0.223,0.039-0.462,0.066-0.717,0.078c-0.256,0.014-0.495,0.021-0.718,0.021
		c-0.21,0-0.445-0.007-0.707-0.021C57.097,6.115,56.854,6.088,56.632,6.049z"/>
	<path fill="#F8B323" d="M62.528,7.759c0.196-0.038,0.383-0.068,0.56-0.089c0.177-0.021,0.371-0.029,0.58-0.029
		c0.196,0,0.391,0.015,0.58,0.04c0.189,0.026,0.377,0.06,0.561,0.1c0.039,0.064,0.075,0.159,0.107,0.283
		c0.033,0.125,0.062,0.256,0.089,0.395c0.027,0.138,0.049,0.274,0.069,0.412c0.02,0.139,0.035,0.254,0.049,0.345
		c0.288-0.406,0.642-0.771,1.061-1.091c0.42-0.32,0.944-0.482,1.572-0.482c0.131,0,0.282,0.008,0.453,0.021
		c0.17,0.013,0.295,0.031,0.373,0.06c0.026,0.131,0.046,0.281,0.059,0.451c0.014,0.17,0.021,0.348,0.021,0.531
		c0,0.223-0.01,0.465-0.03,0.727c-0.02,0.263-0.056,0.512-0.107,0.747c-0.145-0.026-0.305-0.04-0.481-0.04c-0.178,0-0.286,0-0.324,0
		c-0.224,0-0.473,0.023-0.747,0.069c-0.275,0.046-0.537,0.167-0.787,0.364c-0.248,0.195-0.455,0.489-0.619,0.885
		c-0.164,0.393-0.245,0.942-0.245,1.649v4.836c-0.236,0.039-0.472,0.064-0.708,0.078c-0.235,0.015-0.465,0.021-0.688,0.021
		c-0.223,0-0.449-0.006-0.679-0.021c-0.229-0.014-0.468-0.039-0.717-0.078V7.759H62.528z"/>
	<path fill="#F8B323" d="M75.305,11.238c0-0.313-0.053-0.569-0.157-0.767s-0.249-0.351-0.433-0.462
		c-0.184-0.111-0.41-0.188-0.678-0.227c-0.27-0.039-0.567-0.06-0.895-0.06c-0.708,0-1.462,0.138-2.261,0.412
		c-0.184-0.34-0.321-0.66-0.413-0.963c-0.092-0.301-0.137-0.661-0.137-1.08c0.576-0.197,1.152-0.342,1.729-0.433
		c0.576-0.093,1.113-0.139,1.611-0.139c1.363,0,2.428,0.328,3.194,0.982c0.767,0.655,1.15,1.703,1.15,3.146v5.896
		c-0.459,0.145-1.016,0.282-1.671,0.413c-0.655,0.131-1.396,0.195-2.222,0.195c-0.668,0-1.281-0.06-1.838-0.177
		c-0.557-0.117-1.035-0.313-1.435-0.59s-0.708-0.629-0.924-1.062c-0.216-0.434-0.324-0.964-0.324-1.593
		c0-0.63,0.134-1.156,0.403-1.583c0.268-0.426,0.615-0.766,1.041-1.021c0.426-0.255,0.9-0.439,1.426-0.551
		c0.523-0.111,1.048-0.167,1.572-0.167c0.38,0,0.799,0.021,1.258,0.06v-0.233H75.305z M75.305,13.263
		c-0.157-0.026-0.328-0.049-0.512-0.068c-0.184-0.021-0.347-0.029-0.49-0.029c-0.643,0-1.15,0.115-1.524,0.345
		c-0.373,0.229-0.56,0.599-0.56,1.11c0,0.341,0.071,0.604,0.216,0.786c0.145,0.185,0.317,0.316,0.521,0.402
		c0.203,0.085,0.42,0.137,0.649,0.157c0.229,0.019,0.429,0.029,0.6,0.029c0.196,0,0.393-0.018,0.589-0.051
		c0.197-0.031,0.367-0.062,0.512-0.088L75.305,13.263L75.305,13.263z"/>
	<path fill="#F8B323" d="M80.769,9.882h-1.276l-0.099-0.395l3.676-4.696h0.451v2.968h2.379c0.039,0.196,0.065,0.374,0.078,0.53
		c0.014,0.158,0.021,0.321,0.021,0.492c0,0.184-0.007,0.36-0.021,0.53c-0.013,0.17-0.039,0.36-0.078,0.569h-2.379v3.99
		c0,0.405,0.033,0.732,0.1,0.982c0.064,0.248,0.16,0.445,0.285,0.59c0.123,0.146,0.277,0.242,0.462,0.294
		c0.183,0.054,0.399,0.079,0.647,0.079c0.196,0,0.391-0.017,0.58-0.049c0.189-0.033,0.356-0.062,0.502-0.089
		c0.092,0.249,0.156,0.508,0.196,0.776c0.039,0.269,0.06,0.508,0.06,0.717c0,0.145-0.004,0.266-0.011,0.364
		c-0.007,0.098-0.017,0.192-0.028,0.284c-0.604,0.145-1.228,0.217-1.869,0.217c-1.191,0-2.103-0.278-2.73-0.835
		c-0.629-0.559-0.943-1.466-0.943-2.724V9.882H80.769z"/>
	<path fill="#F8B323" d="M90.242,13.695c0.053,0.786,0.327,1.356,0.825,1.711c0.498,0.354,1.154,0.529,1.967,0.529
		c0.445,0,0.9-0.042,1.365-0.127c0.466-0.086,0.908-0.207,1.326-0.363c0.146,0.263,0.27,0.576,0.375,0.943
		c0.104,0.367,0.164,0.76,0.176,1.18c-1.021,0.394-2.176,0.59-3.459,0.59c-0.942,0-1.752-0.132-2.428-0.395
		c-0.676-0.262-1.226-0.625-1.65-1.091c-0.426-0.465-0.74-1.02-0.943-1.66s-0.305-1.343-0.305-2.104
		c0-0.747,0.104-1.448,0.314-2.104c0.209-0.656,0.521-1.226,0.934-1.71c0.412-0.484,0.924-0.868,1.533-1.15
		c0.608-0.28,1.318-0.422,2.133-0.422c0.707,0,1.337,0.125,1.887,0.373c0.551,0.249,1.02,0.59,1.404,1.021
		c0.388,0.434,0.68,0.946,0.875,1.543c0.197,0.598,0.296,1.235,0.296,1.918c0,0.248-0.011,0.494-0.029,0.735
		c-0.021,0.243-0.043,0.437-0.069,0.58h-6.526V13.695z M94.233,11.75c-0.026-0.63-0.2-1.138-0.521-1.523
		c-0.322-0.387-0.771-0.58-1.348-0.58c-0.654,0-1.152,0.185-1.493,0.552c-0.341,0.365-0.544,0.883-0.608,1.553L94.233,11.75
		L94.233,11.75z"/>
	<path fill="#F8B323" d="M99.067,7.759c0.185-0.038,0.367-0.068,0.552-0.089s0.387-0.029,0.608-0.029c0.223,0,0.42,0.01,0.59,0.029
		c0.17,0.021,0.348,0.051,0.531,0.089c0.039,0.065,0.074,0.161,0.107,0.285c0.031,0.125,0.062,0.256,0.088,0.394
		c0.025,0.139,0.05,0.271,0.068,0.402c0.02,0.131,0.037,0.243,0.05,0.334c0.131-0.195,0.288-0.393,0.472-0.589
		s0.396-0.374,0.639-0.53c0.242-0.158,0.516-0.285,0.816-0.385c0.301-0.098,0.635-0.146,1.002-0.146
		c1.153,0,2.021,0.314,2.604,0.943c0.584,0.629,0.875,1.619,0.875,2.969v6.486c-0.471,0.078-0.938,0.117-1.396,0.117
		c-0.459,0-0.924-0.039-1.396-0.117v-5.74c0-0.707-0.108-1.252-0.324-1.631c-0.217-0.381-0.594-0.57-1.131-0.57
		c-0.223,0-0.452,0.033-0.688,0.099c-0.235,0.065-0.448,0.192-0.639,0.383s-0.345,0.457-0.462,0.797
		c-0.118,0.342-0.178,0.786-0.178,1.336v5.328c-0.472,0.078-0.938,0.117-1.396,0.117c-0.458,0-0.924-0.039-1.396-0.117V7.759H99.067
		z"/>
	<path fill="#1A171B" d="M110.96,7.896c0.079-0.013,0.178-0.021,0.295-0.028c0.118-0.007,0.217-0.011,0.296-0.011
		c0.078,0,0.177,0.004,0.294,0.011c0.118,0.007,0.217,0.017,0.295,0.028l0.118,1.377c0.275-0.42,0.671-0.793,1.188-1.121
		c0.519-0.327,1.189-0.49,2.016-0.49c0.615,0,1.18,0.095,1.689,0.283c0.512,0.191,0.947,0.488,1.308,0.896
		c0.36,0.406,0.644,0.918,0.847,1.533c0.202,0.616,0.305,1.356,0.305,2.221c0,0.865-0.118,1.643-0.354,2.33
		c-0.235,0.688-0.58,1.271-1.032,1.749c-0.451,0.479-1.01,0.845-1.67,1.101c-0.662,0.257-1.42,0.385-2.271,0.385
		c-0.314,0-0.655-0.026-1.022-0.079c-0.366-0.053-0.7-0.131-1.002-0.235v4.718c-0.079,0.014-0.19,0.022-0.334,0.029
		c-0.146,0.006-0.25,0.01-0.313,0.01c-0.079,0-0.188-0.004-0.324-0.01c-0.139-0.007-0.246-0.017-0.325-0.029L110.96,7.896
		L110.96,7.896z M112.258,16.644c0.302,0.118,0.612,0.206,0.935,0.267c0.32,0.059,0.75,0.089,1.287,0.089
		c0.512,0,0.996-0.082,1.455-0.246c0.457-0.164,0.857-0.423,1.198-0.776s0.609-0.803,0.806-1.347
		c0.196-0.543,0.295-1.195,0.295-1.955c0-1.206-0.227-2.15-0.678-2.832c-0.451-0.681-1.184-1.021-2.191-1.021
		c-0.314,0-0.655,0.053-1.021,0.157c-0.367,0.104-0.705,0.284-1.013,0.54c-0.308,0.255-0.563,0.589-0.767,1.002
		c-0.205,0.413-0.306,0.936-0.306,1.563V16.644z"/>
	<path fill="#1A171B" d="M127.856,11.297c0-0.864-0.203-1.497-0.608-1.896c-0.406-0.398-1.011-0.6-1.81-0.6
		c-0.522,0-1.002,0.037-1.435,0.107c-0.433,0.071-0.819,0.161-1.16,0.266c-0.065-0.117-0.12-0.287-0.167-0.511
		c-0.046-0.223-0.068-0.434-0.068-0.628c0.342-0.105,0.761-0.193,1.259-0.267s1.009-0.107,1.532-0.107
		c1.271,0,2.215,0.277,2.832,0.835c0.615,0.557,0.922,1.432,0.922,2.624v6.624c-0.459,0.093-1.016,0.184-1.67,0.274
		c-0.655,0.091-1.277,0.139-1.867,0.139c-1.219,0-2.18-0.242-2.879-0.729c-0.702-0.484-1.053-1.271-1.053-2.358
		c0-0.523,0.103-0.992,0.306-1.404c0.202-0.412,0.483-0.76,0.845-1.042s0.793-0.494,1.298-0.641
		c0.505-0.144,1.058-0.215,1.661-0.215c0.473,0,0.878,0.017,1.219,0.049c0.34,0.033,0.622,0.062,0.846,0.089v-0.609H127.856z
		 M127.856,13.047c-0.223-0.026-0.502-0.056-0.836-0.089c-0.334-0.032-0.65-0.049-0.953-0.049c-0.981,0-1.741,0.184-2.279,0.55
		c-0.537,0.367-0.807,0.893-0.807,1.572c0,0.434,0.082,0.779,0.246,1.042s0.377,0.462,0.64,0.6c0.262,0.138,0.551,0.229,0.864,0.275
		c0.314,0.046,0.629,0.068,0.943,0.068c0.406,0,0.786-0.02,1.141-0.06c0.354-0.039,0.701-0.091,1.041-0.157V13.047z"/>
	<path fill="#1A171B" d="M132.214,7.896c0.104-0.013,0.206-0.021,0.305-0.028c0.1-0.007,0.192-0.011,0.285-0.011
		c0.104,0,0.203,0.004,0.295,0.011s0.189,0.017,0.295,0.028c0.025,0.236,0.045,0.516,0.06,0.836c0.013,0.32,0.021,0.612,0.021,0.875
		c0.262-0.483,0.629-0.895,1.101-1.229c0.473-0.335,1.094-0.502,1.868-0.502c0.063,0,0.134,0,0.205,0
		c0.072,0,0.154,0.007,0.246,0.02c0.039,0.224,0.06,0.434,0.06,0.629c0,0.211-0.021,0.413-0.06,0.609
		c-0.104-0.012-0.188-0.02-0.246-0.02c-0.058,0-0.121,0-0.187,0c-0.892,0-1.604,0.281-2.144,0.846
		c-0.537,0.562-0.805,1.5-0.805,2.811v5.15c-0.08,0.012-0.188,0.021-0.324,0.029c-0.14,0.006-0.248,0.01-0.326,0.01
		c-0.064,0-0.17-0.004-0.313-0.01c-0.144-0.009-0.255-0.019-0.334-0.029L132.214,7.896L132.214,7.896z"/>
	<path fill="#1A171B" d="M139.681,8.998h-1.709c-0.014-0.066-0.022-0.151-0.029-0.256c-0.008-0.105-0.01-0.21-0.01-0.314
		s0.002-0.203,0.01-0.295c0.007-0.092,0.017-0.17,0.029-0.236h1.709V6.01l1.219-1.199h0.08v3.086h2.713
		c0.013,0.066,0.021,0.146,0.029,0.236c0.006,0.092,0.01,0.189,0.01,0.295c0,0.104-0.004,0.209-0.01,0.314
		c-0.008,0.104-0.018,0.188-0.029,0.256h-2.713v6.524c0,0.328,0.041,0.586,0.127,0.776s0.196,0.337,0.334,0.442
		c0.139,0.104,0.295,0.174,0.473,0.206c0.177,0.031,0.355,0.05,0.54,0.05c0.459,0,0.858-0.061,1.198-0.179
		c0.093,0.343,0.158,0.708,0.197,1.103c-0.473,0.144-1.021,0.216-1.65,0.216c-0.747,0-1.354-0.2-1.818-0.6
		c-0.464-0.4-0.697-1.053-0.697-1.956V8.998H139.681z"/>
	<path fill="#1A171B" d="M146.582,13.105c0,1.336,0.308,2.32,0.924,2.949c0.615,0.629,1.539,0.943,2.771,0.943
		c0.498,0,0.961-0.043,1.387-0.128s0.842-0.2,1.248-0.346c0.064,0.146,0.117,0.322,0.156,0.531s0.065,0.399,0.08,0.57
		c-0.381,0.17-0.826,0.301-1.338,0.393s-1.067,0.139-1.67,0.139c-0.865,0-1.609-0.129-2.231-0.385s-1.134-0.61-1.532-1.069
		c-0.4-0.459-0.695-1.007-0.885-1.644c-0.19-0.635-0.285-1.332-0.285-2.092c0-0.734,0.089-1.422,0.266-2.064
		c0.178-0.642,0.445-1.204,0.807-1.689c0.358-0.485,0.822-0.865,1.386-1.14c0.563-0.275,1.237-0.413,2.024-0.413
		c0.654,0,1.237,0.109,1.748,0.334c0.513,0.224,0.94,0.533,1.289,0.934c0.346,0.399,0.608,0.878,0.785,1.435
		c0.178,0.559,0.266,1.164,0.266,1.818c0,0.118-0.004,0.271-0.01,0.452c-0.007,0.185-0.017,0.341-0.029,0.472H146.582z
		 M152.479,12.024c0-0.404-0.053-0.806-0.157-1.197c-0.104-0.395-0.269-0.738-0.491-1.033c-0.223-0.294-0.512-0.533-0.865-0.717
		c-0.354-0.185-0.779-0.275-1.277-0.275c-0.916,0-1.631,0.282-2.143,0.846c-0.511,0.562-0.818,1.355-0.924,2.378L152.479,12.024
		L152.479,12.024z"/>
	<path fill="#1A171B" d="M157.235,8.998h-1.258c-0.015-0.066-0.022-0.146-0.029-0.236c-0.008-0.091-0.012-0.188-0.012-0.295
		c0-0.104,0.004-0.209,0.012-0.314c0.007-0.104,0.016-0.188,0.029-0.256h2.556v10.025c-0.079,0.012-0.188,0.021-0.324,0.029
		c-0.14,0.006-0.246,0.01-0.325,0.01c-0.064,0-0.17-0.004-0.314-0.01c-0.144-0.009-0.254-0.019-0.334-0.029V8.998L157.235,8.998z
		 M156.587,5.439c-0.014-0.116-0.023-0.262-0.029-0.433c-0.007-0.17-0.011-0.313-0.011-0.433c0-0.104,0.004-0.235,0.011-0.394
		c0.006-0.157,0.017-0.288,0.029-0.393c0.118-0.015,0.262-0.023,0.434-0.03c0.17-0.006,0.313-0.009,0.432-0.009
		c0.105,0,0.236,0.003,0.395,0.009c0.156,0.007,0.287,0.017,0.394,0.03c0.013,0.104,0.022,0.234,0.028,0.393
		c0.006,0.157,0.01,0.289,0.01,0.394c0,0.118-0.004,0.263-0.01,0.433c-0.006,0.171-0.017,0.314-0.028,0.433
		c-0.105,0.015-0.236,0.023-0.394,0.029c-0.158,0.008-0.289,0.01-0.395,0.01c-0.117,0-0.262-0.002-0.432-0.01
		C156.849,5.463,156.705,5.453,156.587,5.439z"/>
</g>
<g>
	<path fill="#1A171B" d="M45.009,25.156c0.051-0.007,0.113-0.012,0.186-0.016s0.139-0.006,0.197-0.006
		c0.066,0,0.131,0.002,0.197,0.006s0.125,0.009,0.176,0.016v7.883c-0.051,0.008-0.109,0.013-0.176,0.017
		c-0.066,0.003-0.131,0.005-0.197,0.005c-0.072,0-0.145-0.002-0.213-0.005c-0.07-0.004-0.127-0.009-0.17-0.017V25.156z
		 M46.28,29.005l2.773-3.849c0.059-0.007,0.119-0.012,0.182-0.016c0.061-0.004,0.121-0.006,0.18-0.006
		c0.08,0,0.158,0.002,0.23,0.006s0.15,0.009,0.23,0.016l-2.697,3.771l3.113,4.111c-0.08,0.008-0.162,0.013-0.246,0.017
		c-0.084,0.003-0.166,0.005-0.246,0.005c-0.066,0-0.135-0.002-0.203-0.005c-0.07-0.004-0.137-0.009-0.203-0.017L46.28,29.005z"/>
	<path fill="#1A171B" d="M54.446,29.345c0-0.482-0.113-0.835-0.34-1.058s-0.562-0.335-1.008-0.335c-0.293,0-0.559,0.021-0.801,0.061
		c-0.24,0.04-0.457,0.089-0.646,0.147c-0.037-0.065-0.068-0.16-0.094-0.285c-0.025-0.123-0.037-0.24-0.037-0.35
		c0.189-0.059,0.424-0.108,0.701-0.148c0.277-0.041,0.562-0.061,0.855-0.061c0.709,0,1.234,0.155,1.578,0.466
		c0.344,0.312,0.516,0.799,0.516,1.464v3.694c-0.256,0.052-0.566,0.103-0.932,0.153s-0.713,0.076-1.041,0.076
		c-0.68,0-1.217-0.135-1.607-0.404c-0.391-0.271-0.586-0.709-0.586-1.316c0-0.292,0.057-0.553,0.17-0.783s0.27-0.424,0.471-0.582
		c0.201-0.156,0.443-0.275,0.725-0.355s0.59-0.121,0.926-0.121c0.264,0,0.49,0.01,0.68,0.027c0.189,0.019,0.348,0.035,0.471,0.05
		V29.345z M54.446,30.321c-0.123-0.015-0.279-0.031-0.465-0.049c-0.188-0.019-0.363-0.027-0.531-0.027
		c-0.549,0-0.973,0.102-1.271,0.307c-0.301,0.205-0.451,0.496-0.451,0.877c0,0.24,0.047,0.435,0.139,0.58
		c0.09,0.146,0.209,0.258,0.355,0.335s0.307,0.128,0.482,0.153s0.352,0.039,0.525,0.039c0.227,0,0.439-0.012,0.637-0.033
		s0.391-0.051,0.58-0.088V30.321z"/>
	<path fill="#1A171B" d="M56.991,27.448c0.059-0.006,0.115-0.012,0.17-0.016s0.107-0.006,0.158-0.006
		c0.059,0,0.113,0.002,0.164,0.006s0.105,0.01,0.164,0.016c0.016,0.133,0.027,0.297,0.033,0.494
		c0.008,0.197,0.012,0.369,0.012,0.516c0.072-0.132,0.168-0.266,0.285-0.4s0.254-0.258,0.41-0.367
		c0.158-0.109,0.338-0.199,0.543-0.27c0.205-0.068,0.428-0.104,0.67-0.104c0.643,0,1.109,0.191,1.402,0.576
		c0.293,0.383,0.439,0.922,0.439,1.616v3.53c-0.045,0.008-0.105,0.013-0.182,0.017c-0.076,0.003-0.137,0.005-0.182,0.005
		c-0.035,0-0.094-0.002-0.174-0.005c-0.082-0.004-0.143-0.009-0.188-0.017v-3.311c0-0.621-0.096-1.067-0.291-1.338
		c-0.193-0.27-0.484-0.405-0.871-0.405c-0.256,0-0.496,0.051-0.723,0.153s-0.422,0.25-0.588,0.443
		c-0.164,0.194-0.293,0.434-0.389,0.719s-0.143,0.61-0.143,0.976v2.763c-0.043,0.008-0.104,0.013-0.18,0.017
		c-0.078,0.003-0.139,0.005-0.182,0.005c-0.037,0-0.096-0.002-0.176-0.005c-0.08-0.004-0.143-0.009-0.186-0.017V27.448z"/>
	<path fill="#1A171B" d="M63.513,28.063H62.56c-0.008-0.037-0.014-0.084-0.016-0.143c-0.004-0.059-0.006-0.117-0.006-0.176
		s0.002-0.113,0.006-0.164c0.002-0.052,0.008-0.096,0.016-0.133h0.953v-1.052l0.68-0.669h0.045v1.721h1.512
		c0.008,0.037,0.014,0.081,0.018,0.133c0.004,0.051,0.006,0.105,0.006,0.164s-0.002,0.117-0.006,0.176s-0.01,0.105-0.018,0.143
		h-1.512v3.639c0,0.184,0.023,0.328,0.07,0.434c0.049,0.105,0.109,0.188,0.188,0.246c0.076,0.059,0.164,0.098,0.262,0.115
		c0.1,0.019,0.199,0.027,0.303,0.027c0.256,0,0.479-0.033,0.668-0.098c0.051,0.189,0.088,0.395,0.109,0.613
		c-0.262,0.08-0.57,0.121-0.92,0.121c-0.418,0-0.756-0.111-1.014-0.335c-0.26-0.223-0.391-0.587-0.391-1.091V28.063z"/>
	<path fill="#1A171B" d="M69.159,33.17c-0.416,0-0.781-0.074-1.096-0.225c-0.314-0.148-0.576-0.355-0.783-0.619
		c-0.209-0.263-0.365-0.573-0.467-0.932c-0.102-0.357-0.154-0.742-0.154-1.15c0-0.41,0.053-0.793,0.154-1.152
		c0.102-0.357,0.258-0.668,0.467-0.932c0.207-0.263,0.469-0.469,0.783-0.619c0.314-0.149,0.68-0.225,1.096-0.225
		s0.781,0.075,1.092,0.225c0.311,0.15,0.57,0.356,0.777,0.619c0.209,0.264,0.365,0.574,0.473,0.932
		c0.105,0.359,0.158,0.742,0.158,1.152c0,0.408-0.053,0.793-0.158,1.15c-0.107,0.358-0.264,0.669-0.473,0.932
		c-0.207,0.264-0.467,0.471-0.777,0.619C69.94,33.096,69.575,33.17,69.159,33.17z M69.159,32.535c0.586,0,1.021-0.205,1.311-0.614
		s0.434-0.968,0.434-1.677s-0.145-1.269-0.434-1.678c-0.289-0.41-0.725-0.614-1.311-0.614c-0.584,0-1.021,0.204-1.311,0.614
		c-0.287,0.409-0.432,0.969-0.432,1.678s0.145,1.268,0.432,1.677C68.138,32.33,68.575,32.535,69.159,32.535z"/>
	<path fill="#1A171B" d="M73.271,27.448c0.059-0.006,0.115-0.012,0.17-0.016s0.107-0.006,0.158-0.006
		c0.059,0,0.113,0.002,0.164,0.006s0.105,0.01,0.164,0.016c0.016,0.133,0.027,0.297,0.033,0.494
		c0.008,0.197,0.012,0.369,0.012,0.516c0.072-0.132,0.168-0.266,0.285-0.4s0.254-0.258,0.41-0.367
		c0.158-0.109,0.338-0.199,0.543-0.27c0.205-0.068,0.428-0.104,0.67-0.104c0.643,0,1.109,0.191,1.402,0.576
		c0.293,0.383,0.439,0.922,0.439,1.616v3.53c-0.045,0.008-0.105,0.013-0.182,0.017c-0.076,0.003-0.137,0.005-0.182,0.005
		c-0.035,0-0.094-0.002-0.174-0.005c-0.082-0.004-0.143-0.009-0.188-0.017v-3.311c0-0.621-0.096-1.067-0.291-1.338
		c-0.193-0.27-0.484-0.405-0.871-0.405c-0.256,0-0.496,0.051-0.723,0.153s-0.422,0.25-0.588,0.443
		c-0.164,0.194-0.293,0.434-0.389,0.719s-0.143,0.61-0.143,0.976v2.763c-0.043,0.008-0.104,0.013-0.18,0.017
		c-0.078,0.003-0.139,0.005-0.182,0.005c-0.037,0-0.096-0.002-0.176-0.005c-0.08-0.004-0.143-0.009-0.186-0.017V27.448z"/>
	<path fill="#1A171B" d="M84.167,25.156c0.051-0.007,0.121-0.012,0.209-0.016s0.168-0.006,0.24-0.006
		c0.08,0,0.164,0.002,0.248,0.006s0.15,0.009,0.201,0.016l2.633,7.883c-0.045,0.008-0.107,0.013-0.188,0.017
		c-0.08,0.003-0.156,0.005-0.23,0.005c-0.064,0-0.135-0.002-0.207-0.005c-0.074-0.004-0.137-0.009-0.188-0.017l-0.658-2.006h-3.244
		l-0.625,2.006c-0.059,0.008-0.127,0.013-0.203,0.017c-0.076,0.003-0.148,0.005-0.213,0.005c-0.074,0-0.148-0.002-0.225-0.005
		c-0.078-0.004-0.139-0.009-0.182-0.017L84.167,25.156z M86.009,30.331l-1.414-4.386l-1.393,4.386H86.009z"/>
	<path fill="#1A171B" d="M91.962,29.345c0-0.482-0.113-0.835-0.34-1.058s-0.562-0.335-1.008-0.335c-0.293,0-0.561,0.021-0.801,0.061
		c-0.242,0.04-0.457,0.089-0.646,0.147c-0.037-0.065-0.068-0.16-0.094-0.285c-0.025-0.123-0.039-0.24-0.039-0.35
		c0.191-0.059,0.424-0.108,0.703-0.148c0.277-0.041,0.562-0.061,0.854-0.061c0.709,0,1.236,0.155,1.58,0.466
		c0.342,0.312,0.514,0.799,0.514,1.464v3.694c-0.256,0.052-0.566,0.103-0.932,0.153s-0.713,0.076-1.041,0.076
		c-0.68,0-1.215-0.135-1.605-0.404c-0.391-0.271-0.588-0.709-0.588-1.316c0-0.292,0.057-0.553,0.17-0.783s0.271-0.424,0.473-0.582
		c0.201-0.156,0.441-0.275,0.723-0.355s0.59-0.121,0.928-0.121c0.262,0,0.488,0.01,0.68,0.027c0.189,0.019,0.346,0.035,0.471,0.05
		V29.345z M91.962,30.321c-0.125-0.015-0.279-0.031-0.467-0.049c-0.186-0.019-0.363-0.027-0.531-0.027
		c-0.547,0-0.973,0.102-1.271,0.307s-0.449,0.496-0.449,0.877c0,0.24,0.045,0.435,0.137,0.58c0.092,0.146,0.211,0.258,0.357,0.335
		c0.145,0.077,0.307,0.128,0.48,0.153c0.176,0.025,0.352,0.039,0.527,0.039c0.227,0,0.438-0.012,0.635-0.033
		c0.199-0.021,0.393-0.051,0.582-0.088V30.321z"/>
	<path fill="#1A171B" d="M94.505,27.448c0.059-0.006,0.115-0.012,0.17-0.016s0.107-0.006,0.16-0.006
		c0.057,0,0.113,0.002,0.164,0.006s0.105,0.01,0.164,0.016c0.014,0.133,0.025,0.287,0.033,0.467s0.01,0.342,0.01,0.488
		c0.146-0.271,0.352-0.5,0.615-0.686c0.262-0.187,0.609-0.279,1.041-0.279c0.037,0,0.074,0,0.115,0c0.039,0,0.086,0.004,0.137,0.01
		c0.021,0.125,0.033,0.242,0.033,0.352c0,0.117-0.012,0.23-0.033,0.34c-0.059-0.008-0.104-0.012-0.137-0.012s-0.068,0-0.104,0
		c-0.498,0-0.896,0.158-1.195,0.473c-0.301,0.314-0.449,0.836-0.449,1.567v2.872c-0.045,0.008-0.105,0.013-0.182,0.017
		c-0.076,0.003-0.137,0.005-0.182,0.005c-0.035,0-0.094-0.002-0.174-0.005c-0.082-0.004-0.143-0.009-0.188-0.017V27.448z"/>
	<path fill="#1A171B" d="M101.116,32.481c0.643,0.014,1.102,0.147,1.375,0.399c0.275,0.253,0.412,0.587,0.412,1.003
		c0,0.285-0.074,0.543-0.219,0.773c-0.146,0.23-0.352,0.428-0.615,0.592c-0.262,0.164-0.574,0.293-0.938,0.384
		c-0.361,0.091-0.754,0.138-1.178,0.138c-0.328,0-0.631-0.026-0.904-0.078c-0.273-0.051-0.512-0.133-0.713-0.246
		s-0.355-0.264-0.467-0.449c-0.109-0.187-0.164-0.415-0.164-0.686c0-0.277,0.08-0.545,0.242-0.801
		c0.16-0.256,0.369-0.445,0.625-0.569c-0.139-0.088-0.256-0.199-0.352-0.335c-0.096-0.135-0.143-0.301-0.143-0.498
		c0-0.285,0.068-0.522,0.203-0.713c0.135-0.189,0.316-0.361,0.543-0.516c-0.256-0.16-0.461-0.376-0.615-0.646
		c-0.152-0.27-0.229-0.592-0.229-0.965c0-0.27,0.045-0.523,0.137-0.762c0.092-0.237,0.229-0.443,0.41-0.619
		c0.184-0.176,0.408-0.314,0.674-0.417c0.268-0.103,0.576-0.153,0.928-0.153c0.299,0,0.566,0.039,0.801,0.115
		c0.232,0.076,0.438,0.178,0.613,0.301c0.072-0.029,0.164-0.062,0.273-0.098c0.109-0.037,0.23-0.068,0.361-0.094
		c0.133-0.025,0.268-0.047,0.406-0.066c0.139-0.018,0.273-0.027,0.406-0.027c0.029,0.11,0.043,0.23,0.043,0.362
		c0,0.14-0.014,0.263-0.043,0.373h-1.041c0.102,0.161,0.18,0.331,0.234,0.51s0.082,0.371,0.082,0.575
		c0,0.314-0.055,0.592-0.164,0.834c-0.109,0.24-0.262,0.443-0.455,0.607c-0.193,0.165-0.42,0.291-0.68,0.379
		s-0.539,0.131-0.838,0.131c-0.314,0-0.59-0.039-0.822-0.12c-0.205,0.132-0.35,0.258-0.434,0.378
		c-0.084,0.121-0.125,0.258-0.125,0.412c0,0.072,0.01,0.142,0.031,0.207c0.023,0.066,0.068,0.127,0.139,0.182
		c0.068,0.055,0.166,0.099,0.289,0.131c0.125,0.033,0.285,0.05,0.482,0.05L101.116,32.481z M99.56,33.138
		c-0.344-0.007-0.619,0.089-0.828,0.29s-0.312,0.467-0.312,0.795c0,0.176,0.041,0.322,0.121,0.439
		c0.08,0.116,0.191,0.208,0.334,0.273c0.143,0.066,0.309,0.111,0.498,0.137c0.191,0.025,0.393,0.039,0.604,0.039
		c0.68,0,1.209-0.115,1.59-0.346s0.57-0.506,0.57-0.828c0-0.277-0.096-0.475-0.285-0.592s-0.5-0.179-0.932-0.186L99.56,33.138z
		 M98.749,29.268c0,0.381,0.111,0.7,0.334,0.959c0.223,0.26,0.57,0.39,1.047,0.39c0.475,0,0.826-0.13,1.053-0.39
		c0.227-0.259,0.34-0.578,0.34-0.959c0-0.38-0.113-0.699-0.34-0.959s-0.578-0.389-1.053-0.389c-0.477,0-0.824,0.129-1.047,0.389
		S98.749,28.888,98.749,29.268z"/>
	<path fill="#1A171B" d="M107.188,29.345c0-0.482-0.113-0.835-0.34-1.058s-0.562-0.335-1.008-0.335
		c-0.293,0-0.559,0.021-0.801,0.061c-0.24,0.04-0.457,0.089-0.646,0.147c-0.037-0.065-0.068-0.16-0.094-0.285
		c-0.025-0.123-0.037-0.24-0.037-0.35c0.189-0.059,0.424-0.108,0.701-0.148c0.277-0.041,0.562-0.061,0.855-0.061
		c0.709,0,1.234,0.155,1.578,0.466c0.344,0.312,0.516,0.799,0.516,1.464v3.694c-0.256,0.052-0.566,0.103-0.932,0.153
		s-0.713,0.076-1.041,0.076c-0.68,0-1.217-0.135-1.607-0.404c-0.391-0.271-0.586-0.709-0.586-1.316c0-0.292,0.057-0.553,0.17-0.783
		s0.27-0.424,0.471-0.582c0.201-0.156,0.443-0.275,0.725-0.355s0.59-0.121,0.926-0.121c0.264,0,0.49,0.01,0.68,0.027
		c0.189,0.019,0.348,0.035,0.471,0.05V29.345z M107.188,30.321c-0.123-0.015-0.279-0.031-0.465-0.049
		c-0.188-0.019-0.363-0.027-0.531-0.027c-0.549,0-0.973,0.102-1.271,0.307c-0.301,0.205-0.451,0.496-0.451,0.877
		c0,0.24,0.047,0.435,0.139,0.58c0.09,0.146,0.209,0.258,0.355,0.335s0.307,0.128,0.482,0.153s0.352,0.039,0.525,0.039
		c0.227,0,0.439-0.012,0.637-0.033s0.391-0.051,0.58-0.088V30.321z"/>
	<path fill="#1A171B" d="M109.688,27.448c0.045-0.006,0.105-0.012,0.188-0.016c0.08-0.004,0.139-0.006,0.174-0.006
		c0.045,0,0.105,0.002,0.182,0.006s0.137,0.01,0.182,0.016v3.146c0,0.395,0.039,0.719,0.119,0.971
		c0.082,0.252,0.199,0.449,0.357,0.592c0.156,0.143,0.35,0.242,0.576,0.297s0.482,0.082,0.766,0.082
		c0.242,0,0.457-0.014,0.648-0.039c0.189-0.025,0.357-0.061,0.504-0.104v-4.945c0.043-0.006,0.105-0.012,0.186-0.016
		s0.139-0.006,0.176-0.006c0.045,0,0.104,0.002,0.182,0.006c0.076,0.004,0.137,0.01,0.18,0.016v5.449
		c-0.27,0.073-0.572,0.137-0.904,0.191s-0.674,0.082-1.025,0.082c-0.344,0-0.666-0.032-0.969-0.098
		c-0.305-0.066-0.566-0.192-0.789-0.379c-0.225-0.186-0.4-0.443-0.533-0.772c-0.131-0.329-0.197-0.757-0.197-1.282V27.448z"/>
</g>
</svg>
