<?xml version="1.0" encoding="UTF-8" standalone="no"?>
<!-- Generator: Adobe Illustrator 15.0.2, SVG Export Plug-In . SVG Version: 6.00 Build 0)  -->

<svg
   xmlns:dc="http://purl.org/dc/elements/1.1/"
   xmlns:cc="http://creativecommons.org/ns#"
   xmlns:rdf="http://www.w3.org/1999/02/22-rdf-syntax-ns#"
   xmlns:svg="http://www.w3.org/2000/svg"
   xmlns="http://www.w3.org/2000/svg"
   xmlns:sodipodi="http://sodipodi.sourceforge.net/DTD/sodipodi-0.dtd"
   xmlns:inkscape="http://www.inkscape.org/namespaces/inkscape"
   version="1.1"
   id="Logo"
   x="0px"
   y="0px"
   width="158.53"
   height="36.849998"
   viewBox="0 0 158.53 36.849998"
   enable-background="new 0 0 226.771 113.386"
   xml:space="preserve"
   inkscape:version="0.48.3.1 r9886"
   sodipodi:docname="ppLogo-ppbern.svg"
   style="stroke-width:0"><metadata
   id="metadata51"><rdf:RDF><cc:Work
       rdf:about=""><dc:format>image/svg+xml</dc:format><dc:type
         rdf:resource="http://purl.org/dc/dcmitype/StillImage" /></cc:Work></rdf:RDF></metadata><defs
   id="defs49" /><sodipodi:namedview
   pagecolor="#ffffff"
   bordercolor="#666666"
   borderopacity="1"
   objecttolerance="10"
   gridtolerance="10"
   guidetolerance="10"
   inkscape:pageopacity="0"
   inkscape:pageshadow="2"
   inkscape:window-width="1680"
   inkscape:window-height="988"
   id="namedview47"
   showgrid="false"
   inkscape:zoom="4"
   inkscape:cx="91.892826"
   inkscape:cy="-0.2172144"
   inkscape:window-x="-4"
   inkscape:window-y="0"
   inkscape:window-maximized="1"
   inkscape:current-layer="Logo" />
<g
   id="g3"
   transform="translate(-33.464727,-38.26764)">
	<g
   id="g5">
		<circle
   cx="51.895"
   cy="56.693001"
   r="15.89"
   id="circle7"
   sodipodi:cx="51.895"
   sodipodi:cy="56.693001"
   sodipodi:rx="15.89"
   sodipodi:ry="15.89"
   style="fill:#ffffff"
   d="m 67.785001,56.693001 c 0,8.775805 -7.114196,15.89 -15.890001,15.89 -8.775804,0 -15.89,-7.114195 -15.89,-15.89 0,-8.775805 7.114196,-15.890001 15.89,-15.890001 8.775805,0 15.890001,7.114196 15.890001,15.890001 z" />
		<path
   d="m 51.894,39.618 c -9.43,0 -17.077,7.642 -17.077,17.075 0,9.429 7.647,17.075 17.077,17.075 9.432,0 17.079,-7.646 17.079,-17.075 0,-9.433 -7.648,-17.075 -17.079,-17.075 z m 0,32.396 c -8.46,0 -15.321,-6.859 -15.321,-15.32 0,-8.461 6.861,-15.32 15.321,-15.32 8.465,0 15.323,6.859 15.323,15.32 0,8.461 -6.859,15.32 -15.323,15.32 z"
   id="path9"
   inkscape:connector-curvature="0"
   style="fill:#1a171b" />
		<path
   d="M 59.195,48.194 C 55.499,46.123 50.87,46.105 47.198,47.046 v -1.59 h -1.595 v 2.078 c -0.684,0.247 -1.317,0.527 -1.881,0.832 0,0 0.793,-0.098 1.881,-0.031 v 13.896 c -0.792,1.221 -0.982,2.408 -0.796,3.777 0.211,1.531 1.367,2.554 2.277,3.311 -0.536,-1.545 -0.576,-2.95 -0.419,-3.801 0.301,-1.588 1.232,-2.729 5.252,-3.6 4.171,-0.898 9.112,-1.315 10.745,-5.364 0.745,-1.85 1.207,-5.736 -3.467,-8.36 z m -9.748,10.452 c -0.894,0.627 -1.637,1.212 -2.249,1.771 V 48.544 c 1.242,0.263 2.557,0.801 3.463,1.867 2.23,2.633 1.474,6.35 -1.214,8.235 z"
   id="path11"
   inkscape:connector-curvature="0"
   style="fill:#1a171b" />
		<g
   id="g13">
			<path
   d="m 33.466,56.693 c 0,-10.18 8.252,-18.425 18.428,-18.425 l 0,0 c 10.177,0 18.429,8.245 18.43,18.425 l 0,0 c -0.001,10.174 -8.253,18.425 -18.43,18.425 l 0,0 c -10.176,0 -18.428,-8.251 -18.428,-18.425 l 0,0 z m 5.635,-12.794 c -3.274,3.274 -5.3,7.796 -5.3,12.794 l 0,0 c 0,4.995 2.025,9.517 5.3,12.791 l 0,0 c 3.275,3.274 7.797,5.3 12.793,5.3 l 0,0 c 4.996,0 9.52,-2.025 12.794,-5.3 l 0,0 c 3.275,-3.274 5.301,-7.796 5.301,-12.791 l 0,0 c 0,-4.998 -2.025,-9.52 -5.301,-12.794 l 0,0 C 61.414,40.626 56.89,38.602 51.894,38.602 l 0,0 c -4.997,0.001 -9.518,2.024 -12.793,5.297 l 0,0 z"
   id="path15"
   inkscape:connector-curvature="0"
   style="fill:#1a171b" />
		</g>
	</g>
	<g
   id="g17">
		<path
   d="m 78.284,46.008 c 0.184,-0.04 0.363,-0.065 0.541,-0.078 0.176,-0.013 0.376,-0.021 0.6,-0.021 0.366,0 0.739,0.04 1.12,0.118 0.04,0.065 0.075,0.161 0.108,0.285 0.032,0.125 0.064,0.259 0.098,0.403 0.032,0.145 0.06,0.285 0.079,0.422 0.02,0.139 0.035,0.254 0.049,0.345 0.118,-0.21 0.262,-0.416 0.433,-0.619 0.17,-0.203 0.376,-0.384 0.619,-0.54 0.242,-0.158 0.514,-0.285 0.815,-0.385 0.302,-0.098 0.636,-0.146 1.003,-0.146 0.562,0 1.091,0.104 1.582,0.314 0.491,0.209 0.92,0.527 1.287,0.953 0.367,0.426 0.652,0.96 0.855,1.602 0.203,0.643 0.305,1.402 0.305,2.281 0,0.852 -0.125,1.615 -0.373,2.289 -0.25,0.676 -0.61,1.248 -1.082,1.721 -0.472,0.471 -1.049,0.834 -1.729,1.09 -0.682,0.256 -1.454,0.384 -2.319,0.384 -0.224,0 -0.442,-0.009 -0.658,-0.029 -0.217,-0.02 -0.397,-0.043 -0.54,-0.069 v 4.521 c -0.25,0.039 -0.489,0.064 -0.718,0.078 -0.229,0.014 -0.456,0.02 -0.679,0.02 -0.224,0 -0.449,-0.006 -0.679,-0.02 -0.229,-0.014 -0.469,-0.039 -0.717,-0.078 V 46.008 z m 2.792,8.02 c 0.353,0.104 0.759,0.156 1.218,0.156 0.812,0 1.436,-0.262 1.867,-0.785 0.433,-0.525 0.648,-1.318 0.648,-2.379 0,-0.406 -0.032,-0.783 -0.098,-1.131 -0.066,-0.346 -0.178,-0.645 -0.334,-0.895 -0.158,-0.248 -0.357,-0.444 -0.6,-0.59 -0.243,-0.143 -0.541,-0.215 -0.895,-0.215 -0.328,0 -0.606,0.062 -0.836,0.186 -0.229,0.125 -0.416,0.295 -0.56,0.512 -0.145,0.217 -0.249,0.469 -0.315,0.757 -0.065,0.288 -0.097,0.597 -0.097,0.924 v 3.46 z"
   id="path19"
   inkscape:connector-curvature="0"
   style="fill:#f8b322" />
		<path
   d="m 90.51,48.15 h -1.316 c -0.04,-0.171 -0.069,-0.351 -0.089,-0.54 -0.02,-0.189 -0.029,-0.371 -0.029,-0.541 0,-0.354 0.039,-0.701 0.118,-1.042 h 4.049 V 56.19 c -0.472,0.078 -0.931,0.117 -1.376,0.117 -0.433,0 -0.885,-0.039 -1.356,-0.117 v -8.04 z m -0.412,-3.833 c -0.079,-0.445 -0.118,-0.885 -0.118,-1.316 0,-0.42 0.039,-0.858 0.118,-1.317 0.222,-0.04 0.462,-0.069 0.718,-0.089 0.255,-0.02 0.487,-0.029 0.697,-0.029 0.223,0 0.465,0.01 0.727,0.029 0.263,0.02 0.505,0.049 0.728,0.089 0.04,0.224 0.065,0.442 0.079,0.659 0.013,0.216 0.02,0.436 0.02,0.658 0,0.209 -0.007,0.426 -0.02,0.648 -0.014,0.223 -0.039,0.445 -0.079,0.668 -0.223,0.039 -0.462,0.066 -0.717,0.078 -0.256,0.014 -0.495,0.021 -0.718,0.021 -0.21,0 -0.445,-0.007 -0.707,-0.021 -0.264,-0.011 -0.507,-0.039 -0.728,-0.078 z"
   id="path21"
   inkscape:connector-curvature="0"
   style="fill:#f8b322" />
		<path
   d="m 95.994,46.027 c 0.196,-0.038 0.383,-0.068 0.56,-0.089 0.177,-0.02 0.371,-0.029 0.58,-0.029 0.196,0 0.391,0.014 0.58,0.04 0.189,0.026 0.377,0.059 0.561,0.099 0.039,0.065 0.075,0.16 0.107,0.284 0.033,0.125 0.062,0.256 0.089,0.394 0.027,0.138 0.049,0.275 0.069,0.412 0.02,0.139 0.035,0.254 0.049,0.345 0.288,-0.406 0.642,-0.77 1.061,-1.091 0.42,-0.32 0.944,-0.482 1.572,-0.482 0.131,0 0.282,0.008 0.453,0.021 0.17,0.013 0.295,0.032 0.373,0.06 0.026,0.131 0.046,0.281 0.059,0.451 0.014,0.17 0.021,0.348 0.021,0.531 0,0.223 -0.01,0.465 -0.03,0.727 -0.02,0.263 -0.056,0.512 -0.107,0.747 -0.145,-0.026 -0.305,-0.04 -0.481,-0.04 -0.178,0 -0.286,0 -0.324,0 -0.224,0 -0.473,0.023 -0.747,0.069 -0.275,0.046 -0.537,0.167 -0.787,0.364 -0.248,0.196 -0.455,0.49 -0.619,0.885 -0.164,0.393 -0.245,0.943 -0.245,1.65 v 4.836 c -0.236,0.039 -0.472,0.064 -0.708,0.078 -0.235,0.014 -0.465,0.02 -0.688,0.02 -0.223,0 -0.449,-0.006 -0.679,-0.02 -0.229,-0.014 -0.468,-0.039 -0.717,-0.078 V 46.027 z"
   id="path23"
   inkscape:connector-curvature="0"
   style="fill:#f8b322" />
		<path
   d="m 108.771,49.507 c 0,-0.314 -0.053,-0.57 -0.157,-0.767 -0.104,-0.197 -0.249,-0.351 -0.433,-0.462 -0.184,-0.111 -0.41,-0.188 -0.678,-0.227 -0.27,-0.039 -0.567,-0.059 -0.895,-0.059 -0.708,0 -1.462,0.138 -2.261,0.412 -0.184,-0.34 -0.321,-0.66 -0.413,-0.963 -0.092,-0.301 -0.137,-0.661 -0.137,-1.08 0.576,-0.197 1.152,-0.342 1.729,-0.433 0.576,-0.092 1.113,-0.138 1.611,-0.138 1.363,0 2.428,0.328 3.194,0.982 0.767,0.655 1.15,1.703 1.15,3.146 v 5.896 c -0.459,0.145 -1.016,0.282 -1.671,0.413 -0.655,0.131 -1.396,0.196 -2.222,0.196 -0.668,0 -1.281,-0.06 -1.838,-0.177 -0.557,-0.117 -1.035,-0.314 -1.435,-0.59 -0.4,-0.276 -0.708,-0.629 -0.924,-1.062 -0.216,-0.433 -0.324,-0.963 -0.324,-1.592 0,-0.63 0.134,-1.157 0.403,-1.583 0.268,-0.426 0.615,-0.766 1.041,-1.021 0.426,-0.255 0.9,-0.439 1.426,-0.551 0.523,-0.111 1.048,-0.167 1.572,-0.167 0.38,0 0.799,0.021 1.258,0.06 v -0.233 z m 0,2.024 c -0.157,-0.026 -0.328,-0.049 -0.512,-0.068 -0.184,-0.021 -0.347,-0.03 -0.49,-0.03 -0.643,0 -1.15,0.115 -1.524,0.345 -0.373,0.229 -0.56,0.599 -0.56,1.11 0,0.341 0.071,0.604 0.216,0.786 0.145,0.185 0.317,0.317 0.521,0.403 0.203,0.085 0.42,0.137 0.649,0.157 0.229,0.019 0.429,0.029 0.6,0.029 0.196,0 0.393,-0.017 0.589,-0.05 0.197,-0.032 0.367,-0.062 0.512,-0.088 v -2.594 z"
   id="path25"
   inkscape:connector-curvature="0"
   style="fill:#f8b322" />
		<path
   d="m 114.234,48.15 h -1.277 l -0.099,-0.394 3.676,-4.697 h 0.452 v 2.968 h 2.379 c 0.039,0.196 0.065,0.374 0.078,0.53 0.013,0.158 0.02,0.322 0.02,0.492 0,0.184 -0.007,0.361 -0.02,0.531 -0.013,0.17 -0.039,0.36 -0.078,0.569 h -2.379 v 3.99 c 0,0.406 0.032,0.733 0.099,0.983 0.065,0.248 0.16,0.445 0.285,0.59 0.124,0.145 0.278,0.242 0.462,0.294 0.183,0.053 0.399,0.079 0.648,0.079 0.196,0 0.39,-0.017 0.58,-0.049 0.189,-0.033 0.356,-0.062 0.501,-0.089 0.092,0.249 0.157,0.508 0.197,0.776 0.039,0.269 0.059,0.508 0.059,0.717 0,0.145 -0.003,0.266 -0.01,0.364 -0.007,0.098 -0.017,0.193 -0.029,0.285 -0.604,0.144 -1.227,0.216 -1.868,0.216 -1.192,0 -2.103,-0.278 -2.731,-0.835 -0.629,-0.558 -0.944,-1.465 -0.944,-2.723 V 48.15 z"
   id="path27"
   inkscape:connector-curvature="0"
   style="fill:#f8b322" />
		<path
   d="m 123.708,51.964 c 0.053,0.786 0.328,1.356 0.826,1.71 0.498,0.354 1.153,0.53 1.966,0.53 0.445,0 0.901,-0.042 1.366,-0.127 0.465,-0.086 0.907,-0.207 1.326,-0.363 0.145,0.262 0.269,0.576 0.374,0.943 0.104,0.367 0.164,0.76 0.177,1.18 -1.021,0.393 -2.176,0.589 -3.459,0.589 -0.943,0 -1.753,-0.131 -2.428,-0.394 -0.676,-0.262 -1.226,-0.625 -1.651,-1.091 -0.426,-0.465 -0.74,-1.019 -0.943,-1.66 -0.203,-0.641 -0.305,-1.343 -0.305,-2.104 0,-0.747 0.104,-1.448 0.314,-2.104 0.21,-0.656 0.521,-1.226 0.934,-1.71 0.413,-0.484 0.924,-0.868 1.533,-1.15 0.609,-0.281 1.319,-0.422 2.133,-0.422 0.708,0 1.337,0.125 1.887,0.373 0.551,0.249 1.019,0.59 1.405,1.021 0.387,0.434 0.679,0.947 0.875,1.543 0.196,0.598 0.295,1.236 0.295,1.918 0,0.248 -0.01,0.494 -0.029,0.736 -0.02,0.243 -0.043,0.436 -0.069,0.58 h -6.527 z m 3.991,-1.945 c -0.026,-0.63 -0.2,-1.137 -0.521,-1.523 -0.322,-0.387 -0.771,-0.58 -1.348,-0.58 -0.654,0 -1.152,0.184 -1.493,0.551 -0.341,0.366 -0.544,0.883 -0.609,1.553 h 3.971 z"
   id="path29"
   inkscape:connector-curvature="0"
   style="fill:#f8b322" />
		<path
   d="m 132.534,46.027 c 0.184,-0.038 0.367,-0.068 0.551,-0.089 0.184,-0.02 0.387,-0.029 0.609,-0.029 0.222,0 0.419,0.01 0.59,0.029 0.17,0.021 0.347,0.051 0.53,0.089 0.04,0.065 0.075,0.161 0.108,0.285 0.032,0.125 0.062,0.256 0.088,0.394 0.026,0.138 0.05,0.271 0.069,0.402 0.019,0.131 0.036,0.243 0.049,0.334 0.131,-0.195 0.288,-0.393 0.472,-0.589 0.184,-0.196 0.396,-0.374 0.639,-0.53 0.242,-0.158 0.515,-0.285 0.816,-0.385 0.301,-0.098 0.635,-0.146 1.002,-0.146 1.153,0 2.021,0.314 2.604,0.943 0.583,0.629 0.875,1.619 0.875,2.969 v 6.486 c -0.472,0.078 -0.938,0.117 -1.396,0.117 -0.459,0 -0.924,-0.039 -1.396,-0.117 v -5.74 c 0,-0.707 -0.108,-1.252 -0.324,-1.631 -0.217,-0.381 -0.593,-0.57 -1.131,-0.57 -0.223,0 -0.452,0.033 -0.688,0.098 -0.236,0.066 -0.449,0.193 -0.639,0.383 -0.19,0.191 -0.345,0.457 -0.462,0.797 -0.118,0.342 -0.178,0.786 -0.178,1.336 v 5.328 c -0.471,0.078 -0.937,0.117 -1.396,0.117 -0.458,0 -0.924,-0.039 -1.396,-0.117 V 46.027 z"
   id="path31"
   inkscape:connector-curvature="0"
   style="fill:#f8b322" />
		<path
   d="m 144.426,46.165 c 0.079,-0.013 0.177,-0.022 0.295,-0.029 0.118,-0.006 0.217,-0.01 0.296,-0.01 0.078,0 0.176,0.004 0.294,0.01 0.118,0.007 0.217,0.017 0.295,0.029 l 0.118,1.377 c 0.275,-0.42 0.671,-0.793 1.189,-1.121 0.518,-0.328 1.189,-0.491 2.015,-0.491 0.615,0 1.18,0.095 1.69,0.284 0.511,0.191 0.946,0.488 1.307,0.895 0.361,0.406 0.643,0.918 0.846,1.533 0.203,0.616 0.305,1.357 0.305,2.221 0,0.865 -0.118,1.643 -0.354,2.33 -0.236,0.688 -0.58,1.271 -1.033,1.749 -0.451,0.479 -1.009,0.845 -1.67,1.101 -0.662,0.256 -1.419,0.384 -2.271,0.384 -0.314,0 -0.655,-0.026 -1.022,-0.079 -0.367,-0.052 -0.701,-0.131 -1.002,-0.235 v 4.718 c -0.079,0.013 -0.19,0.022 -0.334,0.029 -0.145,0.006 -0.25,0.01 -0.314,0.01 -0.079,0 -0.188,-0.004 -0.324,-0.01 -0.138,-0.007 -0.246,-0.017 -0.325,-0.029 V 46.165 z m 1.298,8.747 c 0.301,0.118 0.612,0.206 0.934,0.266 0.32,0.059 0.75,0.089 1.287,0.089 0.512,0 0.996,-0.082 1.455,-0.246 0.458,-0.164 0.858,-0.423 1.199,-0.776 0.34,-0.354 0.609,-0.803 0.806,-1.347 0.196,-0.543 0.295,-1.195 0.295,-1.955 0,-1.206 -0.227,-2.15 -0.679,-2.832 -0.451,-0.681 -1.183,-1.021 -2.191,-1.021 -0.314,0 -0.655,0.053 -1.021,0.158 -0.367,0.104 -0.705,0.284 -1.013,0.54 -0.308,0.255 -0.563,0.589 -0.767,1.002 -0.204,0.413 -0.305,0.935 -0.305,1.563 v 4.559 z"
   id="path33"
   inkscape:connector-curvature="0"
   style="fill:#1a171b" />
		<path
   d="m 161.323,49.565 c 0,-0.864 -0.203,-1.497 -0.609,-1.896 -0.406,-0.399 -1.01,-0.6 -1.809,-0.6 -0.523,0 -1.002,0.037 -1.435,0.107 -0.433,0.072 -0.819,0.162 -1.16,0.266 -0.065,-0.117 -0.121,-0.287 -0.167,-0.511 -0.046,-0.222 -0.068,-0.433 -0.068,-0.628 0.341,-0.105 0.76,-0.193 1.258,-0.266 0.498,-0.073 1.009,-0.108 1.533,-0.108 1.271,0 2.214,0.278 2.831,0.835 0.615,0.557 0.923,1.432 0.923,2.624 v 6.624 c -0.459,0.093 -1.016,0.184 -1.671,0.275 -0.655,0.091 -1.277,0.138 -1.867,0.138 -1.218,0 -2.179,-0.242 -2.879,-0.728 -0.702,-0.484 -1.052,-1.271 -1.052,-2.358 0,-0.524 0.102,-0.993 0.305,-1.405 0.203,-0.412 0.484,-0.76 0.845,-1.042 0.361,-0.282 0.793,-0.494 1.298,-0.64 0.504,-0.144 1.058,-0.215 1.661,-0.215 0.472,0 0.878,0.016 1.218,0.049 0.341,0.033 0.623,0.062 0.846,0.088 v -0.609 z m 0,1.75 c -0.223,-0.026 -0.502,-0.056 -0.836,-0.089 -0.334,-0.032 -0.651,-0.049 -0.953,-0.049 -0.982,0 -1.742,0.184 -2.28,0.55 -0.537,0.367 -0.806,0.893 -0.806,1.572 0,0.434 0.082,0.78 0.246,1.042 0.164,0.263 0.376,0.462 0.639,0.6 0.262,0.138 0.551,0.229 0.865,0.275 0.314,0.046 0.629,0.069 0.943,0.069 0.406,0 0.786,-0.02 1.14,-0.06 0.354,-0.039 0.701,-0.091 1.042,-0.157 v -3.753 z"
   id="path35"
   inkscape:connector-curvature="0"
   style="fill:#1a171b" />
		<path
   d="m 165.68,46.165 c 0.104,-0.013 0.206,-0.022 0.305,-0.029 0.099,-0.006 0.192,-0.01 0.285,-0.01 0.104,0 0.203,0.004 0.295,0.01 0.091,0.007 0.189,0.017 0.294,0.029 0.026,0.236 0.046,0.515 0.06,0.836 0.013,0.32 0.02,0.612 0.02,0.875 0.263,-0.484 0.629,-0.895 1.101,-1.229 0.473,-0.335 1.094,-0.502 1.868,-0.502 0.064,0 0.134,0 0.206,0 0.072,0 0.154,0.007 0.245,0.02 0.04,0.223 0.06,0.433 0.06,0.629 0,0.211 -0.02,0.413 -0.06,0.609 -0.104,-0.012 -0.187,-0.02 -0.245,-0.02 -0.058,0 -0.121,0 -0.187,0 -0.892,0 -1.605,0.282 -2.143,0.846 -0.538,0.562 -0.806,1.5 -0.806,2.811 v 5.15 c -0.079,0.012 -0.188,0.021 -0.324,0.029 -0.139,0.006 -0.247,0.01 -0.325,0.01 -0.065,0 -0.171,-0.004 -0.314,-0.01 -0.144,-0.008 -0.255,-0.018 -0.334,-0.029 V 46.165 z"
   id="path37"
   inkscape:connector-curvature="0"
   style="fill:#1a171b" />
		<path
   d="m 173.146,47.267 h -1.71 c -0.013,-0.066 -0.022,-0.151 -0.029,-0.256 -0.007,-0.105 -0.01,-0.21 -0.01,-0.314 0,-0.105 0.003,-0.203 0.01,-0.295 0.007,-0.092 0.017,-0.17 0.029,-0.236 h 1.71 v -1.887 l 1.219,-1.199 h 0.079 v 3.086 h 2.713 c 0.013,0.066 0.022,0.145 0.029,0.236 0.006,0.092 0.01,0.189 0.01,0.295 0,0.104 -0.004,0.209 -0.01,0.314 -0.007,0.104 -0.017,0.189 -0.029,0.256 h -2.713 v 6.525 c 0,0.328 0.042,0.586 0.128,0.776 0.085,0.19 0.196,0.337 0.334,0.442 0.138,0.105 0.295,0.174 0.472,0.206 0.177,0.032 0.356,0.05 0.54,0.05 0.459,0 0.858,-0.06 1.199,-0.178 0.092,0.342 0.157,0.708 0.196,1.102 -0.472,0.144 -1.021,0.216 -1.65,0.216 -0.747,0 -1.354,-0.2 -1.818,-0.6 -0.464,-0.4 -0.698,-1.052 -0.698,-1.956 v -6.583 z"
   id="path39"
   inkscape:connector-curvature="0"
   style="fill:#1a171b" />
		<path
   d="m 180.048,51.374 c 0,1.336 0.308,2.32 0.924,2.949 0.615,0.629 1.539,0.943 2.771,0.943 0.498,0 0.96,-0.043 1.386,-0.128 0.426,-0.085 0.842,-0.2 1.248,-0.345 0.065,0.145 0.118,0.322 0.157,0.531 0.039,0.209 0.065,0.399 0.079,0.57 -0.38,0.17 -0.826,0.301 -1.337,0.393 -0.512,0.092 -1.068,0.138 -1.671,0.138 -0.864,0 -1.608,-0.128 -2.231,-0.384 -0.622,-0.256 -1.133,-0.611 -1.532,-1.07 -0.4,-0.459 -0.695,-1.006 -0.885,-1.643 -0.19,-0.635 -0.285,-1.332 -0.285,-2.092 0,-0.734 0.089,-1.422 0.266,-2.064 0.177,-0.642 0.445,-1.205 0.806,-1.69 0.359,-0.485 0.822,-0.865 1.386,-1.14 0.563,-0.275 1.238,-0.413 2.024,-0.413 0.655,0 1.238,0.11 1.749,0.334 0.512,0.224 0.94,0.534 1.288,0.934 0.347,0.399 0.609,0.878 0.786,1.435 0.177,0.558 0.265,1.164 0.265,1.818 0,0.118 -0.003,0.27 -0.009,0.452 -0.007,0.185 -0.017,0.341 -0.029,0.472 h -7.156 z m 5.896,-1.081 c 0,-0.405 -0.052,-0.806 -0.157,-1.198 -0.104,-0.394 -0.269,-0.738 -0.491,-1.033 -0.223,-0.294 -0.512,-0.533 -0.865,-0.717 -0.353,-0.184 -0.779,-0.275 -1.277,-0.275 -0.917,0 -1.631,0.282 -2.143,0.846 -0.511,0.562 -0.819,1.355 -0.924,2.378 h 5.857 z"
   id="path41"
   inkscape:connector-curvature="0"
   style="fill:#1a171b" />
		<path
   d="m 190.701,47.267 h -1.258 c -0.014,-0.066 -0.022,-0.145 -0.029,-0.236 -0.007,-0.091 -0.011,-0.189 -0.011,-0.295 0,-0.104 0.004,-0.209 0.011,-0.314 0.007,-0.105 0.016,-0.189 0.029,-0.256 h 2.556 V 56.19 c -0.079,0.012 -0.188,0.021 -0.324,0.029 -0.139,0.006 -0.246,0.01 -0.325,0.01 -0.065,0 -0.17,-0.004 -0.314,-0.01 -0.144,-0.008 -0.255,-0.018 -0.334,-0.029 v -8.923 z m -0.648,-3.559 c -0.014,-0.117 -0.023,-0.262 -0.029,-0.433 -0.007,-0.17 -0.011,-0.313 -0.011,-0.433 0,-0.104 0.004,-0.235 0.011,-0.393 0.006,-0.157 0.016,-0.288 0.029,-0.393 0.118,-0.014 0.262,-0.023 0.433,-0.03 0.17,-0.006 0.314,-0.009 0.432,-0.009 0.105,0 0.236,0.003 0.394,0.009 0.157,0.007 0.288,0.017 0.394,0.03 0.013,0.104 0.022,0.235 0.029,0.393 0.006,0.157 0.01,0.289 0.01,0.393 0,0.119 -0.004,0.263 -0.01,0.433 -0.007,0.171 -0.017,0.315 -0.029,0.433 -0.105,0.014 -0.236,0.023 -0.394,0.029 -0.157,0.008 -0.288,0.01 -0.394,0.01 -0.117,0 -0.262,-0.002 -0.432,-0.01 -0.172,-0.006 -0.315,-0.015 -0.433,-0.029 z"
   id="path43"
   inkscape:connector-curvature="0"
   style="fill:#1a171b" />
	</g>
</g>
<text
   font-size="11"
   id="text45"
   style="font-size:11px;fill:#1a171b;font-family:Aller-Light"
   x="43.819469"
   y="33.138554">Stadt Bern</text>

</svg>