<?xml version="1.0" encoding="utf-8"?>
<!-- Generator: Adobe Illustrator 13.0.2, SVG Export Plug-In . SVG Version: 6.00 Build 14948)  -->
<!DOCTYPE svg PUBLIC "-//W3C//DTD SVG 1.1//EN" "http://www.w3.org/Graphics/SVG/1.1/DTD/svg11.dtd">
<svg version="1.1" id="Logo" xmlns="http://www.w3.org/2000/svg" xmlns:xlink="http://www.w3.org/1999/xlink" x="0px" y="0px"
	 width="158.534px" height="36.85px" viewBox="0 0 158.534 36.85" enable-background="new 0 0 158.534 36.85" xml:space="preserve" stroke-width="0">
<g>
	<g>
		<circle fill="#FFFFFF" cx="18.429" cy="18.425" r="15.89"/>
		<path fill="#1A171B" d="M18.428,1.35c-9.43,0-17.077,7.642-17.077,17.075c0,9.429,7.647,17.075,17.077,17.075
			c9.432,0,17.079-7.646,17.079-17.075C35.507,8.991,27.859,1.35,18.428,1.35z M18.428,33.745c-8.46,0-15.321-6.859-15.321-15.32
			s6.861-15.32,15.321-15.32c8.465,0,15.323,6.859,15.323,15.32S26.893,33.745,18.428,33.745z"/>
		<path fill="#1A171B" d="M25.729,9.926c-3.696-2.071-8.325-2.089-11.997-1.148v-1.59h-1.595v2.078
			c-0.684,0.247-1.317,0.527-1.881,0.832c0,0,0.793-0.098,1.881-0.031v13.896c-0.792,1.221-0.982,2.408-0.796,3.777
			c0.211,1.531,1.367,2.554,2.277,3.311c-0.536-1.545-0.576-2.95-0.419-3.801c0.301-1.588,1.232-2.729,5.252-3.6
			c4.171-0.898,9.112-1.315,10.745-5.364C29.941,16.436,30.403,12.55,25.729,9.926z M15.981,20.378
			c-0.894,0.627-1.637,1.212-2.249,1.771V10.275c1.242,0.263,2.557,0.801,3.463,1.867C19.425,14.775,18.669,18.492,15.981,20.378z"
			/>
		<g>
			<path fill="#1A171B" d="M0,18.425C0,8.245,8.252,0,18.428,0l0,0c10.177,0,18.429,8.245,18.43,18.425l0,0
				c-0.001,10.174-8.253,18.425-18.43,18.425l0,0C8.252,36.85,0,28.599,0,18.425L0,18.425z M5.635,5.631
				c-3.274,3.274-5.3,7.796-5.3,12.794l0,0c0,4.995,2.025,9.517,5.3,12.791l0,0c3.275,3.274,7.797,5.3,12.793,5.3l0,0
				c4.996,0,9.52-2.025,12.794-5.3l0,0c3.275-3.274,5.301-7.796,5.301-12.791l0,0c0-4.998-2.025-9.52-5.301-12.794l0,0
				c-3.274-3.273-7.798-5.297-12.794-5.297l0,0C13.432,0.334,8.91,2.357,5.635,5.631L5.635,5.631z"/>
		</g>
	</g>
	<g>
		<path fill="#F9B200" d="M44.818,7.739c0.184-0.04,0.363-0.065,0.541-0.078c0.176-0.013,0.376-0.021,0.6-0.021
			c0.366,0,0.739,0.04,1.12,0.118c0.04,0.065,0.075,0.161,0.108,0.285c0.032,0.125,0.064,0.259,0.098,0.403
			c0.032,0.145,0.06,0.285,0.079,0.422c0.02,0.139,0.035,0.254,0.049,0.345c0.118-0.21,0.262-0.416,0.433-0.619
			c0.17-0.203,0.376-0.384,0.619-0.54c0.242-0.158,0.514-0.285,0.815-0.385c0.302-0.098,0.636-0.146,1.003-0.146
			c0.562,0,1.091,0.104,1.582,0.314c0.491,0.209,0.92,0.527,1.287,0.953s0.652,0.96,0.855,1.602
			c0.203,0.643,0.305,1.402,0.305,2.281c0,0.852-0.125,1.615-0.373,2.289c-0.25,0.676-0.61,1.248-1.082,1.721
			c-0.472,0.471-1.049,0.834-1.729,1.09c-0.682,0.256-1.454,0.384-2.319,0.384c-0.224,0-0.442-0.009-0.658-0.029
			c-0.217-0.02-0.397-0.043-0.54-0.069v4.521c-0.25,0.039-0.489,0.064-0.718,0.078c-0.229,0.014-0.456,0.02-0.679,0.02
			c-0.224,0-0.449-0.006-0.679-0.02c-0.229-0.014-0.469-0.039-0.717-0.078V7.739z M47.61,15.76c0.353,0.104,0.759,0.156,1.218,0.156
			c0.812,0,1.436-0.262,1.867-0.785c0.433-0.525,0.648-1.318,0.648-2.379c0-0.406-0.032-0.783-0.098-1.131
			c-0.066-0.346-0.178-0.645-0.334-0.895c-0.158-0.248-0.357-0.444-0.6-0.59c-0.243-0.143-0.541-0.215-0.895-0.215
			c-0.328,0-0.606,0.062-0.836,0.186c-0.229,0.125-0.416,0.295-0.56,0.512c-0.145,0.217-0.249,0.469-0.315,0.757
			c-0.065,0.288-0.097,0.597-0.097,0.924V15.76z"/>
		<path fill="#F9B200" d="M57.044,9.882h-1.316c-0.04-0.171-0.069-0.351-0.089-0.54s-0.029-0.371-0.029-0.541
			c0-0.354,0.039-0.701,0.118-1.042h4.049v10.163C59.305,18,58.846,18.039,58.4,18.039c-0.433,0-0.885-0.039-1.356-0.117V9.882z
			 M56.632,6.049c-0.079-0.445-0.118-0.885-0.118-1.316c0-0.42,0.039-0.858,0.118-1.317c0.222-0.04,0.462-0.069,0.718-0.089
			c0.255-0.02,0.487-0.029,0.697-0.029c0.223,0,0.465,0.01,0.727,0.029c0.263,0.02,0.505,0.049,0.728,0.089
			c0.04,0.224,0.065,0.442,0.079,0.659C59.593,4.29,59.6,4.51,59.6,4.732c0,0.209-0.007,0.426-0.02,0.648
			c-0.014,0.223-0.039,0.445-0.079,0.668c-0.223,0.039-0.462,0.066-0.717,0.078c-0.256,0.014-0.495,0.021-0.718,0.021
			c-0.21,0-0.445-0.007-0.707-0.021C57.097,6.115,56.854,6.088,56.632,6.049z"/>
		<path fill="#F9B200" d="M62.528,7.759c0.196-0.038,0.383-0.068,0.56-0.089c0.177-0.02,0.371-0.029,0.58-0.029
			c0.196,0,0.391,0.014,0.58,0.04s0.377,0.059,0.561,0.099c0.039,0.065,0.075,0.16,0.107,0.284c0.033,0.125,0.062,0.256,0.089,0.394
			s0.049,0.275,0.069,0.412c0.02,0.139,0.035,0.254,0.049,0.345c0.288-0.406,0.642-0.77,1.061-1.091
			c0.42-0.32,0.944-0.482,1.572-0.482c0.131,0,0.282,0.008,0.453,0.021c0.17,0.013,0.295,0.032,0.373,0.06
			c0.026,0.131,0.046,0.281,0.059,0.451c0.014,0.17,0.021,0.348,0.021,0.531c0,0.223-0.01,0.465-0.03,0.727
			c-0.02,0.263-0.056,0.512-0.107,0.747c-0.145-0.026-0.305-0.04-0.481-0.04c-0.178,0-0.286,0-0.324,0
			c-0.224,0-0.473,0.023-0.747,0.069c-0.275,0.046-0.537,0.167-0.787,0.364c-0.248,0.196-0.455,0.49-0.619,0.885
			c-0.164,0.393-0.245,0.943-0.245,1.65v4.836c-0.236,0.039-0.472,0.064-0.708,0.078c-0.235,0.014-0.465,0.02-0.688,0.02
			s-0.449-0.006-0.679-0.02c-0.229-0.014-0.468-0.039-0.717-0.078V7.759z"/>
		<path fill="#F9B200" d="M75.305,11.238c0-0.314-0.053-0.57-0.158-0.767c-0.104-0.196-0.248-0.351-0.432-0.462
			s-0.41-0.188-0.678-0.227c-0.27-0.039-0.568-0.059-0.895-0.059c-0.709,0-1.463,0.138-2.262,0.412
			c-0.184-0.34-0.321-0.66-0.413-0.963c-0.092-0.301-0.137-0.661-0.137-1.08c0.577-0.197,1.153-0.342,1.729-0.433
			c0.576-0.092,1.113-0.138,1.611-0.138c1.363,0,2.428,0.328,3.195,0.982c0.766,0.655,1.15,1.703,1.15,3.146v5.896
			c-0.459,0.145-1.016,0.282-1.672,0.413c-0.654,0.131-1.395,0.196-2.221,0.196c-0.668,0-1.281-0.06-1.838-0.177
			s-1.035-0.314-1.436-0.59c-0.399-0.275-0.708-0.629-0.923-1.062s-0.324-0.963-0.324-1.592c0-0.63,0.134-1.157,0.403-1.583
			c0.268-0.426,0.615-0.766,1.042-1.021c0.426-0.256,0.9-0.439,1.426-0.551c0.523-0.111,1.047-0.167,1.572-0.167
			c0.379,0,0.799,0.021,1.258,0.06V11.238z M75.305,13.263c-0.158-0.026-0.328-0.049-0.512-0.068c-0.184-0.021-0.348-0.03-0.49-0.03
			c-0.643,0-1.15,0.115-1.525,0.345c-0.373,0.229-0.559,0.599-0.559,1.11c0,0.341,0.07,0.604,0.215,0.786
			c0.145,0.185,0.318,0.317,0.521,0.403c0.203,0.085,0.42,0.137,0.648,0.157c0.229,0.019,0.43,0.029,0.6,0.029
			c0.197,0,0.393-0.017,0.59-0.05c0.197-0.032,0.367-0.062,0.512-0.088V13.263z"/>
		<path fill="#F9B200" d="M80.769,9.882h-1.278l-0.098-0.394l3.676-4.697h0.451v2.968h2.379c0.039,0.196,0.066,0.374,0.078,0.53
			c0.014,0.158,0.02,0.322,0.02,0.492c0,0.184-0.006,0.361-0.02,0.531c-0.012,0.17-0.039,0.36-0.078,0.569h-2.379v3.99
			c0,0.406,0.033,0.733,0.1,0.983c0.064,0.248,0.16,0.445,0.285,0.59c0.123,0.145,0.277,0.242,0.461,0.294
			c0.184,0.053,0.4,0.079,0.648,0.079c0.197,0,0.391-0.017,0.58-0.049c0.189-0.033,0.357-0.062,0.502-0.089
			c0.092,0.249,0.156,0.508,0.197,0.776c0.039,0.269,0.059,0.508,0.059,0.717c0,0.145-0.004,0.266-0.01,0.364
			c-0.008,0.099-0.018,0.193-0.029,0.285c-0.604,0.144-1.227,0.216-1.869,0.216c-1.191,0-2.102-0.278-2.73-0.835
			c-0.629-0.558-0.945-1.465-0.945-2.723V9.882z"/>
		<path fill="#F9B200" d="M90.243,13.695c0.053,0.786,0.328,1.356,0.826,1.71c0.498,0.354,1.152,0.53,1.965,0.53
			c0.445,0,0.902-0.042,1.367-0.127c0.465-0.086,0.906-0.207,1.326-0.363c0.145,0.262,0.268,0.576,0.373,0.943
			s0.164,0.76,0.178,1.18c-1.021,0.393-2.176,0.589-3.459,0.589c-0.943,0-1.754-0.131-2.428-0.394
			c-0.676-0.262-1.227-0.625-1.652-1.091c-0.426-0.465-0.74-1.019-0.943-1.66s-0.305-1.343-0.305-2.104
			c0-0.747,0.105-1.448,0.314-2.104c0.211-0.655,0.521-1.226,0.934-1.71c0.414-0.484,0.924-0.868,1.533-1.15
			c0.609-0.281,1.32-0.422,2.133-0.422c0.709,0,1.338,0.125,1.887,0.373c0.551,0.249,1.02,0.59,1.406,1.021
			c0.387,0.434,0.678,0.947,0.875,1.543c0.195,0.598,0.295,1.236,0.295,1.918c0,0.248-0.01,0.494-0.029,0.736
			c-0.02,0.243-0.043,0.436-0.07,0.58H90.243z M94.233,11.75c-0.025-0.63-0.199-1.137-0.52-1.523
			c-0.322-0.387-0.771-0.58-1.348-0.58c-0.654,0-1.152,0.184-1.494,0.551c-0.34,0.366-0.543,0.883-0.609,1.553H94.233z"/>
		<path fill="#F9B200" d="M99.069,7.759c0.184-0.038,0.367-0.068,0.551-0.089c0.184-0.02,0.387-0.029,0.609-0.029
			s0.418,0.01,0.59,0.029c0.17,0.021,0.346,0.051,0.529,0.089c0.041,0.065,0.076,0.161,0.109,0.285
			c0.031,0.125,0.062,0.256,0.088,0.394s0.049,0.271,0.068,0.402s0.037,0.243,0.049,0.334c0.131-0.195,0.289-0.393,0.473-0.589
			s0.396-0.374,0.639-0.53c0.242-0.158,0.514-0.285,0.816-0.385c0.301-0.098,0.635-0.146,1.002-0.146
			c1.152,0,2.021,0.314,2.604,0.943c0.584,0.629,0.875,1.619,0.875,2.969v6.486c-0.471,0.078-0.938,0.117-1.395,0.117
			c-0.459,0-0.924-0.039-1.396-0.117v-5.74c0-0.707-0.107-1.252-0.324-1.631c-0.217-0.381-0.592-0.57-1.131-0.57
			c-0.223,0-0.451,0.033-0.688,0.098c-0.236,0.066-0.449,0.193-0.639,0.383c-0.189,0.191-0.344,0.457-0.461,0.797
			c-0.119,0.342-0.178,0.786-0.178,1.336v5.328c-0.471,0.078-0.938,0.117-1.396,0.117c-0.457,0-0.924-0.039-1.395-0.117V7.759z"/>
		<path fill="#1A171B" d="M110.96,7.896c0.08-0.013,0.178-0.022,0.295-0.029c0.119-0.006,0.217-0.01,0.297-0.01
			c0.078,0,0.176,0.004,0.293,0.01c0.119,0.007,0.217,0.017,0.295,0.029l0.119,1.377c0.275-0.42,0.67-0.793,1.189-1.121
			c0.518-0.328,1.189-0.491,2.014-0.491c0.615,0,1.18,0.095,1.691,0.284c0.51,0.191,0.945,0.488,1.307,0.895
			s0.643,0.918,0.846,1.533c0.203,0.616,0.305,1.357,0.305,2.221c0,0.865-0.119,1.643-0.354,2.33
			c-0.236,0.688-0.58,1.271-1.033,1.749c-0.451,0.479-1.01,0.845-1.67,1.101c-0.662,0.256-1.42,0.384-2.271,0.384
			c-0.314,0-0.654-0.026-1.021-0.079c-0.367-0.052-0.701-0.131-1.002-0.235v4.718c-0.08,0.013-0.191,0.022-0.334,0.029
			c-0.145,0.006-0.25,0.01-0.314,0.01c-0.08,0-0.188-0.004-0.324-0.01c-0.139-0.007-0.246-0.017-0.326-0.029V7.896z M112.259,16.644
			c0.301,0.118,0.611,0.206,0.934,0.266c0.32,0.059,0.75,0.089,1.287,0.089c0.512,0,0.996-0.082,1.455-0.246
			c0.457-0.164,0.857-0.423,1.199-0.776c0.34-0.354,0.609-0.803,0.805-1.347c0.197-0.543,0.295-1.195,0.295-1.955
			c0-1.206-0.227-2.15-0.678-2.832c-0.451-0.681-1.184-1.021-2.191-1.021c-0.314,0-0.656,0.053-1.021,0.158
			c-0.367,0.104-0.705,0.284-1.014,0.54c-0.307,0.255-0.562,0.589-0.766,1.002s-0.305,0.935-0.305,1.563V16.644z"/>
		<path fill="#1A171B" d="M127.858,11.297c0-0.864-0.203-1.497-0.609-1.896s-1.01-0.6-1.809-0.6c-0.523,0-1.002,0.037-1.436,0.107
			c-0.432,0.072-0.818,0.162-1.16,0.266c-0.064-0.117-0.121-0.287-0.166-0.511c-0.047-0.222-0.068-0.433-0.068-0.628
			c0.34-0.105,0.76-0.193,1.258-0.266s1.008-0.108,1.533-0.108c1.271,0,2.213,0.278,2.83,0.835c0.615,0.557,0.924,1.432,0.924,2.624
			v6.624c-0.459,0.093-1.016,0.184-1.672,0.275c-0.654,0.092-1.277,0.138-1.867,0.138c-1.217,0-2.178-0.242-2.879-0.728
			c-0.701-0.484-1.051-1.271-1.051-2.358c0-0.524,0.102-0.993,0.305-1.405s0.484-0.76,0.844-1.042
			c0.361-0.282,0.793-0.494,1.299-0.64c0.504-0.144,1.057-0.215,1.66-0.215c0.473,0,0.879,0.016,1.219,0.049
			s0.623,0.062,0.846,0.088V11.297z M127.858,13.047c-0.223-0.026-0.502-0.056-0.836-0.089c-0.334-0.032-0.652-0.049-0.953-0.049
			c-0.982,0-1.742,0.184-2.281,0.55c-0.537,0.367-0.805,0.893-0.805,1.572c0,0.434,0.082,0.78,0.246,1.042
			c0.164,0.263,0.375,0.462,0.639,0.6c0.262,0.138,0.551,0.229,0.865,0.275s0.629,0.069,0.943,0.069c0.406,0,0.785-0.02,1.139-0.06
			c0.355-0.039,0.701-0.091,1.043-0.157V13.047z"/>
		<path fill="#1A171B" d="M132.214,7.896c0.105-0.013,0.207-0.022,0.305-0.029c0.1-0.006,0.193-0.01,0.285-0.01
			c0.105,0,0.203,0.004,0.295,0.01c0.092,0.007,0.189,0.017,0.295,0.029c0.025,0.236,0.045,0.515,0.059,0.836
			c0.014,0.32,0.02,0.612,0.02,0.875c0.264-0.484,0.629-0.895,1.102-1.229c0.473-0.335,1.094-0.502,1.867-0.502
			c0.064,0,0.135,0,0.207,0s0.154,0.007,0.244,0.02c0.041,0.223,0.061,0.433,0.061,0.629c0,0.211-0.02,0.413-0.061,0.609
			c-0.104-0.012-0.186-0.02-0.244-0.02s-0.121,0-0.188,0c-0.891,0-1.605,0.282-2.143,0.846c-0.537,0.562-0.805,1.5-0.805,2.811v5.15
			c-0.08,0.012-0.188,0.021-0.324,0.029c-0.139,0.006-0.248,0.01-0.326,0.01c-0.064,0-0.17-0.004-0.314-0.01
			c-0.143-0.008-0.254-0.018-0.334-0.029V7.896z"/>
		<path fill="#1A171B" d="M139.681,8.998h-1.709c-0.014-0.066-0.023-0.151-0.029-0.256c-0.008-0.105-0.01-0.21-0.01-0.314
			c0-0.105,0.002-0.203,0.01-0.295c0.006-0.092,0.016-0.17,0.029-0.236h1.709V6.01l1.219-1.199h0.08v3.086h2.713
			c0.012,0.066,0.021,0.145,0.029,0.236c0.006,0.092,0.01,0.189,0.01,0.295c0,0.104-0.004,0.209-0.01,0.314
			c-0.008,0.104-0.018,0.189-0.029,0.256h-2.713v6.525c0,0.328,0.041,0.586,0.127,0.776s0.197,0.337,0.334,0.442
			c0.139,0.105,0.295,0.174,0.473,0.206c0.176,0.032,0.355,0.05,0.539,0.05c0.459,0,0.859-0.06,1.199-0.178
			c0.092,0.342,0.158,0.708,0.197,1.102c-0.473,0.144-1.021,0.216-1.65,0.216c-0.748,0-1.354-0.2-1.818-0.6
			s-0.699-1.052-0.699-1.956V8.998z"/>
		<path fill="#1A171B" d="M146.583,13.105c0,1.336,0.307,2.32,0.924,2.949c0.615,0.629,1.539,0.943,2.771,0.943
			c0.498,0,0.959-0.043,1.385-0.128s0.842-0.2,1.248-0.345c0.066,0.145,0.119,0.322,0.158,0.531s0.064,0.399,0.078,0.57
			c-0.379,0.17-0.826,0.301-1.336,0.393c-0.512,0.092-1.068,0.138-1.672,0.138c-0.863,0-1.607-0.128-2.23-0.384
			s-1.133-0.611-1.533-1.07s-0.695-1.006-0.885-1.643c-0.189-0.635-0.285-1.332-0.285-2.092c0-0.734,0.09-1.422,0.266-2.064
			c0.178-0.643,0.445-1.205,0.807-1.69c0.359-0.485,0.822-0.865,1.385-1.14c0.564-0.275,1.238-0.413,2.025-0.413
			c0.654,0,1.238,0.11,1.748,0.334c0.512,0.224,0.941,0.534,1.289,0.934c0.346,0.399,0.609,0.878,0.785,1.435
			c0.178,0.558,0.266,1.164,0.266,1.818c0,0.118-0.004,0.27-0.01,0.452c-0.006,0.185-0.016,0.341-0.029,0.472H146.583z
			 M152.479,12.024c0-0.405-0.053-0.806-0.158-1.198c-0.104-0.394-0.268-0.738-0.49-1.033c-0.223-0.294-0.512-0.533-0.865-0.717
			s-0.779-0.275-1.277-0.275c-0.918,0-1.631,0.282-2.143,0.846c-0.512,0.562-0.82,1.355-0.924,2.378H152.479z"/>
		<path fill="#1A171B" d="M157.235,8.998h-1.258c-0.014-0.066-0.021-0.145-0.029-0.236c-0.006-0.092-0.01-0.189-0.01-0.295
			c0-0.104,0.004-0.209,0.01-0.314c0.008-0.105,0.016-0.189,0.029-0.256h2.557v10.025c-0.08,0.012-0.188,0.021-0.324,0.029
			c-0.139,0.006-0.246,0.01-0.326,0.01c-0.064,0-0.17-0.004-0.314-0.01c-0.143-0.008-0.254-0.018-0.334-0.029V8.998z M156.587,5.439
			c-0.014-0.117-0.023-0.262-0.029-0.433c-0.006-0.17-0.01-0.313-0.01-0.433c0-0.104,0.004-0.235,0.01-0.393
			s0.016-0.288,0.029-0.393c0.119-0.014,0.262-0.023,0.434-0.03c0.17-0.006,0.314-0.009,0.432-0.009
			c0.105,0,0.236,0.003,0.393,0.009c0.158,0.007,0.289,0.017,0.395,0.03c0.012,0.104,0.021,0.235,0.029,0.393
			c0.006,0.157,0.01,0.289,0.01,0.393c0,0.119-0.004,0.263-0.01,0.433c-0.008,0.171-0.018,0.315-0.029,0.433
			c-0.105,0.014-0.236,0.023-0.395,0.029c-0.156,0.008-0.287,0.01-0.393,0.01c-0.117,0-0.262-0.002-0.432-0.01
			C156.849,5.463,156.706,5.453,156.587,5.439z"/>
	</g>
	<g>
		<path fill="#1A171B" d="M45.01,25.256c0.051-0.008,0.113-0.014,0.186-0.018c0.072-0.003,0.139-0.005,0.197-0.005
			c0.066,0,0.131,0.002,0.197,0.005c0.066,0.004,0.125,0.01,0.176,0.018v7.882c-0.051,0.007-0.109,0.013-0.176,0.017
			s-0.131,0.006-0.197,0.006c-0.072,0-0.145-0.002-0.213-0.006c-0.07-0.004-0.127-0.01-0.17-0.017V25.256z M46.281,29.104
			l2.773-3.848c0.059-0.008,0.119-0.014,0.182-0.018c0.061-0.003,0.121-0.005,0.18-0.005c0.08,0,0.158,0.002,0.23,0.005
			c0.072,0.004,0.15,0.01,0.23,0.018l-2.697,3.771l3.113,4.111c-0.08,0.007-0.162,0.013-0.246,0.017s-0.166,0.006-0.246,0.006
			c-0.066,0-0.135-0.002-0.203-0.006c-0.07-0.004-0.137-0.01-0.203-0.017L46.281,29.104z"/>
		<path fill="#1A171B" d="M54.447,29.443c0-0.482-0.113-0.835-0.34-1.059c-0.227-0.223-0.562-0.334-1.008-0.334
			c-0.293,0-0.559,0.021-0.801,0.061c-0.24,0.04-0.457,0.09-0.646,0.148c-0.037-0.066-0.068-0.161-0.094-0.285
			c-0.025-0.125-0.037-0.242-0.037-0.352c0.189-0.059,0.424-0.107,0.701-0.148c0.277-0.039,0.562-0.06,0.855-0.06
			c0.709,0,1.234,0.155,1.578,0.466s0.516,0.799,0.516,1.464v3.694c-0.256,0.051-0.566,0.102-0.932,0.153s-0.713,0.077-1.041,0.077
			c-0.68,0-1.217-0.135-1.607-0.406c-0.391-0.27-0.586-0.709-0.586-1.315c0-0.292,0.057-0.554,0.17-0.784
			c0.113-0.229,0.27-0.424,0.471-0.58c0.201-0.158,0.443-0.276,0.725-0.357c0.281-0.08,0.59-0.12,0.926-0.12
			c0.264,0,0.49,0.009,0.68,0.028c0.189,0.018,0.348,0.034,0.471,0.049V29.443z M54.447,30.419c-0.123-0.015-0.279-0.031-0.465-0.05
			c-0.188-0.018-0.363-0.027-0.531-0.027c-0.549,0-0.973,0.103-1.271,0.307c-0.301,0.205-0.451,0.498-0.451,0.878
			c0,0.241,0.047,0.435,0.139,0.581c0.09,0.146,0.209,0.258,0.355,0.334s0.307,0.128,0.482,0.154
			c0.176,0.025,0.352,0.037,0.525,0.037c0.227,0,0.439-0.01,0.637-0.032s0.391-0.052,0.58-0.088V30.419z"/>
		<path fill="#1A171B" d="M56.992,27.547c0.059-0.008,0.115-0.014,0.17-0.017c0.055-0.004,0.107-0.006,0.158-0.006
			c0.059,0,0.113,0.002,0.164,0.006c0.051,0.003,0.105,0.009,0.164,0.017c0.016,0.131,0.027,0.296,0.033,0.493
			c0.008,0.197,0.012,0.369,0.012,0.515c0.072-0.131,0.168-0.264,0.285-0.4c0.117-0.135,0.254-0.257,0.41-0.367
			c0.158-0.109,0.338-0.198,0.543-0.268c0.205-0.07,0.428-0.104,0.67-0.104c0.643,0,1.109,0.192,1.402,0.575
			c0.293,0.384,0.439,0.924,0.439,1.617v3.53c-0.045,0.007-0.105,0.013-0.182,0.017s-0.137,0.006-0.182,0.006
			c-0.035,0-0.094-0.002-0.174-0.006c-0.082-0.004-0.143-0.01-0.188-0.017v-3.312c0-0.621-0.096-1.066-0.291-1.337
			c-0.193-0.271-0.484-0.405-0.871-0.405c-0.256,0-0.496,0.051-0.723,0.153s-0.422,0.251-0.588,0.444
			c-0.164,0.193-0.293,0.433-0.389,0.718s-0.143,0.61-0.143,0.976v2.763c-0.043,0.007-0.104,0.013-0.18,0.017
			c-0.078,0.004-0.139,0.006-0.182,0.006c-0.037,0-0.096-0.002-0.176-0.006s-0.143-0.01-0.186-0.017V27.547z"/>
		<path fill="#1A171B" d="M63.514,28.16h-0.953c-0.008-0.036-0.014-0.084-0.016-0.143c-0.004-0.059-0.006-0.116-0.006-0.175
			s0.002-0.113,0.006-0.165c0.002-0.051,0.008-0.095,0.016-0.131h0.953v-1.053l0.68-0.669h0.045v1.722h1.512
			c0.008,0.036,0.014,0.08,0.018,0.131c0.004,0.052,0.006,0.106,0.006,0.165s-0.002,0.116-0.006,0.175s-0.01,0.106-0.018,0.143
			h-1.512v3.641c0,0.182,0.023,0.326,0.07,0.433c0.049,0.106,0.109,0.188,0.188,0.247c0.076,0.059,0.164,0.096,0.262,0.115
			c0.1,0.018,0.199,0.027,0.303,0.027c0.256,0,0.479-0.033,0.668-0.1c0.051,0.19,0.088,0.395,0.109,0.614
			c-0.262,0.081-0.57,0.12-0.92,0.12c-0.418,0-0.756-0.111-1.014-0.334c-0.26-0.223-0.391-0.586-0.391-1.091V28.16z"/>
		<path fill="#1A171B" d="M69.16,33.27c-0.416,0-0.781-0.075-1.096-0.225c-0.314-0.15-0.576-0.357-0.783-0.619
			c-0.209-0.264-0.365-0.574-0.467-0.933s-0.154-0.741-0.154-1.151c0-0.408,0.053-0.793,0.154-1.15
			c0.102-0.358,0.258-0.669,0.467-0.932c0.207-0.264,0.469-0.471,0.783-0.62s0.68-0.225,1.096-0.225s0.781,0.075,1.092,0.225
			s0.571,0.356,0.778,0.62c0.209,0.263,0.365,0.573,0.473,0.932c0.105,0.357,0.158,0.742,0.158,1.15c0,0.41-0.053,0.793-0.158,1.151
			c-0.107,0.358-0.264,0.669-0.473,0.933c-0.207,0.262-0.467,0.469-0.778,0.619C69.941,33.194,69.576,33.27,69.16,33.27z
			 M69.16,32.633c0.586,0,1.021-0.204,1.311-0.613c0.29-0.409,0.434-0.969,0.434-1.678s-0.145-1.268-0.434-1.678
			c-0.289-0.408-0.725-0.613-1.311-0.613c-0.584,0-1.021,0.205-1.311,0.613c-0.287,0.41-0.432,0.969-0.432,1.678
			s0.145,1.269,0.432,1.678C68.139,32.429,68.576,32.633,69.16,32.633z"/>
		<path fill="#1A171B" d="M73.272,27.547c0.059-0.008,0.115-0.014,0.17-0.017c0.055-0.004,0.107-0.006,0.158-0.006
			c0.059,0,0.113,0.002,0.164,0.006c0.051,0.003,0.105,0.009,0.164,0.017c0.016,0.131,0.027,0.296,0.033,0.493
			c0.008,0.197,0.012,0.369,0.012,0.515c0.072-0.131,0.168-0.264,0.285-0.4c0.117-0.135,0.254-0.257,0.41-0.367
			c0.158-0.109,0.338-0.198,0.543-0.268c0.205-0.07,0.428-0.104,0.67-0.104c0.643,0,1.109,0.192,1.402,0.575
			c0.293,0.384,0.439,0.924,0.439,1.617v3.53c-0.045,0.007-0.105,0.013-0.182,0.017s-0.137,0.006-0.182,0.006
			c-0.035,0-0.094-0.002-0.174-0.006c-0.082-0.004-0.143-0.01-0.188-0.017v-3.312c0-0.621-0.096-1.066-0.291-1.337
			c-0.193-0.271-0.484-0.405-0.871-0.405c-0.256,0-0.496,0.051-0.723,0.153s-0.422,0.251-0.588,0.444
			c-0.164,0.193-0.293,0.433-0.389,0.718s-0.143,0.61-0.143,0.976v2.763c-0.043,0.007-0.104,0.013-0.18,0.017
			c-0.078,0.004-0.139,0.006-0.182,0.006c-0.037,0-0.096-0.002-0.176-0.006s-0.143-0.01-0.186-0.017V27.547z"/>
		<path fill="#1A171B" d="M81.472,33.05l4.463-7.104h-3.826c-0.008-0.035-0.014-0.087-0.018-0.152
			c-0.002-0.066-0.004-0.129-0.004-0.188c0-0.058,0.002-0.121,0.004-0.191c0.004-0.069,0.01-0.122,0.018-0.158h5.01l0.055,0.076
			l-4.494,7.115h4.133c0.008,0.037,0.012,0.092,0.016,0.164c0.004,0.073,0.006,0.139,0.006,0.197s-0.002,0.119-0.006,0.182
			c-0.004,0.062-0.008,0.111-0.016,0.147h-5.285L81.472,33.05z"/>
		<path fill="#1A171B" d="M88.323,27.547c0.045-0.008,0.105-0.014,0.188-0.017c0.08-0.004,0.139-0.006,0.174-0.006
			c0.045,0,0.105,0.002,0.182,0.006c0.076,0.003,0.137,0.009,0.182,0.017v3.146c0,0.395,0.039,0.718,0.119,0.97
			c0.082,0.253,0.199,0.45,0.357,0.593c0.156,0.142,0.35,0.24,0.576,0.295s0.482,0.082,0.766,0.082c0.242,0,0.457-0.012,0.648-0.037
			c0.189-0.026,0.357-0.061,0.504-0.105v-4.943c0.043-0.008,0.105-0.014,0.186-0.017c0.08-0.004,0.139-0.006,0.176-0.006
			c0.045,0,0.104,0.002,0.182,0.006c0.076,0.003,0.137,0.009,0.18,0.017v5.448c-0.27,0.073-0.572,0.138-0.904,0.192
			s-0.674,0.082-1.025,0.082c-0.344,0-0.666-0.033-0.969-0.1c-0.305-0.064-0.566-0.191-0.789-0.377
			c-0.225-0.188-0.4-0.445-0.533-0.773c-0.131-0.329-0.197-0.756-0.197-1.283V27.547z M89.112,26.418
			c-0.021-0.154-0.031-0.308-0.031-0.461c0-0.16,0.01-0.318,0.031-0.472c0.139-0.022,0.285-0.032,0.439-0.032
			c0.152,0,0.303,0.01,0.449,0.032c0.021,0.153,0.033,0.308,0.033,0.46c0,0.162-0.012,0.318-0.033,0.473
			c-0.146,0.021-0.293,0.032-0.438,0.032C89.401,26.45,89.251,26.439,89.112,26.418z M91.206,26.418
			c-0.021-0.154-0.031-0.308-0.031-0.461c0-0.16,0.01-0.318,0.031-0.472c0.141-0.022,0.285-0.032,0.439-0.032
			s0.303,0.01,0.449,0.032c0.021,0.153,0.033,0.308,0.033,0.46c0,0.162-0.012,0.318-0.033,0.473
			c-0.146,0.021-0.293,0.032-0.438,0.032C91.495,26.45,91.347,26.439,91.206,26.418z"/>
		<path fill="#1A171B" d="M94.671,27.547c0.059-0.008,0.115-0.014,0.17-0.017c0.055-0.004,0.107-0.006,0.16-0.006
			c0.057,0,0.113,0.002,0.164,0.006c0.051,0.003,0.105,0.009,0.164,0.017c0.014,0.131,0.025,0.287,0.033,0.466
			s0.01,0.341,0.01,0.487c0.146-0.27,0.352-0.498,0.615-0.686c0.262-0.186,0.609-0.279,1.041-0.279c0.037,0,0.074,0,0.115,0
			c0.039,0,0.086,0.004,0.137,0.012c0.021,0.124,0.033,0.24,0.033,0.351c0,0.116-0.012,0.229-0.033,0.34
			c-0.059-0.007-0.104-0.011-0.137-0.011s-0.068,0-0.104,0c-0.498,0-0.896,0.156-1.195,0.471c-0.301,0.314-0.449,0.838-0.449,1.568
			v2.872c-0.045,0.007-0.105,0.013-0.182,0.017s-0.137,0.006-0.182,0.006c-0.035,0-0.094-0.002-0.174-0.006
			c-0.082-0.004-0.143-0.01-0.188-0.017V27.547z"/>
		<path fill="#1A171B" d="M98.849,28.16h-0.703c-0.006-0.036-0.012-0.08-0.016-0.131s-0.006-0.106-0.006-0.165
			c0-0.058,0.002-0.116,0.006-0.175s0.01-0.106,0.016-0.143h1.426v5.591c-0.043,0.007-0.104,0.013-0.18,0.017
			c-0.078,0.004-0.139,0.006-0.182,0.006c-0.037,0-0.096-0.002-0.176-0.006s-0.143-0.01-0.186-0.017V28.16z M98.485,26.176
			c-0.006-0.065-0.012-0.146-0.016-0.24c-0.004-0.096-0.006-0.176-0.006-0.242c0-0.059,0.002-0.131,0.006-0.219
			s0.01-0.16,0.016-0.219c0.066-0.008,0.146-0.014,0.242-0.018c0.096-0.003,0.176-0.005,0.24-0.005c0.059,0,0.133,0.002,0.221,0.005
			c0.088,0.004,0.16,0.01,0.219,0.018c0.008,0.059,0.012,0.131,0.016,0.219s0.006,0.16,0.006,0.219c0,0.066-0.002,0.146-0.006,0.242
			c-0.004,0.095-0.008,0.175-0.016,0.24c-0.059,0.008-0.131,0.014-0.219,0.017c-0.088,0.004-0.162,0.006-0.221,0.006
			c-0.064,0-0.145-0.002-0.24-0.006C98.632,26.189,98.552,26.184,98.485,26.176z"/>
		<path fill="#1A171B" d="M105.206,32.436c0.037,0.074,0.072,0.172,0.105,0.297c0.033,0.124,0.057,0.227,0.07,0.307
			c-0.182,0.066-0.391,0.121-0.625,0.164c-0.234,0.045-0.492,0.066-0.777,0.066c-0.914,0-1.609-0.25-2.084-0.752
			c-0.475-0.5-0.713-1.225-0.713-2.176c0-0.416,0.059-0.802,0.176-1.156s0.289-0.663,0.516-0.926c0.227-0.264,0.51-0.471,0.85-0.62
			s0.732-0.225,1.178-0.225c0.279,0,0.543,0.021,0.795,0.06c0.254,0.041,0.451,0.087,0.598,0.138c0,0.095-0.012,0.204-0.037,0.329
			c-0.025,0.124-0.055,0.223-0.082,0.296c-0.146-0.052-0.332-0.095-0.555-0.132c-0.223-0.036-0.463-0.055-0.719-0.055
			c-0.328,0-0.615,0.057-0.859,0.17c-0.246,0.113-0.449,0.272-0.613,0.477c-0.166,0.205-0.287,0.446-0.369,0.725
			c-0.08,0.277-0.119,0.584-0.119,0.92c0,0.789,0.188,1.369,0.564,1.738c0.375,0.369,0.885,0.553,1.529,0.553
			c0.219,0,0.43-0.018,0.631-0.055C104.864,32.542,105.046,32.494,105.206,32.436z"/>
		<path fill="#1A171B" d="M106.765,25.08c0.043-0.008,0.104-0.013,0.18-0.017c0.078-0.003,0.137-0.005,0.182-0.005
			c0.037,0,0.096,0.002,0.176,0.005c0.08,0.004,0.143,0.009,0.186,0.017v3.465c0.074-0.133,0.168-0.266,0.285-0.4
			c0.117-0.136,0.252-0.258,0.406-0.367c0.152-0.11,0.326-0.197,0.52-0.264c0.195-0.066,0.408-0.099,0.643-0.099
			c0.643,0,1.115,0.192,1.42,0.575c0.303,0.384,0.455,0.924,0.455,1.617v3.53c-0.045,0.007-0.105,0.013-0.182,0.017
			s-0.137,0.006-0.182,0.006c-0.035,0-0.094-0.002-0.174-0.006c-0.082-0.004-0.143-0.01-0.188-0.017v-3.312
			c0-0.621-0.102-1.066-0.307-1.337s-0.5-0.405-0.889-0.405c-0.256,0-0.494,0.047-0.717,0.143c-0.225,0.095-0.416,0.235-0.576,0.422
			c-0.16,0.186-0.287,0.42-0.379,0.701s-0.137,0.605-0.137,0.971v2.817c-0.043,0.007-0.104,0.013-0.18,0.017
			c-0.078,0.004-0.139,0.006-0.182,0.006c-0.037,0-0.096-0.002-0.176-0.006s-0.143-0.01-0.186-0.017V25.08z"/>
	</g>
</g>
</svg>
