<?xml version="1.0" encoding="UTF-8" standalone="no"?>
<!-- Created using Karbon, part of Calligra: http://www.calligra.org/karbon -->

<svg
   xmlns:dc="http://purl.org/dc/elements/1.1/"
   xmlns:cc="http://creativecommons.org/ns#"
   xmlns:rdf="http://www.w3.org/1999/02/22-rdf-syntax-ns#"
   xmlns:svg="http://www.w3.org/2000/svg"
   xmlns="http://www.w3.org/2000/svg"
   xmlns:sodipodi="http://sodipodi.sourceforge.net/DTD/sodipodi-0.dtd"
   xmlns:inkscape="http://www.inkscape.org/namespaces/inkscape"
   width="161.53"
   height="36.849998"
   id="svg2"
   version="1.1"
   inkscape:version="0.48.3.1 r9886"
   sodipodi:docname="ppLogo-ppti.svg"
   style="stroke-width:0">
  <metadata
     id="metadata34">
    <rdf:RDF>
      <cc:Work
         rdf:about="">
        <dc:format>image/svg+xml</dc:format>
        <dc:type
           rdf:resource="http://purl.org/dc/dcmitype/StillImage" />
      </cc:Work>
    </rdf:RDF>
  </metadata>
  <sodipodi:namedview
     pagecolor="#ffffff"
     bordercolor="#666666"
     borderopacity="1"
     objecttolerance="10"
     gridtolerance="10"
     guidetolerance="10"
     inkscape:pageopacity="0"
     inkscape:pageshadow="2"
     inkscape:window-width="1680"
     inkscape:window-height="988"
     id="namedview32"
     showgrid="false"
     inkscape:zoom="9.4623901"
     inkscape:cx="80.740965"
     inkscape:cy="18.428171"
     inkscape:window-x="-4"
     inkscape:window-y="0"
     inkscape:window-maximized="1"
     inkscape:current-layer="svg2" />
  <defs
     id="defs4" />
  <g
     id="g3044"
     transform="translate(-33.465735,-38.271167)">
    <g
       id="g3402"
       transform="translate(33.466,38.268)"
       style="fill:none">
      <circle
         id="circle3404"
         transform="translate(2.539,2.535)"
         r="15.889999"
         cx="15.889999"
         cy="15.889999"
         d="m 31.779999,15.889999 c 0,8.775805 -7.114195,15.89 -15.89,15.89 C 7.1141951,31.779999 0,24.665804 0,15.889999 0,7.1141951 7.1141951,0 15.889999,0 c 8.775805,0 15.89,7.1141951 15.89,15.889999 z"
         style="fill:#ffffff"
         sodipodi:cx="15.889999"
         sodipodi:cy="15.889999"
         sodipodi:rx="15.889999"
         sodipodi:ry="15.889999" />
      <path
         id="path3406"
         transform="translate(1.351,1.35)"
         d="M 17.077,0 C 7.647,0 0,7.642 0,17.075 0,26.504 7.647,34.15 17.077,34.15 26.509,34.15 34.156,26.504 34.156,17.075 34.156,7.642 26.508,0 17.077,0 z m 0,32.396 c -8.46,0 -15.321,-6.859 -15.321,-15.32 0,-8.461 6.861,-15.32 15.321,-15.32 8.465,0 15.323,6.859 15.323,15.32 0,8.461 -6.859,15.32 -15.323,15.32 z"
         style="fill:#1a171b"
         inkscape:connector-curvature="0" />
      <path
         id="path3408"
         transform="translate(10.256,7.188)"
         d="M 15.473,2.738 C 11.777,0.667 7.148,0.649 3.476,1.59 l 0,-1.59 -1.595,0 0,2.078 C 1.197,2.325 0.564,2.605 0,2.91 0,2.91 0.793,2.812 1.881,2.879 l 0,13.896 c -0.792,1.221 -0.982,2.408 -0.796,3.777 0.211,1.531 1.367,2.554 2.277,3.311 -0.536,-1.545 -0.576,-2.95 -0.419,-3.801 0.301,-1.588 1.232,-2.729 5.252,-3.6 4.171,-0.898 9.112,-1.315 10.745,-5.364 0.745,-1.85 1.207,-5.736 -3.467,-8.36 z M 5.725,13.19 c -0.894,0.627 -1.637,1.212 -2.249,1.771 l 0,-11.873 c 1.242,0.263 2.557,0.801 3.463,1.867 2.23,2.633 1.474,6.35 -1.214,8.235 z"
         style="fill:#1a171b"
         inkscape:connector-curvature="0" />
      <g
         id="g3410"
         style="fill:none">
        <path
           id="path3412"
           d="M 0,18.425 C 0,8.245 8.252,0 18.428,0 l 0,0 c 10.177,0 18.429,8.245 18.43,18.425 l 0,0 C 36.857,28.599 28.605,36.85 18.428,36.85 l 0,0 C 8.252,36.85 0,28.599 0,18.425 z M 5.635,5.631 c -3.274,3.274 -5.3,7.796 -5.3,12.794 l 0,0 c 0,4.995 2.025,9.517 5.3,12.791 l 0,0 c 3.275,3.274 7.797,5.3 12.793,5.3 l 0,0 c 4.996,0 9.52,-2.025 12.794,-5.3 l 0,0 c 3.275,-3.274 5.301,-7.796 5.301,-12.791 l 0,0 c 0,-4.998 -2.025,-9.52 -5.301,-12.794 l 0,0 C 27.948,2.358 23.424,0.334 18.428,0.334 l 0,0 C 13.431,0.335 8.91,2.358 5.635,5.631 z"
           style="fill:#1a171b"
           inkscape:connector-curvature="0" />
      </g>
    </g>
    <g
       id="g3819"
       transform="translate(78.2824,40.9236)"
       style="fill:none">
      <path
         id="path3658"
         transform="translate(0,4.688)"
         d="M 1.398,9.648 C 1.72,9.775 2.054,9.87 2.4,9.933 c 0.344,0.063 0.806,0.095 1.383,0.095 0.549,0 1.07,-0.088 1.562,-0.264 C 5.838,9.588 6.267,9.31 6.634,8.93 6.999,8.549 7.287,8.068 7.499,7.483 7.71,6.9 7.816,6.201 7.816,5.383 7.816,4.088 7.572,3.074 7.087,2.343 6.602,1.611 5.816,1.244 4.733,1.244 4.397,1.244 4.03,1.301 3.635,1.413 3.24,1.525 2.879,1.72 2.548,1.994 2.217,2.267 1.944,2.628 1.725,3.07 1.506,3.513 1.399,4.074 1.399,4.75 l 0,4.898 z M 0.003,0.252 C 0.087,0.238 0.192,0.228 0.319,0.221 0.446,0.213 0.551,0.21 0.635,0.21 0.72,0.21 0.824,0.213 0.951,0.221 1.079,0.228 1.183,0.239 1.269,0.252 L 1.396,1.73 C 1.691,1.28 2.117,0.879 2.672,0.527 3.228,0.175 3.948,0 4.836,0 5.497,0 6.103,0.103 6.651,0.307 7.199,0.511 7.668,0.831 8.055,1.267 8.442,1.704 8.744,2.252 8.963,2.914 9.182,3.576 9.289,4.371 9.289,5.299 9.289,6.228 9.163,7.062 8.91,7.801 8.656,8.54 8.287,9.167 7.801,9.68 7.317,10.194 6.717,10.588 6.007,10.862 5.296,11.137 4.483,11.274 3.569,11.274 3.231,11.274 2.864,11.247 2.47,11.19 2.076,11.134 1.717,11.049 1.395,10.936 l 0,5.067 c -0.086,0.014 -0.205,0.024 -0.361,0.033 -0.153,0.006 -0.266,0.009 -0.336,0.009 -0.086,0 -0.2,-0.003 -0.35,-0.009 C 0.2,16.027 0.084,16.016 0,16.003 L 0,0.252 z"
         style="fill:#1a171b"
         inkscape:connector-curvature="0" />
      <path
         id="path3660"
         transform="translate(11.45,4.686)"
         d="M 6.629,5.785 C 6.39,5.758 6.091,5.726 5.733,5.691 5.374,5.656 5.032,5.637 4.709,5.637 3.653,5.637 2.837,5.834 2.26,6.229 1.683,6.623 1.394,7.186 1.394,7.917 c 0,0.464 0.088,0.838 0.264,1.119 0.177,0.281 0.404,0.496 0.687,0.644 0.282,0.148 0.591,0.246 0.929,0.297 0.338,0.049 0.676,0.072 1.014,0.072 0.437,0 0.845,-0.021 1.225,-0.062 0.38,-0.041 0.753,-0.099 1.119,-0.169 l 0,-4.033 z m 0,-1.878 C 6.629,2.978 6.41,2.299 5.974,1.869 5.537,1.44 4.891,1.225 4.032,1.225 3.47,1.225 2.956,1.263 2.491,1.341 2.028,1.418 1.612,1.513 1.245,1.625 1.176,1.499 1.116,1.316 1.067,1.077 1.016,0.837 0.993,0.612 0.993,0.401 1.358,0.288 1.808,0.194 2.344,0.116 2.879,0.039 3.428,0 3.991,0 5.356,0 6.37,0.299 7.03,0.897 7.692,1.495 8.022,2.435 8.022,3.714 l 0,7.115 c -0.492,0.099 -1.09,0.197 -1.794,0.296 -0.704,0.099 -1.372,0.148 -2.006,0.148 -1.31,0 -2.34,-0.262 -3.093,-0.781 C 0.376,9.971 0,9.127 0,7.959 0,7.396 0.107,6.893 0.326,6.448 0.545,6.006 0.847,5.632 1.234,5.329 1.621,5.027 2.087,4.799 2.629,4.643 3.17,4.489 3.764,4.411 4.412,4.411 c 0.507,0 0.943,0.02 1.309,0.053 0.366,0.035 0.669,0.067 0.908,0.096 z"
         style="fill:#1a171b"
         inkscape:connector-curvature="0" />
      <path
         id="path3662"
         transform="translate(22.978,4.898)"
         d="M 0,0.042 C 0.111,0.028 0.221,0.018 0.326,0.011 0.432,0.003 0.534,0 0.633,0 0.746,0 0.852,0.003 0.949,0.011 1.047,0.018 1.153,0.029 1.266,0.042 1.294,0.296 1.315,0.595 1.329,0.939 1.343,1.285 1.35,1.597 1.35,1.878 1.63,1.357 2.026,0.917 2.532,0.559 3.039,0.201 3.707,0.021 4.539,0.021 l 0.221,0 c 0.078,0 0.166,0.007 0.265,0.021 0.042,0.24 0.063,0.465 0.063,0.676 0,0.225 -0.021,0.443 -0.063,0.654 C 4.913,1.358 4.824,1.351 4.76,1.351 l -0.2,0 C 3.603,1.351 2.836,1.653 2.258,2.258 1.682,2.863 1.393,3.87 1.393,5.278 l 0,5.531 c -0.084,0.015 -0.2,0.024 -0.348,0.032 -0.148,0.006 -0.265,0.01 -0.349,0.01 -0.071,0 -0.185,-0.004 -0.338,-0.01 C 0.203,10.833 0.084,10.823 0,10.809 z"
         style="fill:#1a171b"
         inkscape:connector-curvature="0" />
      <path
         id="path3664"
         transform="translate(28.973,1.627)"
         d="m 1.88,4.496 -1.838,0 C 0.028,4.425 0.017,4.334 0.011,4.221 0.003,4.11 0,3.997 0,3.883 0,3.772 0.003,3.665 0.011,3.568 0.017,3.469 0.029,3.384 0.042,3.314 l 1.838,0 0,-2.026 L 3.189,0 l 0.085,0 0,3.314 2.913,0 c 0.014,0.07 0.023,0.155 0.031,0.254 0.006,0.098 0.01,0.204 0.01,0.315 0,0.114 -0.004,0.227 -0.01,0.338 C 6.21,4.334 6.2,4.425 6.187,4.496 l -2.913,0 0,7.009 c 0,0.353 0.045,0.63 0.137,0.834 0.091,0.205 0.211,0.363 0.358,0.476 0.147,0.113 0.316,0.187 0.508,0.222 0.189,0.036 0.383,0.053 0.58,0.053 0.492,0 0.921,-0.062 1.287,-0.189 0.099,0.366 0.17,0.76 0.211,1.182 -0.506,0.155 -1.098,0.232 -1.772,0.232 -0.803,0 -1.454,-0.215 -1.952,-0.645 -0.5,-0.428 -0.75,-1.129 -0.75,-2.1 l 0,-7.074 z"
         style="fill:#1a171b"
         inkscape:connector-curvature="0" />
      <path
         id="path3666"
         transform="translate(36.785,0.485)"
         d="M 0.696,1.816 C 0.681,1.689 0.672,1.535 0.663,1.351 0.657,1.168 0.653,1.013 0.653,0.887 0.653,0.774 0.657,0.633 0.663,0.464 0.672,0.295 0.682,0.155 0.696,0.042 0.823,0.027 0.977,0.017 1.159,0.01 1.343,0.003 1.498,0 1.625,0 1.737,0 1.879,0.003 2.047,0.01 2.216,0.017 2.357,0.028 2.47,0.042 2.484,0.155 2.493,0.295 2.501,0.464 2.508,0.633 2.512,0.774 2.512,0.887 2.512,1.013 2.508,1.168 2.501,1.351 2.493,1.535 2.483,1.689 2.47,1.816 2.357,1.83 2.216,1.84 2.047,1.847 1.879,1.855 1.737,1.857 1.625,1.857 1.498,1.857 1.343,1.855 1.159,1.847 0.977,1.841 0.823,1.83 0.696,1.816 m 0.697,3.822 -1.35,0 C 0.029,5.567 0.018,5.483 0.011,5.385 0.004,5.286 0,5.181 0,5.068 0,4.956 0.004,4.843 0.011,4.73 0.018,4.618 0.03,4.526 0.043,4.456 l 2.744,0 0,10.768 c -0.084,0.014 -0.2,0.025 -0.348,0.032 -0.148,0.007 -0.265,0.01 -0.35,0.01 -0.07,0 -0.184,-0.003 -0.337,-0.01 C 1.597,15.249 1.478,15.237 1.393,15.224 z"
         style="fill:#1a171b"
         inkscape:connector-curvature="0" />
      <path
         id="path3668"
         transform="translate(41.893,1.627)"
         d="m 1.879,4.496 -1.837,0 C 0.028,4.425 0.018,4.334 0.012,4.221 0.004,4.11 0,3.997 0,3.883 0,3.772 0.004,3.665 0.012,3.568 0.018,3.469 0.029,3.384 0.042,3.314 l 1.837,0 0,-2.026 L 3.188,0 l 0.084,0 0,3.314 2.914,0 c 0.015,0.07 0.024,0.155 0.033,0.254 0.006,0.098 0.01,0.204 0.01,0.315 0,0.114 -0.004,0.227 -0.01,0.338 C 6.21,4.334 6.2,4.425 6.186,4.496 l -2.914,0 0,7.009 c 0,0.353 0.047,0.63 0.138,0.834 0.092,0.205 0.212,0.363 0.36,0.476 0.146,0.112 0.315,0.187 0.506,0.222 0.189,0.036 0.384,0.053 0.58,0.053 0.492,0 0.923,-0.062 1.287,-0.189 0.1,0.366 0.17,0.76 0.211,1.182 C 5.848,14.238 5.258,14.315 4.582,14.315 3.78,14.315 3.13,14.1 2.63,13.67 2.13,13.242 1.88,12.541 1.88,11.57 l 0,-7.074 z"
         style="fill:#1a171b"
         inkscape:connector-curvature="0" />
      <path
         id="path3670"
         transform="translate(49.831,4.687)"
         d="M 4.814,10.05 C 5.94,10.05 6.781,9.655 7.337,8.867 7.893,8.08 8.171,7.003 8.171,5.637 8.171,4.272 7.893,3.195 7.337,2.407 6.78,1.619 5.94,1.225 4.814,1.225 3.688,1.225 2.847,1.619 2.291,2.407 1.735,3.195 1.457,4.272 1.457,5.637 c 0,1.366 0.277,2.443 0.834,3.23 0.556,0.789 1.397,1.183 2.523,1.183 m 0,1.224 C 4.011,11.274 3.308,11.13 2.703,10.841 2.098,10.553 1.594,10.154 1.193,9.649 0.793,9.142 0.492,8.545 0.297,7.854 0.099,7.166 0,6.426 0,5.637 0,4.849 0.099,4.11 0.297,3.421 0.492,2.731 0.793,2.132 1.193,1.626 1.593,1.119 2.097,0.722 2.703,0.433 3.308,0.145 4.012,0 4.814,0 5.616,0 6.316,0.145 6.916,0.433 7.514,0.722 8.014,1.12 8.414,1.626 8.815,2.132 9.117,2.73 9.322,3.421 c 0.204,0.688 0.307,1.428 0.307,2.216 0,0.789 -0.103,1.528 -0.307,2.217 -0.205,0.69 -0.507,1.288 -0.908,1.795 -0.4,0.506 -0.9,0.904 -1.498,1.192 -0.6,0.289 -1.3,0.433 -2.102,0.433"
         style="fill:#1a171b"
         inkscape:connector-curvature="0" />
      <path
         id="path3672"
         transform="translate(61.899,4.539)"
         d="M 2.999,8.847 C 3.379,8.958 3.814,9.015 4.309,9.015 5.18,9.015 5.85,8.734 6.315,8.17 6.778,7.608 7.01,6.756 7.01,5.615 7.01,5.179 6.975,4.774 6.906,4.401 6.835,4.028 6.716,3.708 6.547,3.44 6.378,3.173 6.163,2.962 5.903,2.807 5.641,2.652 5.322,2.575 4.942,2.575 4.59,2.575 4.291,2.642 4.045,2.775 3.799,2.909 3.599,3.092 3.442,3.324 3.288,3.556 3.175,3.828 3.104,4.137 3.035,4.447 3,4.778 3,5.129 L 3,8.847 z M 0.001,0.232 C 0.198,0.19 0.391,0.162 0.582,0.148 0.771,0.134 0.986,0.127 1.227,0.127 1.62,0.127 2.022,0.169 2.43,0.253 2.471,0.323 2.51,0.426 2.545,0.56 2.58,0.694 2.615,0.838 2.65,0.992 2.685,1.147 2.713,1.299 2.734,1.446 2.755,1.594 2.773,1.718 2.788,1.815 2.914,1.591 3.068,1.369 3.252,1.151 3.436,0.932 3.657,0.739 3.917,0.57 4.178,0.401 4.469,0.264 4.794,0.158 5.117,0.054 5.477,0 5.87,0 c 0.604,0 1.172,0.113 1.7,0.339 0.527,0.225 0.988,0.565 1.383,1.023 0.395,0.457 0.699,1.031 0.918,1.721 0.218,0.689 0.327,1.507 0.327,2.449 0,0.915 -0.134,1.734 -0.401,2.459 C 9.53,8.717 9.143,9.332 8.637,9.84 8.129,10.346 7.51,10.736 6.778,11.011 6.047,11.284 5.216,11.423 4.288,11.423 4.049,11.423 3.813,11.411 3.58,11.391 3.349,11.37 3.155,11.345 3,11.317 l 0,4.856 C 2.731,16.215 2.476,16.242 2.229,16.258 1.983,16.272 1.74,16.279 1.5,16.279 1.26,16.279 1.018,16.272 0.771,16.258 0.525,16.242 0.267,16.215 0,16.173 L 0,0.232 z"
         style="fill:#f9b200"
         inkscape:connector-curvature="0" />
      <path
         id="path3674"
         transform="translate(73.491,0)"
         d="M 1.098,2.956 C 1.013,2.477 0.971,2.006 0.971,1.542 0.971,1.092 1.013,0.62 1.098,0.127 1.337,0.084 1.594,0.053 1.868,0.032 2.143,0.011 2.393,0 2.618,0 2.858,0 3.118,0.011 3.399,0.032 3.681,0.053 3.942,0.084 4.18,0.127 4.223,0.366 4.25,0.602 4.265,0.835 4.278,1.066 4.286,1.302 4.286,1.542 4.286,1.767 4.278,1.999 4.265,2.238 4.25,2.476 4.223,2.717 4.18,2.956 3.942,2.998 3.684,3.026 3.41,3.041 3.135,3.054 2.878,3.061 2.639,3.061 2.414,3.061 2.16,3.054 1.879,3.041 1.597,3.026 1.337,2.998 1.098,2.956 m 0.443,4.117 -1.414,0 C 0.084,6.889 0.053,6.696 0.031,6.493 0.01,6.289 0,6.095 0,5.912 0,5.531 0.042,5.159 0.127,4.793 l 4.35,0 0,10.915 c -0.508,0.084 -1,0.127 -1.479,0.127 -0.465,0 -0.95,-0.043 -1.457,-0.127 z"
         style="fill:#f9b200"
         inkscape:connector-curvature="0" />
      <path
         id="path3676"
         transform="translate(80.921,4.665)"
         d="M 0.002,0.128 C 0.213,0.086 0.412,0.054 0.604,0.033 0.793,0.012 1,0.001 1.227,0.001 1.438,0.001 1.645,0.015 1.85,0.043 2.053,0.072 2.254,0.107 2.452,0.149 2.495,0.218 2.532,0.321 2.567,0.455 2.602,0.589 2.634,0.73 2.663,0.877 2.69,1.025 2.716,1.173 2.737,1.32 2.758,1.467 2.775,1.591 2.79,1.69 3.099,1.253 3.478,0.863 3.93,0.517 4.38,0.173 4.945,0 5.618,0 5.76,0 5.921,0.007 6.104,0.021 6.286,0.036 6.42,0.055 6.505,0.084 c 0.028,0.14 0.049,0.302 0.063,0.486 0.014,0.183 0.021,0.372 0.021,0.568 0,0.24 -0.011,0.5 -0.031,0.781 C 6.536,2.201 6.498,2.468 6.441,2.722 6.286,2.694 6.114,2.68 5.924,2.68 l -0.348,0 C 5.336,2.68 5.068,2.704 4.773,2.753 4.477,2.803 4.195,2.933 3.928,3.145 3.659,3.356 3.439,3.672 3.263,4.095 3.087,4.518 2.999,5.108 2.999,5.867 l 0,5.195 C 2.745,11.104 2.493,11.13 2.239,11.146 1.985,11.16 1.739,11.167 1.499,11.167 1.26,11.167 1.018,11.16 0.771,11.146 0.524,11.13 0.267,11.104 0,11.062 L 0,0.128 z"
         style="fill:#f9b200"
         inkscape:connector-curvature="0" />
      <path
         id="path3678"
         transform="translate(88.521,4.541)"
         d="M 6.125,6.164 C 5.956,6.136 5.772,6.11 5.575,6.09 5.379,6.069 5.202,6.058 5.048,6.058 4.359,6.058 3.814,6.181 3.411,6.427 3.011,6.674 2.809,7.072 2.809,7.62 c 0,0.366 0.077,0.647 0.232,0.845 0.154,0.197 0.341,0.342 0.56,0.433 0.218,0.092 0.45,0.147 0.696,0.169 0.247,0.021 0.461,0.031 0.645,0.031 0.211,0 0.422,-0.017 0.633,-0.053 C 5.786,9.01 5.969,8.979 6.125,8.951 l 0,-2.787 z m 0,-2.176 C 6.125,3.65 6.067,3.377 5.956,3.166 5.843,2.955 5.688,2.789 5.491,2.67 5.294,2.55 5.052,2.469 4.762,2.427 4.474,2.385 4.153,2.363 3.801,2.363 3.041,2.363 2.233,2.511 1.373,2.807 1.176,2.441 1.027,2.096 0.93,1.772 0.83,1.448 0.782,1.062 0.782,0.611 1.401,0.4 2.022,0.246 2.64,0.147 3.259,0.049 3.836,0 4.371,0 5.835,0 6.978,0.352 7.802,1.056 8.626,1.76 9.037,2.886 9.037,4.433 l 0,6.334 C 8.544,10.922 7.945,11.07 7.242,11.211 6.539,11.351 5.744,11.422 4.857,11.422 4.138,11.422 3.48,11.358 2.882,11.232 2.284,11.105 1.771,10.894 1.341,10.599 0.911,10.303 0.581,9.923 0.348,9.458 0.117,8.994 0,8.424 0,7.748 0,7.072 0.144,6.506 0.433,6.049 0.721,5.592 1.094,5.225 1.551,4.951 2.009,4.676 2.519,4.478 3.082,4.358 3.645,4.239 4.208,4.179 4.77,4.179 c 0.409,0 0.859,0.021 1.353,0.064 l 0,-0.255 z"
         style="fill:#f9b200"
         inkscape:connector-curvature="0" />
      <path
         id="path3680"
         transform="translate(99.037,1.605)"
         d="m 1.477,5.468 -1.373,0 L 0,5.046 3.948,0 l 0.485,0 0,3.188 2.554,0 c 0.043,0.211 0.071,0.401 0.086,0.57 0.014,0.168 0.021,0.345 0.021,0.527 0,0.197 -0.007,0.388 -0.021,0.57 C 7.058,5.038 7.03,5.242 6.987,5.467 l -2.554,0 0,4.286 c 0,0.436 0.035,0.788 0.106,1.056 0.07,0.268 0.172,0.478 0.306,0.633 0.133,0.155 0.298,0.261 0.496,0.317 0.196,0.056 0.429,0.084 0.696,0.084 0.212,0 0.418,-0.018 0.623,-0.053 0.203,-0.035 0.384,-0.067 0.537,-0.096 0.1,0.269 0.17,0.546 0.213,0.834 0.041,0.289 0.062,0.546 0.062,0.771 0,0.154 -0.004,0.285 -0.01,0.39 C 7.454,13.795 7.444,13.897 7.43,13.997 6.783,14.15 6.115,14.228 5.424,14.228 4.143,14.228 3.165,13.929 2.489,13.332 1.813,12.733 1.475,11.759 1.475,10.406 l 0,-4.938 z"
         style="fill:#f9b200"
         inkscape:connector-curvature="0" />
      <path
         id="path3682"
         transform="translate(107.628,4.541)"
         d="M 6.125,6.164 C 5.956,6.136 5.773,6.11 5.576,6.09 5.378,6.069 5.202,6.058 5.048,6.058 4.358,6.058 3.813,6.181 3.412,6.427 3.011,6.674 2.81,7.072 2.81,7.62 c 0,0.366 0.076,0.647 0.231,0.845 0.155,0.198 0.341,0.342 0.56,0.433 0.219,0.092 0.45,0.147 0.696,0.169 0.247,0.021 0.461,0.031 0.646,0.031 0.211,0 0.422,-0.017 0.633,-0.053 C 5.787,9.01 5.969,8.979 6.125,8.951 l 0,-2.787 z m 0,-2.176 C 6.125,3.65 6.068,3.377 5.956,3.166 5.843,2.955 5.689,2.789 5.49,2.67 5.294,2.55 5.052,2.469 4.762,2.427 4.474,2.385 4.154,2.363 3.802,2.363 3.041,2.363 2.232,2.511 1.373,2.807 1.176,2.441 1.028,2.096 0.931,1.772 0.831,1.448 0.783,1.062 0.783,0.611 1.402,0.4 2.021,0.246 2.642,0.147 3.259,0.049 3.836,0 4.371,0 5.835,0 6.979,0.352 7.802,1.056 8.625,1.76 9.037,2.886 9.037,4.433 l 0,6.334 c -0.493,0.155 -1.091,0.303 -1.794,0.444 -0.704,0.14 -1.499,0.211 -2.387,0.211 -0.717,0 -1.375,-0.064 -1.974,-0.19 C 2.284,11.105 1.77,10.894 1.34,10.599 0.911,10.303 0.581,9.923 0.348,9.458 0.117,8.994 0,8.424 0,7.748 0,7.072 0.145,6.506 0.434,6.049 0.721,5.592 1.094,5.225 1.552,4.951 2.009,4.676 2.52,4.478 3.082,4.358 3.644,4.239 4.208,4.179 4.771,4.179 c 0.408,0 0.858,0.021 1.352,0.064 l 0,-0.255 z"
         style="fill:#f9b200"
         inkscape:connector-curvature="0" />
    </g>
    <g
       id="text3834"
       style="font-size:11px;fill:#000000;font-family:Aller Light">
      <path
         id="path3032"
         d="m 79.503599,64.086187 -2.123,0 c -0.0073,-0.04399 -0.01467,-0.09533 -0.022,-0.154 0,-0.06599 0,-0.128326 0,-0.187 0,-0.05133 0,-0.109993 0,-0.176 0.0073,-0.06599 0.01467,-0.120992 0.022,-0.165 l 5.005,0 c 0.0073,0.04401 0.01099,0.09534 0.011,0.154 0.0073,0.05867 0.011,0.117341 0.011,0.176 -5e-6,0.05134 -0.0037,0.113674 -0.011,0.187 -5e-6,0.06601 -0.0037,0.121007 -0.011,0.165 l -2.123,0 0,7.227 c -0.05134,0.0073 -0.110003,0.011 -0.176,0.011 -0.066,0.0073 -0.132003,0.011 -0.198,0.011 -0.07334,0 -0.146669,-0.0037 -0.22,-0.011 -0.066,0 -0.121003,-0.0037 -0.165,-0.011 l 0,-7.227"
         inkscape:connector-curvature="0" />
      <path
         id="path3034"
         d="m 83.905146,66.319187 -0.704,0 c -0.0073,-0.03666 -0.01467,-0.08066 -0.022,-0.132 -10e-7,-0.05133 -10e-7,-0.106328 0,-0.165 -10e-7,-0.05866 -10e-7,-0.117328 0,-0.176 0.0073,-0.05866 0.01467,-0.106328 0.022,-0.143 l 1.43,0 0,5.61 c -0.044,0.0073 -0.106336,0.011 -0.187,0.011 -0.07334,0.0073 -0.132002,0.011 -0.176,0.011 -0.03667,0 -0.09534,-0.0037 -0.176,-0.011 -0.08067,0 -0.143002,-0.0037 -0.187,-0.011 l 0,-4.994 m -0.363,-1.991 c -0.0073,-0.06599 -0.01467,-0.14666 -0.022,-0.242 -10e-7,-0.09533 -10e-7,-0.175993 0,-0.242 -10e-7,-0.05866 -10e-7,-0.131993 0,-0.22 0.0073,-0.08799 0.01467,-0.161326 0.022,-0.22 0.066,-0.0073 0.146665,-0.01099 0.242,-0.011 0.09533,-0.0073 0.175998,-0.01099 0.242,-0.011 0.05867,8e-6 0.131998,0.0037 0.22,0.011 0.088,8e-6 0.161331,0.0037 0.22,0.011 0.0073,0.05867 0.011,0.132007 0.011,0.22 0.0073,0.08801 0.011,0.161341 0.011,0.22 -2e-6,0.06601 -0.0037,0.146674 -0.011,0.242 -2e-6,0.09534 -0.0037,0.176007 -0.011,0.242 -0.05867,0.0073 -0.132002,0.01467 -0.22,0.022 -0.088,7e-6 -0.161335,7e-6 -0.22,0 -0.066,7e-6 -0.146668,7e-6 -0.242,0 -0.09534,-0.0073 -0.176001,-0.01466 -0.242,-0.022"
         inkscape:connector-curvature="0" />
      <path
         id="path3036"
         d="m 90.289958,70.609187 c 0.03666,0.07333 0.06966,0.172334 0.099,0.297 0.03666,0.124667 0.06233,0.227333 0.077,0.308 -0.183338,0.066 -0.392338,0.121 -0.627,0.165 -0.234671,0.044 -0.495004,0.066 -0.781,0.066 -0.916669,0 -1.613335,-0.249334 -2.09,-0.748 -0.476667,-0.505999 -0.715001,-1.235665 -0.715,-2.189 -1e-6,-0.417997 0.05867,-0.802997 0.176,-1.155 0.117333,-0.359329 0.289666,-0.670996 0.517,-0.935 0.227332,-0.263995 0.509665,-0.469328 0.847,-0.616 0.344664,-0.153995 0.740664,-0.230995 1.188,-0.231 0.278663,5e-6 0.542663,0.02201 0.792,0.066 0.256662,0.03667 0.458329,0.08067 0.605,0.132 -5e-6,0.09534 -0.01467,0.205338 -0.044,0.33 -0.022,0.124671 -0.04767,0.223671 -0.077,0.297 -0.146671,-0.05133 -0.333671,-0.09533 -0.561,-0.132 -0.220004,-0.03666 -0.458337,-0.055 -0.715,-0.055 -0.330003,5e-6 -0.619669,0.05867 -0.869,0.176 -0.242002,0.110004 -0.447335,0.267671 -0.616,0.473 -0.161335,0.205337 -0.282335,0.447337 -0.363,0.726 -0.08067,0.27867 -0.121001,0.586669 -0.121,0.924 -1e-6,0.792002 0.186999,1.375001 0.561,1.749 0.381331,0.366667 0.894664,0.55 1.54,0.55 0.219996,0 0.428996,-0.01833 0.627,-0.055 0.205329,-0.03667 0.388662,-0.08433 0.55,-0.143"
         inkscape:connector-curvature="0" />
      <path
         id="path3038"
         d="m 92.198114,66.319187 -0.704,0 c -0.0073,-0.03666 -0.01467,-0.08066 -0.022,-0.132 0,-0.05133 0,-0.106328 0,-0.165 0,-0.05866 0,-0.117328 0,-0.176 0.0073,-0.05866 0.01467,-0.106328 0.022,-0.143 l 1.43,0 0,5.61 c -0.044,0.0073 -0.106335,0.011 -0.187,0.011 -0.07334,0.0073 -0.132001,0.011 -0.176,0.011 -0.03667,0 -0.09534,-0.0037 -0.176,-0.011 -0.08067,0 -0.143001,-0.0037 -0.187,-0.011 l 0,-4.994 m -0.363,-1.991 c -0.0073,-0.06599 -0.01467,-0.14666 -0.022,-0.242 -10e-7,-0.09533 -10e-7,-0.175993 0,-0.242 -10e-7,-0.05866 -10e-7,-0.131993 0,-0.22 0.0073,-0.08799 0.01467,-0.161326 0.022,-0.22 0.066,-0.0073 0.146666,-0.01099 0.242,-0.011 0.09533,-0.0073 0.175999,-0.01099 0.242,-0.011 0.05867,8e-6 0.131999,0.0037 0.22,0.011 0.088,8e-6 0.161332,0.0037 0.22,0.011 0.0073,0.05867 0.011,0.132007 0.011,0.22 0.0073,0.08801 0.011,0.161341 0.011,0.22 -2e-6,0.06601 -0.0037,0.146674 -0.011,0.242 -2e-6,0.09534 -0.0037,0.176007 -0.011,0.242 -0.05867,0.0073 -0.132001,0.01467 -0.22,0.022 -0.088,7e-6 -0.161334,7e-6 -0.22,0 -0.066,7e-6 -0.146668,7e-6 -0.242,0 -0.09533,-0.0073 -0.176001,-0.01466 -0.242,-0.022"
         inkscape:connector-curvature="0" />
      <path
         id="path3040"
         d="m 94.864927,65.703187 c 0.05867,-0.0073 0.113665,-0.01099 0.165,-0.011 0.05867,-0.0073 0.113665,-0.011 0.165,-0.011 0.05866,5e-6 0.113665,0.0037 0.165,0.011 0.05133,5e-6 0.106332,0.0037 0.165,0.011 0.01466,0.132005 0.02566,0.297005 0.033,0.495 0.0073,0.198005 0.011,0.370338 0.011,0.517 0.07333,-0.131996 0.168665,-0.263995 0.286,-0.396 0.117331,-0.139329 0.252998,-0.263995 0.407,-0.374 0.161331,-0.109995 0.344664,-0.197995 0.55,-0.264 0.20533,-0.07333 0.428997,-0.109995 0.671,-0.11 0.645329,5e-6 1.114662,0.194339 1.408,0.583 0.293328,0.381338 0.439994,0.920337 0.44,1.617 l 0,3.542 c -0.04401,0.0073 -0.106339,0.011 -0.187,0.011 -0.07334,0.0073 -0.132005,0.011 -0.176,0.011 -0.03667,0 -0.09534,-0.0037 -0.176,-0.011 -0.08067,0 -0.143005,-0.0037 -0.187,-0.011 l 0,-3.322 c -5e-6,-0.62333 -0.09901,-1.070663 -0.297,-1.342 -0.190671,-0.271329 -0.480337,-0.406995 -0.869,-0.407 -0.25667,5e-6 -0.49867,0.05134 -0.726,0.154 -0.227336,0.102671 -0.425336,0.253004 -0.594,0.451 -0.161336,0.190671 -0.289669,0.429004 -0.385,0.715 -0.09533,0.286003 -0.143002,0.612336 -0.143,0.979 l 0,2.772 c -0.044,0.0073 -0.106335,0.011 -0.187,0.011 -0.07334,0.0073 -0.132001,0.011 -0.176,0.011 -0.03667,0 -0.09533,-0.0037 -0.176,-0.011 -0.08067,0 -0.143001,-0.0037 -0.187,-0.011 l 0,-5.61"
         inkscape:connector-curvature="0" />
      <path
         id="path3042"
         d="m 103.34885,70.807187 c 0.58666,0 1.02299,-0.205333 1.309,-0.616 0.29333,-0.410665 0.43999,-0.971665 0.44,-1.683 -10e-6,-0.71133 -0.14667,-1.27233 -0.44,-1.683 -0.28601,-0.410662 -0.72234,-0.615995 -1.309,-0.616 -0.58667,5e-6 -1.02667,0.205338 -1.32,0.616 -0.286,0.41067 -0.429,0.97167 -0.429,1.683 0,0.711335 0.143,1.272335 0.429,1.683 0.29333,0.410667 0.73333,0.616 1.32,0.616 m 0,0.638 c -0.418,0 -0.78467,-0.07333 -1.1,-0.22 -0.31534,-0.154 -0.57934,-0.363 -0.792,-0.627 -0.20534,-0.263999 -0.35934,-0.575666 -0.462,-0.935 -0.10267,-0.359332 -0.154,-0.744331 -0.154,-1.155 0,-0.410664 0.0513,-0.795663 0.154,-1.155 0.10266,-0.359329 0.25666,-0.670996 0.462,-0.935 0.21266,-0.263995 0.47666,-0.469328 0.792,-0.616 0.31533,-0.153995 0.682,-0.230995 1.1,-0.231 0.418,5e-6 0.78099,0.077 1.089,0.231 0.31533,0.146672 0.57566,0.352005 0.781,0.616 0.21266,0.264004 0.37033,0.575671 0.473,0.935 0.10999,0.359337 0.16499,0.744336 0.165,1.155 -10e-6,0.410669 -0.055,0.795668 -0.165,1.155 -0.10267,0.359334 -0.26034,0.671001 -0.473,0.935 -0.20534,0.264 -0.46567,0.473 -0.781,0.627 -0.30801,0.146666 -0.671,0.22 -1.089,0.22"
         inkscape:connector-curvature="0" />
    </g>
  </g>
</svg>
