<?xml version="1.0" encoding="utf-8"?>
<!-- Generator: Adobe Illustrator 13.0.2, SVG Export Plug-In . SVG Version: 6.00 Build 14948)  -->
<!DOCTYPE svg PUBLIC "-//W3C//DTD SVG 1.1//EN" "http://www.w3.org/Graphics/SVG/1.1/DTD/svg11.dtd">
<svg version="1.1" id="Logo" xmlns="http://www.w3.org/2000/svg" xmlns:xlink="http://www.w3.org/1999/xlink" x="0px" y="0px"
	 width="136.48px" height="36.85px" viewBox="0 0 136.48 36.85" enable-background="new 0 0 136.48 36.85" xml:space="preserve" stroke-width="0">
<g>
	<path fill="#FFFFFF" d="M34.318,18.424c0,8.776-7.113,15.889-15.891,15.889c-8.771,0-15.889-7.113-15.889-15.889
		c0-8.773,7.117-15.887,15.889-15.887C27.205,2.537,34.318,9.65,34.318,18.424"/>
	<path d="M18.428,33.745c-8.459,0-15.32-6.859-15.32-15.321c0-8.461,6.861-15.32,15.32-15.32c8.465,0,15.323,6.859,15.323,15.32
		C33.751,26.885,26.893,33.745,18.428,33.745 M18.428,1.35c-9.43,0-17.076,7.641-17.076,17.074c0,9.43,7.646,17.077,17.076,17.077
		c9.432,0,17.079-7.646,17.079-17.077C35.507,8.99,27.859,1.35,18.428,1.35"/>
	<path d="M15.981,20.377c-0.894,0.627-1.636,1.211-2.249,1.771V10.275c1.242,0.262,2.557,0.799,3.464,1.867
		C19.424,14.775,18.67,18.492,15.981,20.377 M25.729,9.926c-3.694-2.072-8.324-2.09-11.997-1.148v-1.59h-1.594v2.078
		c-0.684,0.246-1.317,0.525-1.881,0.832c0,0,0.793-0.1,1.881-0.033v13.899c-0.792,1.221-0.983,2.408-0.797,3.777
		c0.212,1.531,1.367,2.553,2.279,3.309c-0.537-1.545-0.578-2.949-0.42-3.799c0.301-1.588,1.232-2.73,5.252-3.6
		c4.17-0.9,9.112-1.316,10.746-5.366C29.942,16.436,30.403,12.549,25.729,9.926"/>
	<path d="M5.636,5.631c-3.275,3.275-5.3,7.795-5.3,12.793c0,4.997,2.024,9.516,5.3,12.792c3.274,3.275,7.797,5.299,12.792,5.299
		c4.997,0,9.52-2.023,12.795-5.299s5.3-7.795,5.3-12.792c0-4.998-2.024-9.518-5.3-12.793c-3.275-3.273-7.798-5.297-12.795-5.297
		C13.432,0.334,8.91,2.357,5.636,5.631 M0,18.424C0,8.244,8.252,0,18.428,0c10.178,0,18.43,8.244,18.43,18.424
		c0,10.174-8.252,18.426-18.43,18.426C8.252,36.85,0,28.598,0,18.424"/>
	<path d="M46.115,16.643c0.302,0.119,0.613,0.207,0.935,0.266s0.75,0.09,1.287,0.09c0.511,0,0.996-0.082,1.455-0.246
		c0.458-0.164,0.858-0.424,1.198-0.777c0.342-0.354,0.609-0.803,0.807-1.346c0.195-0.543,0.295-1.197,0.295-1.955
		c0-1.207-0.227-2.15-0.678-2.832c-0.453-0.68-1.184-1.021-2.192-1.021c-0.315,0-0.655,0.053-1.022,0.156
		c-0.366,0.105-0.704,0.285-1.012,0.541c-0.309,0.256-0.563,0.59-0.767,1.002c-0.204,0.414-0.306,0.934-0.306,1.564V16.643z
		 M44.818,7.896c0.08-0.014,0.178-0.023,0.295-0.029c0.119-0.006,0.217-0.012,0.295-0.012s0.178,0.006,0.295,0.012
		s0.216,0.016,0.295,0.029l0.117,1.375c0.275-0.418,0.673-0.793,1.19-1.119c0.517-0.328,1.189-0.492,2.015-0.492
		c0.615,0,1.18,0.096,1.689,0.285c0.512,0.189,0.947,0.488,1.309,0.895c0.359,0.406,0.642,0.918,0.845,1.533
		c0.202,0.617,0.304,1.355,0.304,2.221s-0.117,1.643-0.354,2.33c-0.235,0.688-0.58,1.271-1.031,1.748
		c-0.452,0.48-1.01,0.846-1.671,1.102c-0.662,0.256-1.419,0.383-2.271,0.383c-0.313,0-0.655-0.025-1.021-0.078
		c-0.367-0.051-0.702-0.131-1.004-0.236v4.717c-0.077,0.014-0.189,0.023-0.334,0.031c-0.144,0.006-0.248,0.01-0.314,0.01
		c-0.078,0-0.186-0.004-0.324-0.01c-0.137-0.008-0.244-0.018-0.324-0.031V7.896z"/>
	<path d="M61.648,13.047c-0.224-0.027-0.502-0.057-0.836-0.09c-0.334-0.031-0.652-0.049-0.953-0.049
		c-0.982,0-1.742,0.184-2.281,0.551c-0.536,0.367-0.805,0.891-0.805,1.572c0,0.434,0.082,0.779,0.245,1.041
		c0.164,0.264,0.378,0.463,0.64,0.602c0.262,0.137,0.55,0.229,0.865,0.273c0.313,0.047,0.629,0.07,0.942,0.07
		c0.405,0,0.786-0.021,1.14-0.061c0.354-0.039,0.701-0.092,1.043-0.156V13.047z M61.648,11.297c0-0.865-0.203-1.496-0.611-1.896
		c-0.405-0.4-1.008-0.6-1.807-0.6c-0.525,0-1.002,0.035-1.436,0.107c-0.432,0.072-0.819,0.16-1.159,0.266
		c-0.065-0.117-0.122-0.287-0.167-0.512C56.423,8.439,56.4,8.23,56.4,8.033c0.34-0.104,0.76-0.191,1.258-0.264
		s1.009-0.109,1.533-0.109c1.271,0,2.215,0.279,2.83,0.836s0.924,1.432,0.924,2.623v6.625c-0.459,0.092-1.016,0.184-1.67,0.275
		c-0.656,0.092-1.279,0.137-1.869,0.137c-1.217,0-2.178-0.242-2.879-0.727s-1.052-1.271-1.052-2.359
		c0-0.523,0.101-0.992,0.306-1.406c0.203-0.412,0.483-0.76,0.845-1.041c0.36-0.281,0.793-0.494,1.297-0.639
		c0.505-0.143,1.058-0.215,1.661-0.215c0.472,0,0.878,0.016,1.219,0.049c0.34,0.033,0.622,0.062,0.846,0.088V11.297z"/>
	<path d="M66.208,7.896c0.104-0.014,0.207-0.023,0.304-0.029c0.1-0.006,0.194-0.012,0.286-0.012c0.104,0,0.202,0.006,0.294,0.012
		s0.19,0.016,0.295,0.029c0.026,0.236,0.047,0.516,0.059,0.836c0.014,0.32,0.021,0.611,0.021,0.873
		c0.263-0.484,0.63-0.893,1.101-1.229c0.472-0.334,1.095-0.5,1.867-0.5h0.207c0.071,0,0.153,0.006,0.245,0.02
		c0.04,0.223,0.06,0.432,0.06,0.629c0,0.211-0.02,0.412-0.06,0.609c-0.104-0.014-0.187-0.02-0.245-0.02h-0.188
		c-0.891,0-1.605,0.281-2.143,0.846c-0.537,0.562-0.806,1.5-0.806,2.811v5.15c-0.078,0.012-0.187,0.021-0.323,0.029
		c-0.139,0.006-0.246,0.01-0.324,0.01c-0.066,0-0.172-0.004-0.315-0.01c-0.144-0.008-0.256-0.018-0.334-0.029V7.896z"/>
	<path d="M73.539,8.996H71.83c-0.014-0.064-0.023-0.148-0.03-0.254s-0.009-0.211-0.009-0.314c0-0.105,0.002-0.203,0.009-0.295
		s0.017-0.17,0.03-0.236h1.709V6.01l1.22-1.199h0.077v3.086h2.714c0.013,0.066,0.022,0.145,0.028,0.236s0.01,0.189,0.01,0.295
		c0,0.104-0.004,0.209-0.01,0.314s-0.016,0.189-0.028,0.254h-2.714v6.527c0,0.328,0.043,0.586,0.129,0.775
		c0.085,0.191,0.197,0.338,0.334,0.443c0.138,0.105,0.295,0.174,0.472,0.205c0.177,0.033,0.356,0.049,0.54,0.049
		c0.459,0,0.859-0.059,1.2-0.176c0.091,0.34,0.157,0.707,0.196,1.102c-0.473,0.143-1.022,0.215-1.651,0.215
		c-0.747,0-1.353-0.199-1.817-0.6c-0.467-0.398-0.699-1.051-0.699-1.955V8.996z"/>
	<path d="M79.711,5.439c-0.014-0.117-0.023-0.262-0.029-0.432c-0.007-0.17-0.01-0.316-0.01-0.434c0-0.104,0.003-0.234,0.01-0.393
		c0.006-0.158,0.016-0.289,0.029-0.395c0.117-0.012,0.263-0.021,0.433-0.027c0.171-0.008,0.314-0.012,0.433-0.012
		c0.104,0,0.236,0.004,0.393,0.012c0.158,0.006,0.289,0.016,0.395,0.027c0.013,0.105,0.021,0.236,0.028,0.395
		s0.011,0.289,0.011,0.393c0,0.117-0.004,0.264-0.011,0.434s-0.016,0.314-0.028,0.432c-0.105,0.012-0.236,0.023-0.395,0.029
		c-0.156,0.008-0.288,0.01-0.393,0.01c-0.118,0-0.262-0.002-0.433-0.01C79.974,5.463,79.828,5.451,79.711,5.439 M80.359,8.996
		h-1.258c-0.013-0.064-0.023-0.143-0.029-0.234s-0.01-0.191-0.01-0.295c0-0.105,0.004-0.209,0.01-0.314s0.017-0.189,0.029-0.256
		h2.555v10.025c-0.078,0.012-0.186,0.021-0.323,0.029c-0.138,0.006-0.246,0.008-0.324,0.008c-0.065,0-0.171-0.002-0.315-0.008
		c-0.144-0.008-0.254-0.018-0.334-0.029V8.996z"/>
	<path fill="#F9B200" d="M87.223,15.76c0.354,0.104,0.761,0.156,1.22,0.156c0.812,0,1.435-0.262,1.866-0.785
		c0.433-0.525,0.65-1.318,0.65-2.379c0-0.406-0.033-0.783-0.099-1.131s-0.177-0.645-0.334-0.895
		c-0.158-0.248-0.358-0.445-0.601-0.59s-0.541-0.215-0.895-0.215c-0.327,0-0.605,0.061-0.835,0.186s-0.416,0.295-0.56,0.512
		c-0.145,0.217-0.25,0.469-0.314,0.758c-0.066,0.287-0.1,0.596-0.1,0.922V15.76z M84.432,7.738c0.184-0.039,0.365-0.064,0.541-0.078
		c0.177-0.014,0.377-0.02,0.6-0.02c0.367,0,0.74,0.039,1.12,0.119c0.04,0.064,0.075,0.16,0.108,0.285
		c0.033,0.123,0.065,0.258,0.099,0.402c0.032,0.145,0.06,0.285,0.079,0.422c0.019,0.139,0.035,0.252,0.048,0.344
		c0.119-0.209,0.262-0.416,0.433-0.619c0.17-0.203,0.377-0.383,0.619-0.539c0.243-0.158,0.514-0.285,0.816-0.385
		c0.301-0.098,0.635-0.146,1.003-0.146c0.563,0,1.09,0.105,1.582,0.314c0.491,0.209,0.92,0.527,1.286,0.951
		c0.367,0.428,0.652,0.963,0.855,1.604c0.203,0.643,0.305,1.402,0.305,2.281c0,0.852-0.125,1.613-0.373,2.289
		c-0.25,0.676-0.609,1.248-1.082,1.721c-0.471,0.471-1.047,0.834-1.729,1.09c-0.681,0.256-1.454,0.383-2.319,0.383
		c-0.223,0-0.441-0.01-0.658-0.029s-0.396-0.041-0.541-0.068v4.52c-0.248,0.041-0.487,0.066-0.717,0.08s-0.455,0.02-0.678,0.02
		s-0.449-0.006-0.679-0.02s-0.468-0.039-0.718-0.08V7.738z"/>
	<path fill="#F9B200" d="M96.245,6.049c-0.078-0.445-0.117-0.885-0.117-1.316c0-0.42,0.039-0.859,0.117-1.318
		c0.223-0.039,0.462-0.068,0.718-0.088s0.488-0.029,0.698-0.029c0.222,0,0.465,0.01,0.727,0.029c0.263,0.02,0.505,0.049,0.728,0.088
		c0.039,0.223,0.065,0.443,0.078,0.66c0.014,0.215,0.021,0.436,0.021,0.658c0,0.209-0.007,0.426-0.021,0.648
		c-0.013,0.223-0.039,0.445-0.078,0.668c-0.223,0.039-0.463,0.066-0.717,0.078c-0.256,0.014-0.496,0.021-0.719,0.021
		c-0.209,0-0.445-0.008-0.707-0.021C96.71,6.115,96.468,6.088,96.245,6.049 M96.658,9.881h-1.317
		c-0.039-0.17-0.067-0.35-0.088-0.539s-0.03-0.371-0.03-0.541c0-0.354,0.04-0.701,0.118-1.043h4.05V17.92
		c-0.472,0.08-0.931,0.119-1.376,0.119c-0.433,0-0.885-0.039-1.356-0.119V9.881z"/>
	<path fill="#F9B200" d="M102.143,7.758c0.196-0.039,0.383-0.068,0.56-0.088s0.37-0.029,0.58-0.029c0.196,0,0.39,0.014,0.579,0.039
		c0.19,0.027,0.377,0.059,0.561,0.1c0.04,0.064,0.075,0.16,0.107,0.285c0.033,0.123,0.062,0.254,0.09,0.393
		c0.025,0.137,0.049,0.275,0.068,0.412s0.037,0.252,0.049,0.344c0.289-0.406,0.643-0.77,1.062-1.09
		c0.42-0.322,0.944-0.482,1.572-0.482c0.131,0,0.282,0.008,0.452,0.02c0.171,0.014,0.295,0.033,0.373,0.059
		c0.027,0.133,0.047,0.283,0.06,0.453s0.021,0.348,0.021,0.529c0,0.225-0.01,0.467-0.03,0.729c-0.019,0.262-0.056,0.512-0.108,0.746
		c-0.144-0.025-0.304-0.039-0.48-0.039h-0.325c-0.222,0-0.472,0.023-0.747,0.068c-0.275,0.047-0.537,0.168-0.786,0.365
		c-0.249,0.195-0.456,0.49-0.618,0.883c-0.164,0.395-0.246,0.945-0.246,1.652v4.836c-0.236,0.039-0.472,0.064-0.707,0.078
		c-0.236,0.014-0.467,0.02-0.689,0.02s-0.448-0.006-0.678-0.02s-0.469-0.039-0.717-0.078V7.758z"/>
	<path fill="#F9B200" d="M114.918,13.264c-0.156-0.027-0.328-0.051-0.51-0.07c-0.185-0.02-0.349-0.029-0.492-0.029
		c-0.643,0-1.149,0.115-1.523,0.344c-0.373,0.23-0.561,0.6-0.561,1.111c0,0.34,0.072,0.604,0.217,0.785
		c0.144,0.184,0.318,0.318,0.521,0.404c0.203,0.084,0.419,0.137,0.649,0.156c0.229,0.02,0.429,0.029,0.599,0.029
		c0.197,0,0.394-0.016,0.591-0.049c0.196-0.033,0.366-0.061,0.51-0.088V13.264z M114.918,11.238c0-0.316-0.051-0.57-0.156-0.768
		c-0.105-0.195-0.249-0.35-0.434-0.461c-0.183-0.111-0.408-0.188-0.678-0.227c-0.268-0.039-0.566-0.059-0.895-0.059
		c-0.707,0-1.461,0.137-2.26,0.412c-0.184-0.34-0.322-0.66-0.412-0.963c-0.092-0.301-0.139-0.662-0.139-1.08
		c0.577-0.197,1.153-0.342,1.73-0.434c0.576-0.092,1.113-0.137,1.611-0.137c1.362,0,2.428,0.328,3.194,0.982
		s1.149,1.703,1.149,3.145v5.896c-0.459,0.145-1.016,0.283-1.67,0.412c-0.656,0.133-1.396,0.197-2.222,0.197
		c-0.668,0-1.28-0.059-1.838-0.176c-0.557-0.119-1.036-0.314-1.435-0.59c-0.4-0.275-0.709-0.629-0.924-1.062
		c-0.217-0.432-0.324-0.963-0.324-1.592s0.134-1.156,0.402-1.582s0.615-0.766,1.043-1.023c0.424-0.254,0.899-0.438,1.424-0.549
		s1.049-0.168,1.572-0.168c0.381,0,0.799,0.021,1.258,0.061V11.238z"/>
	<path fill="#F9B200" d="M120.383,9.881h-1.277l-0.099-0.393l3.677-4.697h0.451v2.967h2.378c0.04,0.197,0.066,0.375,0.079,0.531
		c0.014,0.158,0.02,0.322,0.02,0.492c0,0.184-0.006,0.361-0.02,0.531c-0.013,0.17-0.039,0.359-0.079,0.568h-2.378v3.99
		c0,0.406,0.032,0.734,0.098,0.984c0.065,0.248,0.16,0.445,0.285,0.59c0.125,0.143,0.278,0.242,0.463,0.293
		c0.183,0.053,0.398,0.08,0.647,0.08c0.196,0,0.39-0.018,0.58-0.049c0.19-0.033,0.356-0.062,0.502-0.09
		c0.091,0.248,0.157,0.508,0.196,0.777s0.059,0.508,0.059,0.717c0,0.145-0.003,0.266-0.01,0.363
		c-0.006,0.098-0.016,0.193-0.029,0.285c-0.604,0.145-1.227,0.217-1.867,0.217c-1.193,0-2.104-0.279-2.732-0.836
		s-0.943-1.465-0.943-2.721V9.881z"/>
	<path fill="#F9B200" d="M133.847,11.748c-0.026-0.629-0.198-1.137-0.521-1.521c-0.321-0.389-0.77-0.58-1.346-0.58
		c-0.656,0-1.154,0.184-1.494,0.549c-0.342,0.367-0.545,0.885-0.609,1.553H133.847z M129.857,13.695
		c0.051,0.785,0.327,1.355,0.825,1.709c0.498,0.355,1.153,0.531,1.966,0.531c0.445,0,0.9-0.043,1.365-0.127
		c0.467-0.086,0.907-0.207,1.327-0.363c0.144,0.26,0.269,0.576,0.374,0.943c0.105,0.365,0.164,0.76,0.176,1.178
		c-1.021,0.393-2.175,0.59-3.459,0.59c-0.943,0-1.752-0.131-2.427-0.393c-0.677-0.262-1.226-0.625-1.651-1.092
		c-0.427-0.465-0.74-1.018-0.943-1.66s-0.305-1.344-0.305-2.104c0-0.746,0.104-1.447,0.314-2.104
		c0.209-0.654,0.521-1.225,0.934-1.709s0.924-0.867,1.533-1.15c0.609-0.281,1.32-0.422,2.133-0.422c0.707,0,1.336,0.125,1.887,0.373
		c0.551,0.25,1.019,0.59,1.406,1.021c0.387,0.434,0.678,0.947,0.873,1.543c0.197,0.598,0.295,1.236,0.295,1.916
		c0,0.25-0.009,0.496-0.029,0.738c-0.02,0.242-0.043,0.436-0.068,0.58H129.857z"/>
</g>
<g>
	<path d="M44.794,25.3h3.883c0.007,0.044,0.013,0.098,0.017,0.16c0.003,0.062,0.005,0.122,0.005,0.181
		c0,0.052-0.002,0.112-0.005,0.182c-0.004,0.07-0.01,0.127-0.017,0.171h-3.124v2.673h2.706c0.007,0.044,0.013,0.098,0.016,0.159
		c0.004,0.062,0.006,0.123,0.006,0.182c0,0.052-0.002,0.112-0.006,0.182c-0.003,0.069-0.009,0.127-0.016,0.171h-2.706v3.85
		c-0.051,0.007-0.11,0.013-0.176,0.017s-0.132,0.006-0.198,0.006c-0.073,0-0.145-0.002-0.214-0.006
		c-0.07-0.004-0.127-0.01-0.171-0.017V25.3z"/>
	<path d="M49.954,27.599c0.059-0.007,0.116-0.013,0.171-0.017c0.055-0.003,0.108-0.005,0.159-0.005c0.059,0,0.114,0.002,0.165,0.005
		c0.051,0.004,0.106,0.01,0.165,0.017c0.015,0.133,0.026,0.288,0.033,0.468s0.011,0.343,0.011,0.489
		c0.147-0.271,0.352-0.5,0.616-0.688c0.264-0.187,0.612-0.28,1.045-0.28c0.037,0,0.075,0,0.116,0c0.04,0,0.086,0.004,0.137,0.011
		c0.022,0.125,0.033,0.242,0.033,0.353c0,0.117-0.011,0.23-0.033,0.341c-0.059-0.007-0.104-0.011-0.137-0.011
		c-0.033,0-0.068,0-0.104,0c-0.499,0-0.898,0.157-1.199,0.473s-0.451,0.84-0.451,1.573v2.882c-0.044,0.007-0.104,0.013-0.181,0.017
		c-0.077,0.004-0.138,0.006-0.182,0.006c-0.037,0-0.095-0.002-0.176-0.006c-0.081-0.004-0.143-0.01-0.187-0.017V27.599z"/>
	<path d="M54.145,28.215H53.44c-0.007-0.036-0.013-0.08-0.017-0.132c-0.003-0.051-0.005-0.106-0.005-0.165s0.002-0.117,0.005-0.176
		c0.004-0.059,0.009-0.106,0.017-0.144h1.43v5.61c-0.044,0.007-0.104,0.013-0.182,0.017s-0.138,0.006-0.182,0.006
		c-0.037,0-0.095-0.002-0.176-0.006c-0.081-0.004-0.143-0.01-0.187-0.017V28.215z M53.781,26.224
		c-0.007-0.065-0.013-0.146-0.016-0.241c-0.004-0.096-0.006-0.177-0.006-0.242c0-0.059,0.002-0.132,0.006-0.221
		c0.003-0.088,0.009-0.161,0.016-0.22c0.066-0.007,0.147-0.013,0.242-0.017c0.095-0.003,0.176-0.005,0.242-0.005
		c0.059,0,0.132,0.002,0.22,0.005c0.088,0.004,0.161,0.01,0.22,0.017c0.007,0.059,0.013,0.132,0.017,0.22
		c0.003,0.089,0.005,0.162,0.005,0.221c0,0.065-0.002,0.146-0.005,0.242c-0.004,0.095-0.009,0.176-0.017,0.241
		c-0.059,0.008-0.132,0.014-0.22,0.017c-0.088,0.004-0.161,0.006-0.22,0.006c-0.066,0-0.147-0.002-0.242-0.006
		C53.928,26.238,53.848,26.232,53.781,26.224z"/>
	<path d="M56.806,25.125c0.044-0.007,0.104-0.013,0.182-0.017s0.138-0.006,0.182-0.006c0.037,0,0.095,0.002,0.176,0.006
		s0.143,0.01,0.187,0.017v3.256c0.154-0.234,0.376-0.445,0.666-0.633c0.29-0.187,0.666-0.28,1.128-0.28
		c0.344,0,0.66,0.054,0.945,0.16c0.285,0.105,0.529,0.272,0.73,0.5c0.203,0.228,0.359,0.514,0.475,0.858
		c0.113,0.345,0.17,0.759,0.17,1.242c0,0.976-0.268,1.738-0.803,2.288c-0.535,0.551-1.309,0.825-2.321,0.825
		c-0.33,0-0.649-0.031-0.957-0.094c-0.308-0.062-0.561-0.13-0.759-0.203V25.125z M57.532,32.539
		c0.169,0.059,0.347,0.101,0.534,0.126c0.187,0.026,0.387,0.039,0.6,0.039c0.293,0,0.572-0.048,0.842-0.144
		c0.268-0.095,0.502-0.241,0.703-0.439s0.363-0.449,0.484-0.754c0.121-0.304,0.182-0.669,0.182-1.094
		c0-0.668-0.127-1.192-0.381-1.573c-0.252-0.382-0.66-0.572-1.227-0.572c-0.176,0-0.365,0.029-0.571,0.088
		c-0.205,0.059-0.394,0.158-0.566,0.297c-0.172,0.14-0.315,0.325-0.429,0.556c-0.114,0.231-0.17,0.522-0.17,0.875V32.539z"/>
	<path d="M65.485,33.341c-0.418,0-0.785-0.075-1.101-0.226s-0.577-0.357-0.786-0.621s-0.365-0.576-0.468-0.936
		c-0.103-0.358-0.153-0.744-0.153-1.154c0-0.411,0.051-0.796,0.153-1.155s0.259-0.671,0.468-0.935
		c0.209-0.265,0.471-0.472,0.786-0.622s0.683-0.226,1.101-0.226s0.782,0.075,1.095,0.226c0.312,0.15,0.571,0.357,0.78,0.622
		c0.209,0.264,0.367,0.575,0.474,0.935c0.105,0.359,0.159,0.744,0.159,1.155c0,0.41-0.054,0.796-0.159,1.154
		c-0.106,0.359-0.265,0.672-0.474,0.936s-0.469,0.471-0.78,0.621C66.268,33.266,65.903,33.341,65.485,33.341z M65.485,32.704
		c0.586,0,1.024-0.205,1.314-0.616c0.289-0.41,0.435-0.972,0.435-1.683c0-0.712-0.146-1.272-0.435-1.684
		c-0.29-0.41-0.729-0.615-1.314-0.615c-0.587,0-1.025,0.205-1.314,0.615c-0.29,0.411-0.435,0.972-0.435,1.684
		c0,0.711,0.145,1.272,0.435,1.683C64.46,32.499,64.898,32.704,65.485,32.704z"/>
	<path d="M69.566,27.599c0.044-0.007,0.106-0.013,0.188-0.017c0.08-0.003,0.139-0.005,0.176-0.005c0.044,0,0.104,0.002,0.182,0.005
		c0.077,0.004,0.138,0.01,0.182,0.017v3.157c0,0.396,0.04,0.721,0.121,0.974c0.08,0.253,0.199,0.451,0.357,0.594
		c0.157,0.144,0.35,0.242,0.577,0.297c0.228,0.056,0.484,0.083,0.77,0.083c0.242,0,0.459-0.013,0.649-0.039
		c0.19-0.025,0.359-0.061,0.506-0.104v-4.961c0.044-0.007,0.106-0.013,0.188-0.017c0.08-0.003,0.139-0.005,0.176-0.005
		c0.044,0,0.104,0.002,0.182,0.005c0.077,0.004,0.138,0.01,0.182,0.017v5.468c-0.271,0.073-0.574,0.137-0.908,0.192
		c-0.334,0.055-0.676,0.082-1.028,0.082c-0.345,0-0.669-0.033-0.974-0.099c-0.304-0.066-0.568-0.192-0.792-0.38
		c-0.224-0.187-0.401-0.445-0.533-0.775s-0.198-0.759-0.198-1.287V27.599z"/>
	<path d="M75.936,27.599c0.059-0.007,0.116-0.013,0.171-0.017c0.055-0.003,0.108-0.005,0.159-0.005c0.059,0,0.113,0.002,0.165,0.005
		c0.052,0.004,0.106,0.01,0.165,0.017c0.015,0.133,0.025,0.288,0.033,0.468c0.007,0.18,0.011,0.343,0.011,0.489
		c0.146-0.271,0.353-0.5,0.616-0.688c0.264-0.187,0.612-0.28,1.045-0.28c0.036,0,0.075,0,0.115,0s0.086,0.004,0.138,0.011
		c0.022,0.125,0.033,0.242,0.033,0.353c0,0.117-0.011,0.23-0.033,0.341c-0.059-0.007-0.104-0.011-0.138-0.011s-0.067,0-0.104,0
		c-0.498,0-0.898,0.157-1.199,0.473s-0.45,0.84-0.45,1.573v2.882c-0.044,0.007-0.104,0.013-0.182,0.017s-0.138,0.006-0.182,0.006
		c-0.037,0-0.096-0.002-0.176-0.006c-0.081-0.004-0.144-0.01-0.188-0.017V27.599z"/>
	<path d="M82.568,32.649c0.645,0.015,1.105,0.148,1.38,0.401c0.275,0.253,0.413,0.588,0.413,1.006c0,0.286-0.073,0.545-0.221,0.775
		c-0.146,0.231-0.352,0.43-0.615,0.595c-0.265,0.165-0.578,0.293-0.94,0.385c-0.363,0.092-0.758,0.138-1.183,0.138
		c-0.33,0-0.633-0.026-0.908-0.077c-0.274-0.052-0.513-0.134-0.715-0.248c-0.201-0.113-0.357-0.264-0.467-0.45
		c-0.11-0.188-0.165-0.417-0.165-0.688c0-0.279,0.08-0.547,0.241-0.804s0.37-0.447,0.627-0.571c-0.139-0.088-0.257-0.2-0.352-0.336
		c-0.096-0.136-0.143-0.303-0.143-0.5c0-0.286,0.067-0.524,0.203-0.716c0.136-0.19,0.317-0.362,0.544-0.517
		c-0.256-0.161-0.462-0.378-0.615-0.649c-0.154-0.271-0.231-0.594-0.231-0.968c0-0.271,0.046-0.526,0.138-0.765
		s0.229-0.445,0.412-0.621c0.184-0.176,0.409-0.315,0.677-0.418s0.577-0.154,0.93-0.154c0.301,0,0.568,0.039,0.803,0.115
		c0.234,0.077,0.44,0.179,0.616,0.303c0.073-0.029,0.165-0.062,0.275-0.099c0.109-0.037,0.23-0.067,0.362-0.094
		c0.132-0.025,0.268-0.048,0.407-0.065c0.14-0.019,0.275-0.028,0.407-0.028c0.029,0.11,0.044,0.231,0.044,0.363
		c0,0.14-0.015,0.264-0.044,0.374h-1.045c0.103,0.161,0.182,0.332,0.236,0.512s0.082,0.372,0.082,0.577
		c0,0.315-0.055,0.594-0.165,0.836c-0.109,0.242-0.262,0.445-0.456,0.61s-0.422,0.292-0.682,0.38
		c-0.261,0.088-0.541,0.132-0.842,0.132c-0.315,0-0.591-0.04-0.825-0.121c-0.205,0.132-0.351,0.259-0.435,0.38
		s-0.126,0.259-0.126,0.412c0,0.073,0.011,0.144,0.032,0.209c0.022,0.066,0.068,0.127,0.138,0.182c0.07,0.055,0.167,0.1,0.292,0.132
		c0.124,0.033,0.286,0.05,0.483,0.05L82.568,32.649z M81.006,33.308c-0.345-0.007-0.621,0.09-0.83,0.292
		c-0.209,0.201-0.313,0.468-0.313,0.798c0,0.176,0.04,0.322,0.121,0.439c0.08,0.117,0.192,0.209,0.335,0.275
		c0.144,0.065,0.31,0.111,0.501,0.137c0.19,0.026,0.392,0.039,0.604,0.039c0.683,0,1.214-0.115,1.595-0.347
		c0.382-0.23,0.572-0.508,0.572-0.83c0-0.279-0.095-0.478-0.286-0.595c-0.19-0.117-0.502-0.18-0.935-0.187L81.006,33.308z
		 M80.192,29.425c0,0.382,0.111,0.702,0.335,0.963c0.224,0.26,0.574,0.391,1.051,0.391s0.828-0.131,1.056-0.391
		c0.228-0.261,0.341-0.581,0.341-0.963c0-0.381-0.113-0.702-0.341-0.962c-0.228-0.261-0.579-0.391-1.056-0.391
		s-0.827,0.13-1.051,0.391C80.304,28.723,80.192,29.044,80.192,29.425z"/>
	<path d="M85.923,30.514c0,0.748,0.173,1.298,0.518,1.65c0.345,0.352,0.861,0.528,1.551,0.528c0.278,0,0.537-0.024,0.775-0.072
		c0.238-0.047,0.471-0.111,0.698-0.192c0.037,0.081,0.066,0.18,0.088,0.297c0.022,0.118,0.037,0.225,0.044,0.319
		c-0.212,0.096-0.462,0.169-0.747,0.22c-0.286,0.052-0.599,0.077-0.936,0.077c-0.484,0-0.9-0.071-1.248-0.214
		c-0.349-0.144-0.635-0.343-0.858-0.6s-0.389-0.563-0.495-0.919s-0.159-0.746-0.159-1.172c0-0.41,0.05-0.795,0.148-1.154
		s0.249-0.675,0.451-0.946c0.201-0.271,0.46-0.484,0.775-0.638c0.315-0.154,0.692-0.231,1.133-0.231
		c0.366,0,0.693,0.062,0.979,0.188c0.285,0.124,0.525,0.299,0.72,0.522s0.342,0.491,0.44,0.803s0.148,0.651,0.148,1.018
		c0,0.065-0.002,0.15-0.006,0.253s-0.009,0.19-0.017,0.264H85.923z M89.224,29.91c0-0.228-0.03-0.451-0.089-0.671
		c-0.059-0.221-0.15-0.413-0.274-0.578c-0.125-0.165-0.286-0.299-0.484-0.401s-0.437-0.153-0.715-0.153
		c-0.514,0-0.913,0.157-1.199,0.473s-0.458,0.759-0.517,1.331H89.224z"/>
	<path d="M93.733,33.341c-0.418,0-0.785-0.075-1.101-0.226s-0.577-0.357-0.786-0.621s-0.365-0.576-0.468-0.936
		c-0.103-0.358-0.153-0.744-0.153-1.154c0-0.411,0.051-0.796,0.153-1.155s0.259-0.671,0.468-0.935
		c0.209-0.265,0.471-0.472,0.786-0.622s0.683-0.226,1.101-0.226s0.782,0.075,1.095,0.226c0.312,0.15,0.571,0.357,0.78,0.622
		c0.209,0.264,0.367,0.575,0.474,0.935c0.105,0.359,0.159,0.744,0.159,1.155c0,0.41-0.054,0.796-0.159,1.154
		c-0.106,0.359-0.265,0.672-0.474,0.936s-0.469,0.471-0.78,0.621C94.516,33.266,94.151,33.341,93.733,33.341z M93.733,32.704
		c0.586,0,1.024-0.205,1.314-0.616c0.289-0.41,0.435-0.972,0.435-1.683c0-0.712-0.146-1.272-0.435-1.684
		c-0.29-0.41-0.729-0.615-1.314-0.615c-0.587,0-1.025,0.205-1.314,0.615c-0.29,0.411-0.435,0.972-0.435,1.684
		c0,0.711,0.145,1.272,0.435,1.683C92.708,32.499,93.146,32.704,93.733,32.704z"/>
	<path d="M98.199,28.215h-0.703c-0.008-0.036-0.014-0.08-0.017-0.132c-0.004-0.051-0.006-0.106-0.006-0.165s0.002-0.117,0.006-0.176
		c0.003-0.059,0.009-0.106,0.017-0.144h1.43v5.61c-0.044,0.007-0.104,0.013-0.182,0.017s-0.138,0.006-0.182,0.006
		c-0.037,0-0.096-0.002-0.176-0.006c-0.081-0.004-0.144-0.01-0.188-0.017V28.215z M97.837,26.224
		c-0.008-0.065-0.013-0.146-0.017-0.241c-0.004-0.096-0.006-0.177-0.006-0.242c0-0.059,0.002-0.132,0.006-0.221
		c0.004-0.088,0.009-0.161,0.017-0.22c0.065-0.007,0.146-0.013,0.242-0.017c0.095-0.003,0.176-0.005,0.241-0.005
		c0.059,0,0.132,0.002,0.221,0.005c0.088,0.004,0.161,0.01,0.22,0.017c0.007,0.059,0.013,0.132,0.017,0.22
		c0.003,0.089,0.005,0.162,0.005,0.221c0,0.065-0.002,0.146-0.005,0.242c-0.004,0.095-0.01,0.176-0.017,0.241
		c-0.059,0.008-0.132,0.014-0.22,0.017c-0.089,0.004-0.162,0.006-0.221,0.006c-0.065,0-0.146-0.002-0.241-0.006
		C97.983,26.238,97.902,26.232,97.837,26.224z"/>
	<path d="M100.708,32.44c0.161,0.065,0.37,0.122,0.627,0.17c0.256,0.048,0.502,0.071,0.736,0.071c0.44,0,0.788-0.097,1.045-0.291
		s0.386-0.435,0.386-0.721c0-0.198-0.039-0.361-0.116-0.489c-0.077-0.129-0.18-0.236-0.308-0.324
		c-0.129-0.089-0.273-0.16-0.435-0.215s-0.326-0.112-0.495-0.171c-0.184-0.059-0.365-0.124-0.544-0.197
		c-0.181-0.073-0.34-0.167-0.479-0.281c-0.14-0.113-0.252-0.251-0.336-0.412s-0.127-0.363-0.127-0.605
		c0-0.447,0.164-0.81,0.49-1.089c0.326-0.278,0.83-0.418,1.513-0.418c0.285,0,0.562,0.026,0.83,0.077
		c0.268,0.052,0.475,0.106,0.621,0.165c-0.036,0.213-0.088,0.422-0.153,0.627c-0.154-0.051-0.351-0.103-0.589-0.154
		c-0.238-0.051-0.485-0.076-0.742-0.076c-0.447,0-0.765,0.078-0.952,0.236c-0.187,0.157-0.28,0.364-0.28,0.621
		c0,0.14,0.031,0.259,0.094,0.357c0.062,0.1,0.146,0.184,0.253,0.253c0.106,0.07,0.228,0.131,0.363,0.182
		c0.136,0.052,0.28,0.099,0.435,0.144c0.197,0.065,0.397,0.137,0.6,0.214c0.201,0.077,0.385,0.178,0.55,0.303
		s0.301,0.282,0.406,0.473c0.106,0.191,0.16,0.43,0.16,0.715c0,0.265-0.054,0.505-0.16,0.721c-0.105,0.217-0.255,0.4-0.445,0.55
		c-0.19,0.15-0.418,0.267-0.682,0.347c-0.264,0.081-0.554,0.121-0.869,0.121c-0.352,0-0.665-0.021-0.94-0.065
		s-0.497-0.103-0.665-0.177C100.543,32.879,100.612,32.66,100.708,32.44z"/>
</g>
</svg>
