<?xml version="1.0" encoding="utf-8"?>
<!-- Generator: Adobe Illustrator 13.0.2, SVG Export Plug-In . SVG Version: 6.00 Build 14948)  -->
<!DOCTYPE svg PUBLIC "-//W3C//DTD SVG 1.1//EN" "http://www.w3.org/Graphics/SVG/1.1/DTD/svg11.dtd">
<svg version="1.1" id="Logo" xmlns="http://www.w3.org/2000/svg" xmlns:xlink="http://www.w3.org/1999/xlink" x="0px" y="0px"
	 width="158.533px" height="36.85px" viewBox="0 0 158.533 36.85" enable-background="new 0 0 158.533 36.85" xml:space="preserve" stroke-width="0">
<g>
	<g>
		<circle fill="#FFFFFF" cx="18.429" cy="18.425" r="15.89"/>
		<path d="M18.428,1.35c-9.43,0-17.077,7.642-17.077,17.075c0,9.429,7.647,17.075,17.077,17.075c9.432,0,17.079-7.646,17.079-17.075
			C35.507,8.991,27.859,1.35,18.428,1.35z M18.428,33.745c-8.46,0-15.321-6.859-15.321-15.32s6.861-15.32,15.321-15.32
			c8.465,0,15.323,6.859,15.323,15.32S26.893,33.745,18.428,33.745z"/>
		<path d="M25.729,9.926c-3.696-2.071-8.325-2.089-11.997-1.148v-1.59h-1.595v2.078c-0.684,0.247-1.317,0.527-1.881,0.832
			c0,0,0.793-0.098,1.881-0.031v13.896c-0.792,1.221-0.982,2.408-0.796,3.777c0.211,1.531,1.367,2.554,2.277,3.311
			c-0.536-1.545-0.576-2.95-0.419-3.801c0.301-1.588,1.232-2.729,5.252-3.6c4.171-0.898,9.112-1.315,10.745-5.364
			C29.941,16.436,30.403,12.55,25.729,9.926z M15.981,20.378c-0.894,0.627-1.637,1.212-2.249,1.771V10.275
			c1.242,0.263,2.557,0.801,3.463,1.867C19.425,14.775,18.669,18.492,15.981,20.378z"/>
		<g>
			<path d="M0,18.425C0,8.245,8.252,0,18.428,0l0,0c10.177,0,18.429,8.245,18.43,18.425l0,0
				c-0.001,10.174-8.253,18.425-18.43,18.425l0,0C8.252,36.85,0,28.599,0,18.425L0,18.425z M5.635,5.631
				c-3.274,3.274-5.3,7.796-5.3,12.794l0,0c0,4.995,2.025,9.517,5.3,12.791l0,0c3.275,3.274,7.797,5.3,12.793,5.3l0,0
				c4.996,0,9.52-2.025,12.794-5.3l0,0c3.275-3.274,5.301-7.796,5.301-12.791l0,0c0-4.998-2.025-9.52-5.301-12.794l0,0
				c-3.274-3.273-7.798-5.297-12.794-5.297l0,0C13.432,0.334,8.91,2.357,5.635,5.631L5.635,5.631z"/>
		</g>
	</g>
	<g>
		<path fill="#F9B200" d="M44.818,7.739c0.184-0.04,0.363-0.065,0.541-0.078c0.176-0.013,0.376-0.021,0.6-0.021
			c0.366,0,0.739,0.04,1.12,0.118c0.04,0.065,0.075,0.161,0.108,0.285c0.032,0.125,0.064,0.259,0.098,0.403
			c0.032,0.145,0.06,0.285,0.079,0.422c0.02,0.139,0.035,0.254,0.049,0.345c0.118-0.21,0.262-0.416,0.433-0.619
			c0.17-0.203,0.376-0.384,0.619-0.54c0.242-0.158,0.514-0.285,0.815-0.385c0.302-0.098,0.636-0.146,1.003-0.146
			c0.562,0,1.091,0.104,1.582,0.314c0.491,0.209,0.92,0.527,1.287,0.953s0.652,0.96,0.855,1.602
			c0.203,0.643,0.305,1.402,0.305,2.281c0,0.852-0.125,1.615-0.373,2.289c-0.25,0.676-0.61,1.248-1.082,1.721
			c-0.472,0.471-1.049,0.834-1.729,1.09c-0.682,0.256-1.454,0.384-2.319,0.384c-0.224,0-0.442-0.009-0.658-0.029
			c-0.217-0.02-0.397-0.043-0.54-0.069v4.521c-0.25,0.039-0.489,0.064-0.718,0.078c-0.229,0.014-0.456,0.02-0.679,0.02
			c-0.224,0-0.449-0.006-0.679-0.02c-0.229-0.014-0.469-0.039-0.717-0.078V7.739z M47.61,15.76c0.353,0.104,0.759,0.156,1.218,0.156
			c0.812,0,1.436-0.262,1.867-0.785c0.433-0.525,0.648-1.318,0.648-2.379c0-0.406-0.032-0.783-0.098-1.131
			c-0.066-0.346-0.178-0.645-0.334-0.895c-0.158-0.248-0.357-0.444-0.6-0.59c-0.243-0.143-0.541-0.215-0.895-0.215
			c-0.328,0-0.606,0.062-0.836,0.186c-0.229,0.125-0.416,0.295-0.56,0.512c-0.145,0.217-0.249,0.469-0.315,0.757
			c-0.065,0.288-0.097,0.597-0.097,0.924V15.76z"/>
		<path fill="#F9B200" d="M57.044,9.882h-1.316c-0.04-0.171-0.069-0.351-0.089-0.54s-0.029-0.371-0.029-0.541
			c0-0.354,0.039-0.701,0.118-1.042h4.049v10.163C59.305,18,58.846,18.039,58.4,18.039c-0.433,0-0.885-0.039-1.356-0.117V9.882z
			 M56.632,6.049c-0.079-0.445-0.118-0.885-0.118-1.316c0-0.42,0.039-0.858,0.118-1.317c0.222-0.04,0.462-0.069,0.718-0.089
			c0.255-0.02,0.487-0.029,0.697-0.029c0.223,0,0.465,0.01,0.727,0.029c0.263,0.02,0.505,0.049,0.728,0.089
			c0.04,0.224,0.065,0.442,0.079,0.659C59.593,4.29,59.6,4.51,59.6,4.732c0,0.209-0.007,0.426-0.02,0.648
			c-0.014,0.223-0.039,0.445-0.079,0.668c-0.223,0.039-0.462,0.066-0.717,0.078c-0.256,0.014-0.495,0.021-0.718,0.021
			c-0.21,0-0.445-0.007-0.707-0.021C57.097,6.115,56.854,6.088,56.632,6.049z"/>
		<path fill="#F9B200" d="M62.528,7.759c0.196-0.038,0.383-0.068,0.56-0.089c0.177-0.02,0.371-0.029,0.58-0.029
			c0.196,0,0.391,0.014,0.58,0.04s0.377,0.059,0.561,0.099c0.039,0.065,0.075,0.16,0.107,0.284c0.033,0.125,0.062,0.256,0.089,0.394
			s0.049,0.275,0.069,0.412c0.02,0.139,0.035,0.254,0.049,0.345c0.288-0.406,0.642-0.77,1.061-1.091
			c0.42-0.32,0.944-0.482,1.572-0.482c0.131,0,0.282,0.008,0.453,0.021c0.17,0.013,0.295,0.032,0.373,0.06
			c0.026,0.131,0.046,0.281,0.059,0.451c0.014,0.17,0.021,0.348,0.021,0.531c0,0.223-0.01,0.465-0.03,0.727
			c-0.02,0.263-0.056,0.512-0.107,0.747c-0.145-0.026-0.305-0.04-0.481-0.04c-0.178,0-0.286,0-0.324,0
			c-0.224,0-0.473,0.023-0.747,0.069c-0.275,0.046-0.537,0.167-0.787,0.364c-0.248,0.196-0.455,0.49-0.619,0.885
			c-0.164,0.393-0.245,0.943-0.245,1.65v4.836c-0.236,0.039-0.472,0.064-0.708,0.078c-0.235,0.014-0.465,0.02-0.688,0.02
			s-0.449-0.006-0.679-0.02c-0.229-0.014-0.468-0.039-0.717-0.078V7.759z"/>
		<path fill="#F9B200" d="M75.305,11.238c0-0.314-0.053-0.57-0.157-0.767s-0.249-0.351-0.433-0.462s-0.41-0.188-0.678-0.227
			c-0.27-0.039-0.567-0.059-0.895-0.059c-0.708,0-1.462,0.138-2.261,0.412c-0.184-0.34-0.321-0.66-0.413-0.963
			c-0.092-0.301-0.137-0.661-0.137-1.08c0.576-0.197,1.152-0.342,1.729-0.433c0.576-0.092,1.113-0.138,1.611-0.138
			c1.363,0,2.428,0.328,3.194,0.982c0.767,0.655,1.15,1.703,1.15,3.146v5.896c-0.459,0.145-1.016,0.282-1.671,0.413
			s-1.396,0.196-2.222,0.196c-0.668,0-1.281-0.06-1.838-0.177s-1.035-0.314-1.435-0.59s-0.708-0.629-0.924-1.062
			s-0.324-0.963-0.324-1.592c0-0.63,0.134-1.157,0.403-1.583c0.268-0.426,0.615-0.766,1.041-1.021s0.9-0.439,1.426-0.551
			c0.523-0.111,1.048-0.167,1.572-0.167c0.38,0,0.799,0.021,1.258,0.06V11.238z M75.305,13.263
			c-0.157-0.026-0.328-0.049-0.512-0.068c-0.184-0.021-0.347-0.03-0.49-0.03c-0.643,0-1.15,0.115-1.524,0.345
			c-0.373,0.229-0.56,0.599-0.56,1.11c0,0.341,0.071,0.604,0.216,0.786c0.145,0.185,0.317,0.317,0.521,0.403
			c0.203,0.085,0.42,0.137,0.649,0.157c0.229,0.019,0.429,0.029,0.6,0.029c0.196,0,0.393-0.017,0.589-0.05
			c0.197-0.032,0.367-0.062,0.512-0.088V13.263z"/>
		<path fill="#F9B200" d="M80.769,9.882h-1.277l-0.099-0.394l3.676-4.697h0.452v2.968h2.379c0.039,0.196,0.065,0.374,0.078,0.53
			c0.013,0.158,0.02,0.322,0.02,0.492c0,0.184-0.007,0.361-0.02,0.531s-0.039,0.36-0.078,0.569h-2.379v3.99
			c0,0.406,0.032,0.733,0.099,0.983c0.065,0.248,0.16,0.445,0.285,0.59c0.124,0.145,0.278,0.242,0.462,0.294
			c0.183,0.053,0.399,0.079,0.648,0.079c0.196,0,0.39-0.017,0.58-0.049c0.189-0.033,0.356-0.062,0.501-0.089
			c0.092,0.249,0.157,0.508,0.197,0.776c0.039,0.269,0.059,0.508,0.059,0.717c0,0.145-0.003,0.266-0.01,0.364
			s-0.017,0.193-0.029,0.285c-0.604,0.144-1.227,0.216-1.868,0.216c-1.192,0-2.103-0.278-2.731-0.835
			c-0.629-0.558-0.944-1.465-0.944-2.723V9.882z"/>
		<path fill="#F9B200" d="M90.242,13.695c0.053,0.786,0.328,1.356,0.826,1.71c0.498,0.354,1.153,0.53,1.966,0.53
			c0.445,0,0.901-0.042,1.366-0.127c0.465-0.086,0.907-0.207,1.326-0.363c0.145,0.262,0.269,0.576,0.374,0.943
			c0.104,0.367,0.164,0.76,0.177,1.18c-1.021,0.393-2.176,0.589-3.459,0.589c-0.943,0-1.753-0.131-2.428-0.394
			c-0.676-0.262-1.226-0.625-1.651-1.091c-0.426-0.465-0.74-1.019-0.943-1.66s-0.305-1.343-0.305-2.104
			c0-0.747,0.104-1.448,0.314-2.104s0.521-1.226,0.934-1.71c0.413-0.484,0.924-0.868,1.533-1.15
			c0.609-0.281,1.319-0.422,2.133-0.422c0.708,0,1.337,0.125,1.887,0.373c0.551,0.249,1.019,0.59,1.405,1.021
			c0.387,0.434,0.679,0.947,0.875,1.543c0.196,0.598,0.295,1.236,0.295,1.918c0,0.248-0.01,0.494-0.029,0.736
			c-0.02,0.243-0.043,0.436-0.069,0.58H90.242z M94.233,11.75c-0.026-0.63-0.2-1.137-0.521-1.523
			c-0.322-0.387-0.771-0.58-1.348-0.58c-0.654,0-1.152,0.184-1.493,0.551c-0.341,0.366-0.544,0.883-0.609,1.553H94.233z"/>
		<path fill="#F9B200" d="M99.068,7.759c0.184-0.038,0.367-0.068,0.551-0.089c0.184-0.02,0.387-0.029,0.609-0.029
			s0.419,0.01,0.59,0.029c0.17,0.021,0.347,0.051,0.53,0.089c0.04,0.065,0.075,0.161,0.108,0.285
			c0.032,0.125,0.062,0.256,0.088,0.394c0.026,0.138,0.05,0.271,0.069,0.402s0.036,0.243,0.049,0.334
			c0.131-0.195,0.288-0.393,0.472-0.589s0.396-0.374,0.639-0.53c0.242-0.158,0.515-0.285,0.816-0.385
			c0.301-0.098,0.635-0.146,1.002-0.146c1.153,0,2.021,0.314,2.604,0.943s0.875,1.619,0.875,2.969v6.486
			c-0.472,0.078-0.938,0.117-1.396,0.117c-0.459,0-0.924-0.039-1.396-0.117v-5.74c0-0.707-0.108-1.252-0.324-1.631
			c-0.217-0.381-0.593-0.57-1.131-0.57c-0.223,0-0.452,0.033-0.688,0.098c-0.236,0.066-0.449,0.193-0.639,0.383
			c-0.19,0.191-0.345,0.457-0.462,0.797c-0.118,0.342-0.178,0.786-0.178,1.336v5.328c-0.471,0.078-0.937,0.117-1.396,0.117
			c-0.458,0-0.924-0.039-1.396-0.117V7.759z"/>
		<path d="M110.96,7.896c0.079-0.013,0.177-0.022,0.295-0.029c0.118-0.006,0.217-0.01,0.296-0.01c0.078,0,0.176,0.004,0.294,0.01
			c0.118,0.007,0.217,0.017,0.295,0.029l0.118,1.377c0.275-0.42,0.671-0.793,1.189-1.121c0.518-0.328,1.189-0.491,2.015-0.491
			c0.615,0,1.18,0.095,1.69,0.284c0.511,0.191,0.946,0.488,1.307,0.895c0.361,0.406,0.643,0.918,0.846,1.533
			c0.203,0.616,0.305,1.357,0.305,2.221c0,0.865-0.118,1.643-0.354,2.33c-0.236,0.688-0.58,1.271-1.033,1.749
			c-0.451,0.479-1.009,0.845-1.67,1.101c-0.662,0.256-1.419,0.384-2.271,0.384c-0.314,0-0.655-0.026-1.022-0.079
			c-0.367-0.052-0.701-0.131-1.002-0.235v4.718c-0.079,0.013-0.19,0.022-0.334,0.029c-0.145,0.006-0.25,0.01-0.314,0.01
			c-0.079,0-0.188-0.004-0.324-0.01c-0.138-0.007-0.246-0.017-0.325-0.029V7.896z M112.258,16.644
			c0.301,0.118,0.612,0.206,0.934,0.266c0.32,0.059,0.75,0.089,1.287,0.089c0.512,0,0.996-0.082,1.455-0.246
			c0.458-0.164,0.858-0.423,1.199-0.776c0.34-0.354,0.609-0.803,0.806-1.347c0.196-0.543,0.295-1.195,0.295-1.955
			c0-1.206-0.227-2.15-0.679-2.832c-0.451-0.681-1.183-1.021-2.191-1.021c-0.314,0-0.655,0.053-1.021,0.158
			c-0.367,0.104-0.705,0.284-1.013,0.54c-0.308,0.255-0.563,0.589-0.767,1.002s-0.305,0.935-0.305,1.563V16.644z"/>
		<path d="M127.857,11.297c0-0.864-0.203-1.497-0.609-1.896s-1.01-0.6-1.809-0.6c-0.523,0-1.002,0.037-1.435,0.107
			c-0.433,0.072-0.819,0.162-1.16,0.266c-0.065-0.117-0.121-0.287-0.167-0.511c-0.046-0.222-0.068-0.433-0.068-0.628
			c0.341-0.105,0.76-0.193,1.258-0.266s1.009-0.108,1.533-0.108c1.271,0,2.214,0.278,2.831,0.835
			c0.615,0.557,0.923,1.432,0.923,2.624v6.624c-0.459,0.093-1.016,0.184-1.671,0.275s-1.277,0.138-1.867,0.138
			c-1.218,0-2.179-0.242-2.879-0.728c-0.702-0.484-1.052-1.271-1.052-2.358c0-0.524,0.102-0.993,0.305-1.405s0.484-0.76,0.845-1.042
			s0.793-0.494,1.298-0.64c0.504-0.144,1.058-0.215,1.661-0.215c0.472,0,0.878,0.016,1.218,0.049
			c0.341,0.033,0.623,0.062,0.846,0.088V11.297z M127.857,13.047c-0.223-0.026-0.502-0.056-0.836-0.089
			c-0.334-0.032-0.651-0.049-0.953-0.049c-0.982,0-1.742,0.184-2.28,0.55c-0.537,0.367-0.806,0.893-0.806,1.572
			c0,0.434,0.082,0.78,0.246,1.042c0.164,0.263,0.376,0.462,0.639,0.6c0.262,0.138,0.551,0.229,0.865,0.275s0.629,0.069,0.943,0.069
			c0.406,0,0.786-0.02,1.14-0.06c0.354-0.039,0.701-0.091,1.042-0.157V13.047z"/>
		<path d="M132.214,7.896c0.104-0.013,0.206-0.022,0.305-0.029c0.099-0.006,0.192-0.01,0.285-0.01c0.104,0,0.203,0.004,0.295,0.01
			c0.091,0.007,0.189,0.017,0.294,0.029c0.026,0.236,0.046,0.515,0.06,0.836c0.013,0.32,0.02,0.612,0.02,0.875
			c0.263-0.484,0.629-0.895,1.101-1.229c0.473-0.335,1.094-0.502,1.868-0.502c0.064,0,0.134,0,0.206,0s0.154,0.007,0.245,0.02
			c0.04,0.223,0.06,0.433,0.06,0.629c0,0.211-0.02,0.413-0.06,0.609c-0.104-0.012-0.187-0.02-0.245-0.02s-0.121,0-0.187,0
			c-0.892,0-1.605,0.282-2.143,0.846c-0.538,0.562-0.806,1.5-0.806,2.811v5.15c-0.079,0.012-0.188,0.021-0.324,0.029
			c-0.139,0.006-0.247,0.01-0.325,0.01c-0.065,0-0.171-0.004-0.314-0.01c-0.144-0.008-0.255-0.018-0.334-0.029V7.896z"/>
		<path d="M139.681,8.998h-1.71c-0.013-0.066-0.022-0.151-0.029-0.256c-0.007-0.105-0.01-0.21-0.01-0.314
			c0-0.105,0.003-0.203,0.01-0.295s0.017-0.17,0.029-0.236h1.71V6.01l1.219-1.199h0.079v3.086h2.713
			c0.013,0.066,0.022,0.145,0.029,0.236c0.006,0.092,0.01,0.189,0.01,0.295c0,0.104-0.004,0.209-0.01,0.314
			c-0.007,0.104-0.017,0.189-0.029,0.256h-2.713v6.525c0,0.328,0.042,0.586,0.128,0.776c0.085,0.19,0.196,0.337,0.334,0.442
			s0.295,0.174,0.472,0.206s0.356,0.05,0.54,0.05c0.459,0,0.858-0.06,1.199-0.178c0.092,0.342,0.157,0.708,0.196,1.102
			c-0.472,0.144-1.021,0.216-1.65,0.216c-0.747,0-1.354-0.2-1.818-0.6s-0.698-1.052-0.698-1.956V8.998z"/>
		<path d="M146.582,13.105c0,1.336,0.308,2.32,0.924,2.949c0.615,0.629,1.539,0.943,2.771,0.943c0.498,0,0.96-0.043,1.386-0.128
			s0.842-0.2,1.248-0.345c0.065,0.145,0.118,0.322,0.157,0.531s0.065,0.399,0.079,0.57c-0.38,0.17-0.826,0.301-1.337,0.393
			c-0.512,0.092-1.068,0.138-1.671,0.138c-0.864,0-1.608-0.128-2.231-0.384c-0.622-0.256-1.133-0.611-1.532-1.07
			c-0.4-0.459-0.695-1.006-0.885-1.643c-0.19-0.635-0.285-1.332-0.285-2.092c0-0.734,0.089-1.422,0.266-2.064
			s0.445-1.205,0.806-1.69c0.359-0.485,0.822-0.865,1.386-1.14c0.563-0.275,1.238-0.413,2.024-0.413c0.655,0,1.238,0.11,1.749,0.334
			c0.512,0.224,0.94,0.534,1.288,0.934c0.347,0.399,0.609,0.878,0.786,1.435c0.177,0.558,0.265,1.164,0.265,1.818
			c0,0.118-0.003,0.27-0.009,0.452c-0.007,0.185-0.017,0.341-0.029,0.472H146.582z M152.479,12.024c0-0.405-0.052-0.806-0.157-1.198
			c-0.104-0.394-0.269-0.738-0.491-1.033c-0.223-0.294-0.512-0.533-0.865-0.717s-0.779-0.275-1.277-0.275
			c-0.917,0-1.631,0.282-2.143,0.846c-0.511,0.562-0.819,1.355-0.924,2.378H152.479z"/>
		<path d="M157.235,8.998h-1.258c-0.014-0.066-0.022-0.145-0.029-0.236s-0.011-0.189-0.011-0.295c0-0.104,0.004-0.209,0.011-0.314
			s0.016-0.189,0.029-0.256h2.556v10.025c-0.079,0.012-0.188,0.021-0.324,0.029c-0.139,0.006-0.246,0.01-0.325,0.01
			c-0.065,0-0.17-0.004-0.314-0.01c-0.144-0.008-0.255-0.018-0.334-0.029V8.998z M156.587,5.439
			c-0.014-0.117-0.023-0.262-0.029-0.433c-0.007-0.17-0.011-0.313-0.011-0.433c0-0.104,0.004-0.235,0.011-0.393
			c0.006-0.157,0.016-0.288,0.029-0.393c0.118-0.014,0.262-0.023,0.433-0.03c0.17-0.006,0.314-0.009,0.432-0.009
			c0.105,0,0.236,0.003,0.394,0.009c0.157,0.007,0.288,0.017,0.394,0.03c0.013,0.104,0.022,0.235,0.029,0.393
			c0.006,0.157,0.01,0.289,0.01,0.393c0,0.119-0.004,0.263-0.01,0.433c-0.007,0.171-0.017,0.315-0.029,0.433
			c-0.105,0.014-0.236,0.023-0.394,0.029c-0.157,0.008-0.288,0.01-0.394,0.01c-0.117,0-0.262-0.002-0.432-0.01
			C156.849,5.463,156.705,5.453,156.587,5.439z"/>
	</g>
</g>
<g>
	<path d="M44.395,25.072c0.051-0.007,0.114-0.013,0.187-0.017c0.073-0.003,0.139-0.005,0.198-0.005c0.066,0,0.132,0.002,0.198,0.005
		c0.066,0.004,0.125,0.01,0.176,0.017v7.909c-0.051,0.007-0.11,0.013-0.176,0.017s-0.132,0.006-0.198,0.006
		c-0.073,0-0.145-0.002-0.214-0.006c-0.07-0.004-0.127-0.01-0.171-0.017V25.072z M45.671,28.934l2.783-3.861
		c0.059-0.007,0.119-0.013,0.182-0.017c0.062-0.003,0.123-0.005,0.182-0.005c0.081,0,0.157,0.002,0.231,0.005
		c0.073,0.004,0.15,0.01,0.231,0.017l-2.706,3.784l3.124,4.125c-0.081,0.007-0.164,0.013-0.248,0.017
		c-0.084,0.004-0.167,0.006-0.248,0.006c-0.066,0-0.134-0.002-0.204-0.006s-0.137-0.01-0.203-0.017L45.671,28.934z"/>
	<path d="M53.866,29.274c0-0.484-0.114-0.838-0.341-1.062c-0.227-0.224-0.564-0.335-1.012-0.335c-0.293,0-0.561,0.02-0.803,0.06
		c-0.242,0.041-0.458,0.091-0.649,0.149c-0.037-0.066-0.068-0.162-0.093-0.286c-0.026-0.125-0.039-0.242-0.039-0.353
		c0.19-0.059,0.425-0.107,0.704-0.148c0.278-0.04,0.564-0.061,0.858-0.061c0.711,0,1.239,0.156,1.584,0.468s0.517,0.801,0.517,1.469
		v3.707c-0.257,0.051-0.568,0.103-0.935,0.153c-0.367,0.052-0.715,0.077-1.045,0.077c-0.682,0-1.219-0.136-1.612-0.407
		c-0.392-0.271-0.588-0.711-0.588-1.319c0-0.294,0.057-0.556,0.17-0.787c0.114-0.23,0.271-0.425,0.473-0.583
		c0.202-0.157,0.443-0.276,0.726-0.357c0.282-0.08,0.592-0.121,0.929-0.121c0.264,0,0.491,0.01,0.682,0.028
		c0.19,0.018,0.348,0.034,0.473,0.049V29.274z M53.866,30.254c-0.125-0.015-0.281-0.031-0.468-0.05s-0.365-0.027-0.533-0.027
		c-0.55,0-0.976,0.103-1.276,0.308c-0.301,0.205-0.451,0.499-0.451,0.88c0,0.242,0.046,0.437,0.137,0.583
		c0.092,0.146,0.211,0.259,0.358,0.336c0.146,0.077,0.308,0.128,0.484,0.153c0.176,0.026,0.352,0.039,0.528,0.039
		c0.228,0,0.44-0.011,0.638-0.033c0.198-0.021,0.392-0.051,0.583-0.088V30.254z"/>
	<path d="M56.417,27.371c0.059-0.007,0.116-0.013,0.171-0.017c0.055-0.003,0.108-0.005,0.159-0.005c0.059,0,0.114,0.002,0.165,0.005
		c0.051,0.004,0.106,0.01,0.165,0.017c0.015,0.133,0.026,0.297,0.033,0.495s0.011,0.371,0.011,0.518
		c0.073-0.133,0.169-0.266,0.286-0.401s0.255-0.259,0.413-0.369c0.158-0.109,0.339-0.199,0.544-0.27
		c0.205-0.069,0.429-0.104,0.671-0.104c0.646,0,1.115,0.192,1.408,0.578c0.293,0.385,0.44,0.926,0.44,1.622v3.542
		c-0.044,0.007-0.104,0.013-0.182,0.017s-0.137,0.006-0.182,0.006c-0.037,0-0.095-0.002-0.176-0.006s-0.143-0.01-0.187-0.017v-3.322
		c0-0.623-0.097-1.07-0.292-1.342s-0.486-0.407-0.875-0.407c-0.257,0-0.499,0.052-0.726,0.154s-0.423,0.251-0.588,0.445
		s-0.295,0.435-0.391,0.721s-0.143,0.612-0.143,0.979v2.772c-0.044,0.007-0.104,0.013-0.181,0.017
		c-0.077,0.004-0.138,0.006-0.182,0.006c-0.037,0-0.095-0.002-0.176-0.006c-0.081-0.004-0.143-0.01-0.187-0.017V27.371z"/>
	<path d="M62.963,27.987h-0.957c-0.007-0.036-0.013-0.084-0.017-0.143c-0.004-0.059-0.005-0.117-0.005-0.177
		c0-0.059,0.001-0.113,0.005-0.164c0.003-0.052,0.009-0.096,0.017-0.133h0.957v-1.056l0.682-0.671h0.044v1.727h1.518
		c0.007,0.037,0.013,0.081,0.017,0.133c0.004,0.051,0.005,0.105,0.005,0.164c0,0.06-0.001,0.118-0.005,0.177
		s-0.009,0.106-0.017,0.143h-1.518v3.652c0,0.184,0.024,0.328,0.072,0.435c0.047,0.106,0.11,0.188,0.187,0.247
		s0.165,0.098,0.264,0.115c0.099,0.019,0.2,0.028,0.302,0.028c0.257,0,0.48-0.033,0.671-0.1c0.051,0.191,0.088,0.396,0.11,0.616
		c-0.264,0.081-0.572,0.121-0.924,0.121c-0.418,0-0.757-0.112-1.018-0.336s-0.39-0.588-0.39-1.094V27.987z"/>
	<path d="M68.628,33.113c-0.418,0-0.785-0.075-1.1-0.226c-0.315-0.15-0.578-0.357-0.787-0.621s-0.365-0.576-0.467-0.936
		c-0.103-0.358-0.154-0.744-0.154-1.154c0-0.411,0.051-0.796,0.154-1.155c0.103-0.359,0.258-0.671,0.467-0.935
		c0.209-0.265,0.471-0.472,0.787-0.622c0.315-0.15,0.682-0.226,1.1-0.226c0.418,0,0.783,0.075,1.094,0.226s0.572,0.357,0.781,0.622
		c0.209,0.264,0.366,0.575,0.473,0.935s0.16,0.744,0.16,1.155c0,0.41-0.053,0.796-0.16,1.154c-0.106,0.359-0.264,0.672-0.473,0.936
		s-0.47,0.471-0.781,0.621S69.046,33.113,68.628,33.113z M68.628,32.476c0.586,0,1.024-0.205,1.314-0.616
		c0.29-0.41,0.434-0.972,0.434-1.683c0-0.712-0.145-1.272-0.434-1.684c-0.29-0.41-0.728-0.615-1.314-0.615
		c-0.587,0-1.025,0.205-1.315,0.615c-0.29,0.411-0.434,0.972-0.434,1.684c0,0.711,0.145,1.272,0.434,1.683
		C67.603,32.271,68.041,32.476,68.628,32.476z"/>
	<path d="M72.752,27.371c0.059-0.007,0.116-0.013,0.171-0.017c0.055-0.003,0.108-0.005,0.159-0.005c0.059,0,0.114,0.002,0.165,0.005
		c0.051,0.004,0.106,0.01,0.165,0.017c0.015,0.133,0.026,0.297,0.033,0.495s0.011,0.371,0.011,0.518
		c0.073-0.133,0.169-0.266,0.286-0.401s0.255-0.259,0.413-0.369c0.158-0.109,0.339-0.199,0.544-0.27
		c0.205-0.069,0.429-0.104,0.671-0.104c0.646,0,1.115,0.192,1.408,0.578c0.293,0.385,0.44,0.926,0.44,1.622v3.542
		c-0.044,0.007-0.104,0.013-0.182,0.017s-0.137,0.006-0.182,0.006c-0.037,0-0.095-0.002-0.176-0.006s-0.143-0.01-0.187-0.017v-3.322
		c0-0.623-0.097-1.07-0.292-1.342s-0.486-0.407-0.875-0.407c-0.257,0-0.499,0.052-0.726,0.154s-0.423,0.251-0.588,0.445
		s-0.295,0.435-0.391,0.721s-0.143,0.612-0.143,0.979v2.772c-0.044,0.007-0.104,0.013-0.181,0.017
		c-0.077,0.004-0.138,0.006-0.182,0.006c-0.037,0-0.095-0.002-0.176-0.006c-0.081-0.004-0.143-0.01-0.187-0.017V27.371z"/>
	<path d="M81.938,25.072h3.883c0.007,0.044,0.013,0.098,0.017,0.16c0.003,0.062,0.005,0.122,0.005,0.181
		c0,0.052-0.002,0.112-0.005,0.182c-0.004,0.07-0.01,0.127-0.017,0.171h-3.124v2.673h2.706c0.007,0.044,0.013,0.098,0.017,0.159
		c0.003,0.062,0.005,0.123,0.005,0.182c0,0.052-0.002,0.112-0.005,0.182c-0.004,0.069-0.01,0.127-0.017,0.171h-2.706v3.85
		c-0.052,0.007-0.11,0.013-0.176,0.017c-0.066,0.004-0.133,0.006-0.198,0.006c-0.073,0-0.145-0.002-0.215-0.006
		c-0.069-0.004-0.126-0.01-0.17-0.017V25.072z"/>
	<path d="M87.097,27.371c0.059-0.007,0.116-0.013,0.171-0.017c0.055-0.003,0.108-0.005,0.159-0.005c0.059,0,0.113,0.002,0.165,0.005
		c0.052,0.004,0.106,0.01,0.165,0.017c0.015,0.133,0.025,0.288,0.033,0.468c0.007,0.18,0.011,0.343,0.011,0.489
		c0.146-0.271,0.353-0.5,0.616-0.688c0.264-0.187,0.612-0.28,1.045-0.28c0.036,0,0.075,0,0.115,0s0.086,0.004,0.138,0.011
		c0.022,0.125,0.033,0.242,0.033,0.353c0,0.117-0.011,0.23-0.033,0.341c-0.059-0.007-0.104-0.011-0.138-0.011s-0.067,0-0.104,0
		c-0.498,0-0.898,0.157-1.199,0.473s-0.45,0.84-0.45,1.573v2.882c-0.044,0.007-0.104,0.013-0.182,0.017s-0.138,0.006-0.182,0.006
		c-0.037,0-0.096-0.002-0.176-0.006c-0.081-0.004-0.144-0.01-0.188-0.017V27.371z"/>
	<path d="M91.243,30.286c0,0.748,0.173,1.298,0.518,1.65c0.345,0.352,0.861,0.528,1.551,0.528c0.278,0,0.537-0.024,0.775-0.072
		c0.238-0.047,0.471-0.111,0.698-0.192c0.037,0.081,0.066,0.18,0.088,0.297c0.022,0.118,0.037,0.225,0.044,0.319
		c-0.212,0.096-0.462,0.169-0.747,0.22c-0.286,0.052-0.599,0.077-0.936,0.077c-0.484,0-0.9-0.071-1.248-0.214
		c-0.349-0.144-0.635-0.343-0.858-0.6s-0.389-0.563-0.495-0.919s-0.159-0.746-0.159-1.172c0-0.41,0.05-0.795,0.148-1.154
		s0.249-0.675,0.451-0.946c0.201-0.271,0.46-0.484,0.775-0.638c0.315-0.154,0.692-0.231,1.133-0.231
		c0.366,0,0.693,0.062,0.979,0.188c0.285,0.124,0.525,0.299,0.72,0.522s0.342,0.491,0.44,0.803s0.148,0.651,0.148,1.018
		c0,0.065-0.002,0.15-0.006,0.253s-0.009,0.19-0.017,0.264H91.243z M94.544,29.682c0-0.228-0.03-0.451-0.089-0.671
		c-0.059-0.221-0.15-0.413-0.274-0.578c-0.125-0.165-0.286-0.299-0.484-0.401s-0.437-0.153-0.715-0.153
		c-0.514,0-0.913,0.157-1.199,0.473s-0.458,0.759-0.517,1.331H94.544z"/>
	<path d="M97.205,27.987h-0.703c-0.008-0.036-0.014-0.08-0.017-0.132c-0.004-0.051-0.006-0.106-0.006-0.165s0.002-0.117,0.006-0.176
		c0.003-0.059,0.009-0.106,0.017-0.144h1.43v5.61c-0.044,0.007-0.104,0.013-0.182,0.017s-0.138,0.006-0.182,0.006
		c-0.037,0-0.096-0.002-0.176-0.006c-0.081-0.004-0.144-0.01-0.188-0.017V27.987z M96.843,25.996
		c-0.008-0.065-0.013-0.146-0.017-0.241c-0.004-0.096-0.006-0.177-0.006-0.242c0-0.059,0.002-0.132,0.006-0.221
		c0.004-0.088,0.009-0.161,0.017-0.22c0.065-0.007,0.146-0.013,0.242-0.017c0.095-0.003,0.176-0.005,0.241-0.005
		c0.059,0,0.132,0.002,0.221,0.005c0.088,0.004,0.161,0.01,0.22,0.017c0.007,0.059,0.013,0.132,0.017,0.22
		c0.003,0.089,0.005,0.162,0.005,0.221c0,0.065-0.002,0.146-0.005,0.242c-0.004,0.095-0.01,0.176-0.017,0.241
		c-0.059,0.008-0.132,0.014-0.22,0.017c-0.089,0.004-0.162,0.006-0.221,0.006c-0.065,0-0.146-0.002-0.241-0.006
		C96.989,26.01,96.908,26.004,96.843,25.996z"/>
	<path d="M99.867,24.896c0.044-0.007,0.104-0.013,0.182-0.017s0.138-0.006,0.182-0.006c0.036,0,0.095,0.002,0.176,0.006
		s0.144,0.01,0.188,0.017v3.256c0.153-0.234,0.375-0.445,0.665-0.633c0.29-0.187,0.666-0.28,1.128-0.28
		c0.345,0,0.66,0.054,0.945,0.16c0.286,0.105,0.53,0.272,0.731,0.5c0.202,0.228,0.359,0.514,0.474,0.858
		c0.113,0.345,0.17,0.759,0.17,1.242c0,0.976-0.268,1.738-0.803,2.288c-0.535,0.551-1.309,0.825-2.321,0.825
		c-0.33,0-0.648-0.031-0.957-0.094c-0.308-0.062-0.561-0.13-0.759-0.203V24.896z M100.594,32.311
		c0.168,0.059,0.346,0.101,0.533,0.126c0.187,0.026,0.387,0.039,0.6,0.039c0.293,0,0.573-0.048,0.842-0.144
		c0.268-0.095,0.502-0.241,0.703-0.439c0.202-0.198,0.363-0.449,0.484-0.754c0.121-0.304,0.182-0.669,0.182-1.094
		c0-0.668-0.127-1.192-0.38-1.573c-0.253-0.382-0.661-0.572-1.227-0.572c-0.176,0-0.366,0.029-0.571,0.088
		c-0.206,0.059-0.395,0.158-0.566,0.297c-0.173,0.14-0.315,0.325-0.43,0.556c-0.113,0.231-0.17,0.522-0.17,0.875V32.311z"/>
	<path d="M106.313,27.371c0.044-0.007,0.106-0.013,0.188-0.017c0.08-0.003,0.139-0.005,0.176-0.005c0.044,0,0.104,0.002,0.182,0.005
		c0.077,0.004,0.138,0.01,0.182,0.017v3.157c0,0.396,0.04,0.721,0.121,0.974c0.08,0.253,0.199,0.451,0.357,0.594
		c0.157,0.144,0.35,0.242,0.577,0.297c0.228,0.056,0.484,0.083,0.77,0.083c0.242,0,0.459-0.013,0.649-0.039
		c0.19-0.025,0.359-0.061,0.506-0.104v-4.961c0.044-0.007,0.106-0.013,0.188-0.017c0.08-0.003,0.139-0.005,0.176-0.005
		c0.044,0,0.104,0.002,0.182,0.005c0.077,0.004,0.138,0.01,0.182,0.017v5.468c-0.271,0.073-0.574,0.137-0.908,0.192
		c-0.334,0.055-0.676,0.082-1.028,0.082c-0.345,0-0.669-0.033-0.974-0.099c-0.304-0.066-0.568-0.192-0.792-0.38
		c-0.224-0.187-0.401-0.445-0.533-0.775s-0.198-0.759-0.198-1.287V27.371z"/>
	<path d="M112.682,27.371c0.059-0.007,0.116-0.013,0.171-0.017c0.055-0.003,0.108-0.005,0.159-0.005
		c0.059,0,0.113,0.002,0.165,0.005c0.052,0.004,0.106,0.01,0.165,0.017c0.015,0.133,0.025,0.288,0.033,0.468
		c0.007,0.18,0.011,0.343,0.011,0.489c0.146-0.271,0.353-0.5,0.616-0.688c0.264-0.187,0.612-0.28,1.045-0.28
		c0.036,0,0.075,0,0.115,0s0.086,0.004,0.138,0.011c0.022,0.125,0.033,0.242,0.033,0.353c0,0.117-0.011,0.23-0.033,0.341
		c-0.059-0.007-0.104-0.011-0.138-0.011s-0.067,0-0.104,0c-0.498,0-0.898,0.157-1.199,0.473s-0.45,0.84-0.45,1.573v2.882
		c-0.044,0.007-0.104,0.013-0.182,0.017s-0.138,0.006-0.182,0.006c-0.037,0-0.096-0.002-0.176-0.006
		c-0.081-0.004-0.144-0.01-0.188-0.017V27.371z"/>
	<path d="M119.315,32.421c0.645,0.015,1.105,0.148,1.38,0.401c0.275,0.253,0.413,0.588,0.413,1.006c0,0.286-0.073,0.545-0.221,0.775
		c-0.146,0.231-0.352,0.43-0.615,0.595c-0.265,0.165-0.578,0.293-0.94,0.385c-0.363,0.092-0.758,0.138-1.183,0.138
		c-0.33,0-0.633-0.026-0.908-0.077c-0.274-0.052-0.513-0.134-0.715-0.248c-0.201-0.113-0.357-0.264-0.467-0.45
		c-0.11-0.188-0.165-0.417-0.165-0.688c0-0.279,0.08-0.547,0.241-0.804s0.37-0.447,0.627-0.571c-0.139-0.088-0.257-0.2-0.352-0.336
		c-0.096-0.136-0.143-0.303-0.143-0.5c0-0.286,0.067-0.524,0.203-0.716c0.136-0.19,0.317-0.362,0.544-0.517
		c-0.256-0.161-0.462-0.378-0.615-0.649c-0.154-0.271-0.231-0.594-0.231-0.968c0-0.271,0.046-0.526,0.138-0.765
		s0.229-0.445,0.412-0.621c0.184-0.176,0.409-0.315,0.677-0.418s0.577-0.154,0.93-0.154c0.301,0,0.568,0.039,0.803,0.115
		c0.234,0.077,0.44,0.179,0.616,0.303c0.073-0.029,0.165-0.062,0.275-0.099c0.109-0.037,0.23-0.067,0.362-0.094
		c0.132-0.025,0.268-0.048,0.407-0.065c0.14-0.019,0.275-0.028,0.407-0.028c0.029,0.11,0.044,0.231,0.044,0.363
		c0,0.14-0.015,0.264-0.044,0.374h-1.045c0.103,0.161,0.182,0.332,0.236,0.512s0.082,0.372,0.082,0.577
		c0,0.315-0.055,0.594-0.165,0.836c-0.109,0.242-0.262,0.445-0.456,0.61s-0.422,0.292-0.682,0.38
		c-0.261,0.088-0.541,0.132-0.842,0.132c-0.315,0-0.591-0.04-0.825-0.121c-0.205,0.132-0.351,0.259-0.435,0.38
		s-0.126,0.259-0.126,0.412c0,0.073,0.011,0.144,0.032,0.209c0.022,0.066,0.068,0.127,0.138,0.182c0.07,0.055,0.167,0.1,0.292,0.132
		c0.124,0.033,0.286,0.05,0.483,0.05L119.315,32.421z M117.753,33.08c-0.345-0.007-0.621,0.09-0.83,0.292
		c-0.209,0.201-0.313,0.468-0.313,0.798c0,0.176,0.04,0.322,0.121,0.439c0.08,0.117,0.192,0.209,0.335,0.275
		c0.144,0.065,0.31,0.111,0.501,0.137c0.19,0.026,0.392,0.039,0.604,0.039c0.683,0,1.214-0.115,1.595-0.347
		c0.382-0.23,0.572-0.508,0.572-0.83c0-0.279-0.095-0.478-0.286-0.595c-0.19-0.117-0.502-0.18-0.935-0.187L117.753,33.08z
		 M116.939,29.197c0,0.382,0.111,0.702,0.335,0.963c0.224,0.26,0.574,0.391,1.051,0.391s0.828-0.131,1.056-0.391
		c0.228-0.261,0.341-0.581,0.341-0.963c0-0.381-0.113-0.702-0.341-0.962c-0.228-0.261-0.579-0.391-1.056-0.391
		s-0.827,0.13-1.051,0.391C117.051,28.495,116.939,28.816,116.939,29.197z"/>
</g>
</svg>
