<?xml version="1.0" encoding="utf-8"?>
<!-- Generator: Adobe Illustrator 13.0.2, SVG Export Plug-In . SVG Version: 6.00 Build 14948)  -->
<!DOCTYPE svg PUBLIC "-//W3C//DTD SVG 1.1//EN" "http://www.w3.org/Graphics/SVG/1.1/DTD/svg11.dtd">
<svg version="1.1" id="Logo" xmlns="http://www.w3.org/2000/svg" xmlns:xlink="http://www.w3.org/1999/xlink" x="0px" y="0px"
	 width="136.48px" height="36.85px" viewBox="0 0 136.48 36.85" enable-background="new 0 0 136.48 36.85" xml:space="preserve" stroke-width="0">
<g>
	<path fill="#FFFFFF" d="M34.318,18.424c0,8.776-7.113,15.889-15.891,15.889c-8.771,0-15.889-7.113-15.889-15.889
		c0-8.773,7.117-15.887,15.889-15.887C27.205,2.537,34.318,9.65,34.318,18.424"/>
	<path d="M18.428,33.745c-8.459,0-15.32-6.859-15.32-15.321c0-8.461,6.861-15.32,15.32-15.32c8.465,0,15.323,6.859,15.323,15.32
		C33.751,26.885,26.893,33.745,18.428,33.745 M18.428,1.35c-9.43,0-17.076,7.641-17.076,17.074c0,9.43,7.646,17.077,17.076,17.077
		c9.432,0,17.079-7.646,17.079-17.077C35.507,8.99,27.859,1.35,18.428,1.35"/>
	<path d="M15.981,20.377c-0.894,0.627-1.636,1.211-2.249,1.771V10.275c1.242,0.262,2.557,0.799,3.464,1.867
		C19.424,14.775,18.67,18.492,15.981,20.377 M25.729,9.926c-3.694-2.072-8.324-2.09-11.997-1.148v-1.59h-1.594v2.078
		c-0.684,0.246-1.317,0.525-1.881,0.832c0,0,0.793-0.1,1.881-0.033v13.899c-0.792,1.221-0.983,2.408-0.797,3.777
		c0.212,1.531,1.367,2.553,2.279,3.309c-0.537-1.545-0.578-2.949-0.42-3.799c0.301-1.588,1.232-2.73,5.252-3.6
		c4.17-0.9,9.112-1.316,10.746-5.366C29.942,16.436,30.403,12.549,25.729,9.926"/>
	<path d="M5.636,5.631c-3.275,3.275-5.3,7.795-5.3,12.793c0,4.997,2.024,9.516,5.3,12.792c3.274,3.275,7.797,5.299,12.792,5.299
		c4.997,0,9.52-2.023,12.795-5.299s5.3-7.795,5.3-12.792c0-4.998-2.024-9.518-5.3-12.793c-3.275-3.273-7.798-5.297-12.795-5.297
		C13.432,0.334,8.91,2.357,5.636,5.631 M0,18.424C0,8.244,8.252,0,18.428,0c10.178,0,18.43,8.244,18.43,18.424
		c0,10.174-8.252,18.426-18.43,18.426C8.252,36.85,0,28.598,0,18.424"/>
	<path d="M46.115,16.643c0.302,0.119,0.613,0.207,0.935,0.266s0.75,0.09,1.287,0.09c0.511,0,0.996-0.082,1.455-0.246
		c0.458-0.164,0.858-0.424,1.198-0.777c0.342-0.354,0.609-0.803,0.807-1.346c0.195-0.543,0.295-1.197,0.295-1.955
		c0-1.207-0.227-2.15-0.678-2.832c-0.453-0.68-1.184-1.021-2.192-1.021c-0.315,0-0.655,0.053-1.022,0.156
		c-0.366,0.105-0.704,0.285-1.012,0.541c-0.309,0.256-0.563,0.59-0.767,1.002c-0.204,0.414-0.306,0.934-0.306,1.564V16.643z
		 M44.818,7.896c0.08-0.014,0.178-0.023,0.295-0.029c0.119-0.006,0.217-0.012,0.295-0.012s0.178,0.006,0.295,0.012
		s0.216,0.016,0.295,0.029l0.117,1.375c0.275-0.418,0.673-0.793,1.19-1.119c0.517-0.328,1.189-0.492,2.015-0.492
		c0.615,0,1.18,0.096,1.689,0.285c0.512,0.189,0.947,0.488,1.309,0.895c0.359,0.406,0.642,0.918,0.845,1.533
		c0.202,0.617,0.304,1.355,0.304,2.221s-0.117,1.643-0.354,2.33c-0.235,0.688-0.58,1.271-1.031,1.748
		c-0.452,0.48-1.01,0.846-1.671,1.102c-0.662,0.256-1.419,0.383-2.271,0.383c-0.313,0-0.655-0.025-1.021-0.078
		c-0.367-0.051-0.702-0.131-1.004-0.236v4.717c-0.077,0.014-0.189,0.023-0.334,0.031c-0.144,0.006-0.248,0.01-0.314,0.01
		c-0.078,0-0.186-0.004-0.324-0.01c-0.137-0.008-0.244-0.018-0.324-0.031V7.896z"/>
	<path d="M61.648,13.047c-0.224-0.027-0.502-0.057-0.836-0.09c-0.334-0.031-0.652-0.049-0.953-0.049
		c-0.982,0-1.742,0.184-2.281,0.551c-0.536,0.367-0.805,0.891-0.805,1.572c0,0.434,0.082,0.779,0.245,1.041
		c0.164,0.264,0.378,0.463,0.64,0.602c0.262,0.137,0.55,0.229,0.865,0.273c0.313,0.047,0.629,0.07,0.942,0.07
		c0.405,0,0.786-0.021,1.14-0.061c0.354-0.039,0.701-0.092,1.043-0.156V13.047z M61.648,11.297c0-0.865-0.203-1.496-0.611-1.896
		c-0.405-0.4-1.008-0.6-1.807-0.6c-0.525,0-1.002,0.035-1.436,0.107c-0.432,0.072-0.819,0.16-1.159,0.266
		c-0.065-0.117-0.122-0.287-0.167-0.512C56.423,8.439,56.4,8.23,56.4,8.033c0.34-0.104,0.76-0.191,1.258-0.264
		s1.009-0.109,1.533-0.109c1.271,0,2.215,0.279,2.83,0.836s0.924,1.432,0.924,2.623v6.625c-0.459,0.092-1.016,0.184-1.67,0.275
		c-0.656,0.092-1.279,0.137-1.869,0.137c-1.217,0-2.178-0.242-2.879-0.727s-1.052-1.271-1.052-2.359
		c0-0.523,0.101-0.992,0.306-1.406c0.203-0.412,0.483-0.76,0.845-1.041c0.36-0.281,0.793-0.494,1.297-0.639
		c0.505-0.143,1.058-0.215,1.661-0.215c0.472,0,0.878,0.016,1.219,0.049c0.34,0.033,0.622,0.062,0.846,0.088V11.297z"/>
	<path d="M66.208,7.896c0.104-0.014,0.207-0.023,0.304-0.029c0.1-0.006,0.194-0.012,0.286-0.012c0.104,0,0.202,0.006,0.294,0.012
		s0.19,0.016,0.295,0.029c0.026,0.236,0.047,0.516,0.059,0.836c0.014,0.32,0.021,0.611,0.021,0.873
		c0.263-0.484,0.63-0.893,1.101-1.229c0.472-0.334,1.095-0.5,1.867-0.5h0.207c0.071,0,0.153,0.006,0.245,0.02
		c0.04,0.223,0.06,0.432,0.06,0.629c0,0.211-0.02,0.412-0.06,0.609c-0.104-0.014-0.187-0.02-0.245-0.02h-0.188
		c-0.891,0-1.605,0.281-2.143,0.846c-0.537,0.562-0.806,1.5-0.806,2.811v5.15c-0.078,0.012-0.187,0.021-0.323,0.029
		c-0.139,0.006-0.246,0.01-0.324,0.01c-0.066,0-0.172-0.004-0.315-0.01c-0.144-0.008-0.256-0.018-0.334-0.029V7.896z"/>
	<path d="M73.539,8.996H71.83c-0.014-0.064-0.023-0.148-0.03-0.254s-0.009-0.211-0.009-0.314c0-0.105,0.002-0.203,0.009-0.295
		s0.017-0.17,0.03-0.236h1.709V6.01l1.22-1.199h0.077v3.086h2.714c0.013,0.066,0.022,0.145,0.028,0.236s0.01,0.189,0.01,0.295
		c0,0.104-0.004,0.209-0.01,0.314s-0.016,0.189-0.028,0.254h-2.714v6.527c0,0.328,0.043,0.586,0.129,0.775
		c0.085,0.191,0.197,0.338,0.334,0.443c0.138,0.105,0.295,0.174,0.472,0.205c0.177,0.033,0.356,0.049,0.54,0.049
		c0.459,0,0.859-0.059,1.2-0.176c0.091,0.34,0.157,0.707,0.196,1.102c-0.473,0.143-1.022,0.215-1.651,0.215
		c-0.747,0-1.353-0.199-1.817-0.6c-0.467-0.398-0.699-1.051-0.699-1.955V8.996z"/>
	<path d="M79.711,5.439c-0.014-0.117-0.023-0.262-0.029-0.432c-0.007-0.17-0.01-0.316-0.01-0.434c0-0.104,0.003-0.234,0.01-0.393
		c0.006-0.158,0.016-0.289,0.029-0.395c0.117-0.012,0.263-0.021,0.433-0.027c0.171-0.008,0.314-0.012,0.433-0.012
		c0.104,0,0.236,0.004,0.393,0.012c0.158,0.006,0.289,0.016,0.395,0.027c0.013,0.105,0.021,0.236,0.028,0.395
		s0.011,0.289,0.011,0.393c0,0.117-0.004,0.264-0.011,0.434s-0.016,0.314-0.028,0.432c-0.105,0.012-0.236,0.023-0.395,0.029
		c-0.156,0.008-0.288,0.01-0.393,0.01c-0.118,0-0.262-0.002-0.433-0.01C79.974,5.463,79.828,5.451,79.711,5.439 M80.359,8.996
		h-1.258c-0.013-0.064-0.023-0.143-0.029-0.234s-0.01-0.191-0.01-0.295c0-0.105,0.004-0.209,0.01-0.314s0.017-0.189,0.029-0.256
		h2.555v10.025c-0.078,0.012-0.186,0.021-0.323,0.029c-0.138,0.006-0.246,0.008-0.324,0.008c-0.065,0-0.171-0.002-0.315-0.008
		c-0.144-0.008-0.254-0.018-0.334-0.029V8.996z"/>
	<path fill="#F9B200" d="M87.223,15.76c0.354,0.104,0.761,0.156,1.22,0.156c0.812,0,1.435-0.262,1.866-0.785
		c0.433-0.525,0.65-1.318,0.65-2.379c0-0.406-0.033-0.783-0.099-1.131s-0.177-0.645-0.334-0.895
		c-0.158-0.248-0.358-0.445-0.601-0.59s-0.541-0.215-0.895-0.215c-0.327,0-0.605,0.061-0.835,0.186s-0.416,0.295-0.56,0.512
		c-0.145,0.217-0.25,0.469-0.314,0.758c-0.066,0.287-0.1,0.596-0.1,0.922V15.76z M84.432,7.738c0.184-0.039,0.365-0.064,0.541-0.078
		c0.177-0.014,0.377-0.02,0.6-0.02c0.367,0,0.74,0.039,1.12,0.119c0.04,0.064,0.075,0.16,0.108,0.285
		c0.033,0.123,0.065,0.258,0.099,0.402c0.032,0.145,0.06,0.285,0.079,0.422c0.019,0.139,0.035,0.252,0.048,0.344
		c0.119-0.209,0.262-0.416,0.433-0.619c0.17-0.203,0.377-0.383,0.619-0.539c0.243-0.158,0.514-0.285,0.816-0.385
		c0.301-0.098,0.635-0.146,1.003-0.146c0.563,0,1.09,0.105,1.582,0.314c0.491,0.209,0.92,0.527,1.286,0.951
		c0.367,0.428,0.652,0.963,0.855,1.604c0.203,0.643,0.305,1.402,0.305,2.281c0,0.852-0.125,1.613-0.373,2.289
		c-0.25,0.676-0.609,1.248-1.082,1.721c-0.471,0.471-1.047,0.834-1.729,1.09c-0.681,0.256-1.454,0.383-2.319,0.383
		c-0.223,0-0.441-0.01-0.658-0.029s-0.396-0.041-0.541-0.068v4.52c-0.248,0.041-0.487,0.066-0.717,0.08s-0.455,0.02-0.678,0.02
		s-0.449-0.006-0.679-0.02s-0.468-0.039-0.718-0.08V7.738z"/>
	<path fill="#F9B200" d="M96.245,6.049c-0.078-0.445-0.117-0.885-0.117-1.316c0-0.42,0.039-0.859,0.117-1.318
		c0.223-0.039,0.462-0.068,0.718-0.088s0.488-0.029,0.698-0.029c0.222,0,0.465,0.01,0.727,0.029c0.263,0.02,0.505,0.049,0.728,0.088
		c0.039,0.223,0.065,0.443,0.078,0.66c0.014,0.215,0.021,0.436,0.021,0.658c0,0.209-0.007,0.426-0.021,0.648
		c-0.013,0.223-0.039,0.445-0.078,0.668c-0.223,0.039-0.463,0.066-0.717,0.078c-0.256,0.014-0.496,0.021-0.719,0.021
		c-0.209,0-0.445-0.008-0.707-0.021C96.71,6.115,96.468,6.088,96.245,6.049 M96.658,9.881h-1.317
		c-0.039-0.17-0.067-0.35-0.088-0.539s-0.03-0.371-0.03-0.541c0-0.354,0.04-0.701,0.118-1.043h4.05V17.92
		c-0.472,0.08-0.931,0.119-1.376,0.119c-0.433,0-0.885-0.039-1.356-0.119V9.881z"/>
	<path fill="#F9B200" d="M102.143,7.758c0.196-0.039,0.383-0.068,0.56-0.088s0.37-0.029,0.58-0.029c0.196,0,0.39,0.014,0.579,0.039
		c0.19,0.027,0.377,0.059,0.561,0.1c0.04,0.064,0.075,0.16,0.107,0.285c0.033,0.123,0.062,0.254,0.09,0.393
		c0.025,0.137,0.049,0.275,0.068,0.412s0.037,0.252,0.049,0.344c0.289-0.406,0.643-0.77,1.062-1.09
		c0.42-0.322,0.944-0.482,1.572-0.482c0.131,0,0.282,0.008,0.452,0.02c0.171,0.014,0.295,0.033,0.373,0.059
		c0.027,0.133,0.047,0.283,0.06,0.453s0.021,0.348,0.021,0.529c0,0.225-0.01,0.467-0.03,0.729c-0.019,0.262-0.056,0.512-0.108,0.746
		c-0.144-0.025-0.304-0.039-0.48-0.039h-0.325c-0.222,0-0.472,0.023-0.747,0.068c-0.275,0.047-0.537,0.168-0.786,0.365
		c-0.249,0.195-0.456,0.49-0.618,0.883c-0.164,0.395-0.246,0.945-0.246,1.652v4.836c-0.236,0.039-0.472,0.064-0.707,0.078
		c-0.236,0.014-0.467,0.02-0.689,0.02s-0.448-0.006-0.678-0.02s-0.469-0.039-0.717-0.078V7.758z"/>
	<path fill="#F9B200" d="M114.918,13.264c-0.156-0.027-0.328-0.051-0.51-0.07c-0.185-0.02-0.349-0.029-0.492-0.029
		c-0.643,0-1.149,0.115-1.523,0.344c-0.373,0.23-0.561,0.6-0.561,1.111c0,0.34,0.072,0.604,0.217,0.785
		c0.144,0.184,0.318,0.318,0.521,0.404c0.203,0.084,0.419,0.137,0.649,0.156c0.229,0.02,0.429,0.029,0.599,0.029
		c0.197,0,0.394-0.016,0.591-0.049c0.196-0.033,0.366-0.061,0.51-0.088V13.264z M114.918,11.238c0-0.316-0.051-0.57-0.156-0.768
		c-0.105-0.195-0.249-0.35-0.434-0.461c-0.183-0.111-0.408-0.188-0.678-0.227c-0.268-0.039-0.566-0.059-0.895-0.059
		c-0.707,0-1.461,0.137-2.26,0.412c-0.184-0.34-0.322-0.66-0.412-0.963c-0.092-0.301-0.139-0.662-0.139-1.08
		c0.577-0.197,1.153-0.342,1.73-0.434c0.576-0.092,1.113-0.137,1.611-0.137c1.362,0,2.428,0.328,3.194,0.982
		s1.149,1.703,1.149,3.145v5.896c-0.459,0.145-1.016,0.283-1.67,0.412c-0.656,0.133-1.396,0.197-2.222,0.197
		c-0.668,0-1.28-0.059-1.838-0.176c-0.557-0.119-1.036-0.314-1.435-0.59c-0.4-0.275-0.709-0.629-0.924-1.062
		c-0.217-0.432-0.324-0.963-0.324-1.592s0.134-1.156,0.402-1.582s0.615-0.766,1.043-1.023c0.424-0.254,0.899-0.438,1.424-0.549
		s1.049-0.168,1.572-0.168c0.381,0,0.799,0.021,1.258,0.061V11.238z"/>
	<path fill="#F9B200" d="M120.383,9.881h-1.277l-0.099-0.393l3.677-4.697h0.451v2.967h2.378c0.04,0.197,0.066,0.375,0.079,0.531
		c0.014,0.158,0.02,0.322,0.02,0.492c0,0.184-0.006,0.361-0.02,0.531c-0.013,0.17-0.039,0.359-0.079,0.568h-2.378v3.99
		c0,0.406,0.032,0.734,0.098,0.984c0.065,0.248,0.16,0.445,0.285,0.59c0.125,0.143,0.278,0.242,0.463,0.293
		c0.183,0.053,0.398,0.08,0.647,0.08c0.196,0,0.39-0.018,0.58-0.049c0.19-0.033,0.356-0.062,0.502-0.09
		c0.091,0.248,0.157,0.508,0.196,0.777s0.059,0.508,0.059,0.717c0,0.145-0.003,0.266-0.01,0.363
		c-0.006,0.098-0.016,0.193-0.029,0.285c-0.604,0.145-1.227,0.217-1.867,0.217c-1.193,0-2.104-0.279-2.732-0.836
		s-0.943-1.465-0.943-2.721V9.881z"/>
	<path fill="#F9B200" d="M133.847,11.748c-0.026-0.629-0.198-1.137-0.521-1.521c-0.321-0.389-0.77-0.58-1.346-0.58
		c-0.656,0-1.154,0.184-1.494,0.549c-0.342,0.367-0.545,0.885-0.609,1.553H133.847z M129.857,13.695
		c0.051,0.785,0.327,1.355,0.825,1.709c0.498,0.355,1.153,0.531,1.966,0.531c0.445,0,0.9-0.043,1.365-0.127
		c0.467-0.086,0.907-0.207,1.327-0.363c0.144,0.26,0.269,0.576,0.374,0.943c0.105,0.365,0.164,0.76,0.176,1.178
		c-1.021,0.393-2.175,0.59-3.459,0.59c-0.943,0-1.752-0.131-2.427-0.393c-0.677-0.262-1.226-0.625-1.651-1.092
		c-0.427-0.465-0.74-1.018-0.943-1.66s-0.305-1.344-0.305-2.104c0-0.746,0.104-1.447,0.314-2.104
		c0.209-0.654,0.521-1.225,0.934-1.709s0.924-0.867,1.533-1.15c0.609-0.281,1.32-0.422,2.133-0.422c0.707,0,1.336,0.125,1.887,0.373
		c0.551,0.25,1.019,0.59,1.406,1.021c0.387,0.434,0.678,0.947,0.873,1.543c0.197,0.598,0.295,1.236,0.295,1.916
		c0,0.25-0.009,0.496-0.029,0.738c-0.02,0.242-0.043,0.436-0.068,0.58H129.857z"/>
</g>
<g>
	<path d="M44.808,25.185c0.073-0.007,0.178-0.018,0.313-0.033c0.136-0.015,0.281-0.029,0.435-0.044
		c0.154-0.015,0.31-0.025,0.468-0.032c0.157-0.008,0.298-0.012,0.423-0.012c0.865,0,1.529,0.167,1.991,0.501
		c0.462,0.334,0.693,0.853,0.693,1.557c0,0.227-0.035,0.435-0.104,0.621c-0.07,0.188-0.164,0.355-0.281,0.506
		s-0.255,0.277-0.412,0.38c-0.158,0.103-0.321,0.18-0.49,0.23c0.227,0.029,0.447,0.09,0.66,0.182
		c0.212,0.092,0.401,0.22,0.566,0.385s0.297,0.371,0.396,0.616c0.099,0.246,0.148,0.541,0.148,0.886
		c0,0.396-0.079,0.737-0.236,1.023c-0.158,0.285-0.378,0.524-0.66,0.715s-0.616,0.332-1.001,0.423
		c-0.385,0.092-0.805,0.138-1.259,0.138c-0.118,0-0.25-0.004-0.396-0.011c-0.147-0.008-0.295-0.017-0.446-0.027
		c-0.15-0.012-0.297-0.026-0.44-0.044c-0.143-0.019-0.266-0.035-0.369-0.05V25.185z M46.612,28.551c0.594,0,1.028-0.132,1.303-0.396
		c0.275-0.264,0.413-0.608,0.413-1.033c0-0.396-0.145-0.729-0.435-0.996c-0.29-0.268-0.746-0.401-1.369-0.401
		c-0.191,0-0.373,0.008-0.544,0.022c-0.172,0.015-0.31,0.029-0.413,0.044v2.761H46.612z M45.567,32.478
		c0.103,0.015,0.24,0.027,0.413,0.039c0.172,0.011,0.354,0.017,0.544,0.017c0.286,0,0.566-0.026,0.841-0.077
		c0.275-0.052,0.519-0.14,0.731-0.265c0.213-0.124,0.383-0.289,0.512-0.495c0.128-0.205,0.192-0.462,0.192-0.77
		s-0.055-0.566-0.165-0.775s-0.26-0.38-0.451-0.512c-0.19-0.132-0.414-0.228-0.671-0.286s-0.532-0.088-0.825-0.088h-1.122V32.478z"
		/>
	<path d="M51.584,30.399c0,0.748,0.172,1.298,0.517,1.65c0.345,0.352,0.862,0.528,1.551,0.528c0.278,0,0.537-0.024,0.775-0.072
		c0.238-0.047,0.471-0.111,0.699-0.192c0.037,0.081,0.066,0.18,0.088,0.297c0.022,0.118,0.037,0.225,0.044,0.319
		c-0.213,0.096-0.462,0.169-0.748,0.22c-0.286,0.052-0.598,0.077-0.935,0.077c-0.484,0-0.9-0.071-1.249-0.214
		c-0.348-0.144-0.634-0.343-0.858-0.6s-0.389-0.563-0.495-0.919s-0.159-0.746-0.159-1.172c0-0.41,0.049-0.795,0.148-1.154
		s0.249-0.675,0.451-0.946s0.46-0.484,0.776-0.638c0.315-0.154,0.693-0.231,1.133-0.231c0.367,0,0.693,0.062,0.979,0.188
		c0.286,0.124,0.526,0.299,0.721,0.522c0.194,0.224,0.341,0.491,0.44,0.803s0.148,0.651,0.148,1.018c0,0.065-0.002,0.15-0.005,0.253
		c-0.004,0.103-0.009,0.19-0.017,0.264H51.584z M54.884,29.794c0-0.228-0.029-0.451-0.088-0.671
		c-0.059-0.221-0.15-0.413-0.275-0.578c-0.125-0.165-0.286-0.299-0.484-0.401c-0.198-0.103-0.436-0.153-0.715-0.153
		c-0.513,0-0.913,0.157-1.199,0.473c-0.286,0.315-0.458,0.759-0.517,1.331H54.884z"/>
	<path d="M57.205,27.484c0.059-0.007,0.116-0.013,0.171-0.017c0.055-0.003,0.108-0.005,0.159-0.005c0.059,0,0.114,0.002,0.165,0.005
		c0.051,0.004,0.106,0.01,0.165,0.017c0.015,0.133,0.026,0.288,0.033,0.468s0.011,0.343,0.011,0.489
		c0.147-0.271,0.352-0.5,0.616-0.688c0.264-0.187,0.612-0.28,1.045-0.28c0.037,0,0.075,0,0.116,0c0.04,0,0.086,0.004,0.137,0.011
		c0.022,0.125,0.033,0.242,0.033,0.353c0,0.117-0.011,0.23-0.033,0.341c-0.059-0.007-0.104-0.011-0.137-0.011
		c-0.033,0-0.068,0-0.104,0c-0.499,0-0.898,0.157-1.199,0.473s-0.451,0.84-0.451,1.573v2.882c-0.044,0.007-0.104,0.013-0.181,0.017
		c-0.077,0.004-0.138,0.006-0.182,0.006c-0.037,0-0.095-0.002-0.176-0.006c-0.081-0.004-0.143-0.01-0.187-0.017V27.484z"/>
	<path d="M61.054,27.484c0.059-0.007,0.116-0.013,0.171-0.017c0.055-0.003,0.108-0.005,0.159-0.005c0.059,0,0.114,0.002,0.165,0.005
		c0.051,0.004,0.106,0.01,0.165,0.017c0.015,0.133,0.026,0.297,0.033,0.495s0.011,0.371,0.011,0.518
		c0.073-0.133,0.169-0.266,0.286-0.401s0.255-0.259,0.413-0.369c0.158-0.109,0.339-0.199,0.545-0.27
		c0.205-0.069,0.428-0.104,0.67-0.104c0.646,0,1.116,0.192,1.409,0.578c0.293,0.385,0.439,0.926,0.439,1.622v3.542
		c-0.043,0.007-0.104,0.013-0.18,0.017c-0.078,0.004-0.139,0.006-0.182,0.006c-0.037,0-0.096-0.002-0.178-0.006
		c-0.08-0.004-0.143-0.01-0.186-0.017v-3.322c0-0.623-0.098-1.07-0.293-1.342c-0.193-0.271-0.484-0.407-0.873-0.407
		c-0.258,0-0.5,0.052-0.727,0.154c-0.228,0.103-0.423,0.251-0.588,0.445s-0.295,0.435-0.391,0.721s-0.143,0.612-0.143,0.979v2.772
		c-0.044,0.007-0.104,0.013-0.181,0.017c-0.077,0.004-0.138,0.006-0.182,0.006c-0.037,0-0.095-0.002-0.176-0.006
		c-0.081-0.004-0.143-0.01-0.187-0.017V27.484z"/>
	<path d="M69.535,33.226c-0.417,0-0.785-0.075-1.101-0.226c-0.314-0.15-0.576-0.357-0.785-0.621s-0.365-0.576-0.469-0.936
		c-0.102-0.358-0.152-0.744-0.152-1.154c0-0.411,0.051-0.796,0.152-1.155c0.104-0.359,0.26-0.671,0.469-0.935
		c0.209-0.265,0.471-0.472,0.785-0.622c0.316-0.15,0.684-0.226,1.101-0.226c0.418,0,0.781,0.075,1.094,0.226
		s0.572,0.357,0.781,0.622c0.209,0.264,0.367,0.575,0.473,0.935s0.16,0.744,0.16,1.155c0,0.41-0.055,0.796-0.16,1.154
		c-0.105,0.359-0.264,0.672-0.473,0.936S70.941,32.85,70.629,33S69.953,33.226,69.535,33.226z M69.535,32.588
		c0.586,0,1.023-0.205,1.314-0.616c0.289-0.41,0.434-0.972,0.434-1.683c0-0.712-0.145-1.272-0.434-1.684
		c-0.291-0.41-0.729-0.615-1.314-0.615c-0.587,0-1.025,0.205-1.314,0.615c-0.291,0.411-0.436,0.972-0.436,1.684
		c0,0.711,0.145,1.272,0.436,1.683C68.51,32.383,68.948,32.588,69.535,32.588z"/>
	<path d="M74,28.1h-0.703c-0.008-0.036-0.014-0.08-0.016-0.132c-0.004-0.051-0.006-0.106-0.006-0.165s0.002-0.117,0.006-0.176
		c0.002-0.059,0.008-0.106,0.016-0.144h1.43v5.61c-0.043,0.007-0.104,0.013-0.182,0.017c-0.076,0.004-0.137,0.006-0.182,0.006
		c-0.037,0-0.096-0.002-0.176-0.006s-0.143-0.01-0.188-0.017V28.1z M73.639,26.109c-0.008-0.065-0.014-0.146-0.018-0.241
		c-0.004-0.096-0.006-0.177-0.006-0.242c0-0.059,0.002-0.132,0.006-0.221c0.004-0.088,0.01-0.161,0.018-0.22
		c0.064-0.007,0.146-0.013,0.242-0.017c0.094-0.003,0.176-0.005,0.24-0.005c0.059,0,0.133,0.002,0.221,0.005
		c0.088,0.004,0.162,0.01,0.221,0.017c0.006,0.059,0.012,0.132,0.016,0.22c0.004,0.089,0.006,0.162,0.006,0.221
		c0,0.065-0.002,0.146-0.006,0.242c-0.004,0.095-0.01,0.176-0.016,0.241c-0.059,0.008-0.133,0.014-0.221,0.017
		c-0.088,0.004-0.162,0.006-0.221,0.006c-0.064,0-0.146-0.002-0.24-0.006C73.785,26.123,73.703,26.117,73.639,26.109z"/>
	<path d="M76.51,32.325c0.16,0.065,0.369,0.122,0.627,0.17c0.256,0.048,0.502,0.071,0.736,0.071c0.439,0,0.787-0.097,1.045-0.291
		c0.256-0.194,0.385-0.435,0.385-0.721c0-0.198-0.039-0.361-0.115-0.489c-0.078-0.129-0.18-0.236-0.309-0.324
		c-0.129-0.089-0.273-0.16-0.434-0.215c-0.162-0.055-0.326-0.112-0.496-0.171c-0.184-0.059-0.365-0.124-0.543-0.197
		c-0.182-0.073-0.34-0.167-0.479-0.281c-0.141-0.113-0.252-0.251-0.336-0.412s-0.127-0.363-0.127-0.605
		c0-0.447,0.164-0.81,0.49-1.089c0.326-0.278,0.83-0.418,1.512-0.418c0.285,0,0.562,0.026,0.83,0.077
		c0.268,0.052,0.475,0.106,0.621,0.165c-0.035,0.213-0.088,0.422-0.152,0.627c-0.154-0.051-0.352-0.103-0.59-0.154
		c-0.238-0.051-0.484-0.076-0.742-0.076c-0.447,0-0.764,0.078-0.951,0.236c-0.188,0.157-0.281,0.364-0.281,0.621
		c0,0.14,0.031,0.259,0.094,0.357c0.062,0.1,0.146,0.184,0.254,0.253c0.105,0.07,0.227,0.131,0.363,0.182
		c0.135,0.052,0.279,0.099,0.434,0.144c0.197,0.065,0.398,0.137,0.6,0.214s0.385,0.178,0.551,0.303
		c0.164,0.125,0.301,0.282,0.406,0.473c0.105,0.191,0.16,0.43,0.16,0.715c0,0.265-0.055,0.505-0.16,0.721
		c-0.105,0.217-0.256,0.4-0.445,0.55c-0.191,0.15-0.418,0.267-0.682,0.347c-0.264,0.081-0.555,0.121-0.869,0.121
		c-0.352,0-0.666-0.021-0.941-0.065s-0.496-0.103-0.664-0.177C76.344,32.764,76.414,32.544,76.51,32.325z"/>
</g>
</svg>
