<?xml version="1.0" encoding="utf-8"?>
<!-- Generator: Adobe Illustrator 15.0.2, SVG Export Plug-In . SVG Version: 6.00 Build 0)  -->
<!DOCTYPE svg PUBLIC "-//W3C//DTD SVG 1.1//EN" "http://www.w3.org/Graphics/SVG/1.1/DTD/svg11.dtd">
<svg version="1.1" id="Logo" xmlns="http://www.w3.org/2000/svg" xmlns:xlink="http://www.w3.org/1999/xlink" x="0px" y="0px"
	 width="226.771px" height="113.386px" viewBox="0 0 226.771 113.386" enable-background="new 0 0 226.771 113.386"
	 xml:space="preserve" stroke-width="0">
<g>
	<g>
		<circle fill="#FFFFFF" cx="51.895" cy="56.693" r="15.89"/>
		<path fill="#1A171B" d="M51.894,39.618c-9.43,0-17.077,7.642-17.077,17.075c0,9.429,7.647,17.075,17.077,17.075
			c9.432,0,17.079-7.646,17.079-17.075C68.973,47.26,61.325,39.618,51.894,39.618z M51.894,72.014
			c-8.46,0-15.321-6.859-15.321-15.32s6.861-15.32,15.321-15.32c8.465,0,15.323,6.859,15.323,15.32S60.358,72.014,51.894,72.014z"/>
		<path fill="#1A171B" d="M59.195,48.194c-3.696-2.071-8.325-2.089-11.997-1.148v-1.59h-1.595v2.078
			c-0.684,0.247-1.317,0.527-1.881,0.832c0,0,0.793-0.098,1.881-0.031v13.896c-0.792,1.221-0.982,2.408-0.796,3.777
			c0.211,1.531,1.367,2.554,2.277,3.311c-0.536-1.545-0.576-2.95-0.419-3.801c0.301-1.588,1.232-2.729,5.252-3.6
			c4.171-0.898,9.112-1.315,10.745-5.364C63.407,54.704,63.869,50.818,59.195,48.194z M49.447,58.646
			c-0.894,0.627-1.637,1.212-2.249,1.771V48.544c1.242,0.263,2.557,0.801,3.463,1.867C52.891,53.044,52.135,56.761,49.447,58.646z"
			/>
		<g>
			<path fill="#1A171B" d="M33.466,56.693c0-10.18,8.252-18.425,18.428-18.425l0,0c10.177,0,18.429,8.245,18.43,18.425l0,0
				c-0.001,10.174-8.253,18.425-18.43,18.425l0,0C41.718,75.118,33.466,66.867,33.466,56.693L33.466,56.693z M39.101,43.899
				c-3.274,3.274-5.3,7.796-5.3,12.794l0,0c0,4.995,2.025,9.517,5.3,12.791l0,0c3.275,3.274,7.797,5.3,12.793,5.3l0,0
				c4.996,0,9.52-2.025,12.794-5.3l0,0c3.275-3.274,5.301-7.796,5.301-12.791l0,0c0-4.998-2.025-9.52-5.301-12.794l0,0
				c-3.274-3.273-7.798-5.297-12.794-5.297l0,0C46.897,38.603,42.376,40.626,39.101,43.899L39.101,43.899z"/>
		</g>
	</g>
	<g>
		<path fill="#F8B322" d="M78.284,46.008c0.184-0.04,0.363-0.065,0.541-0.078c0.176-0.013,0.376-0.021,0.6-0.021
			c0.366,0,0.739,0.04,1.12,0.118c0.04,0.065,0.075,0.161,0.108,0.285c0.032,0.125,0.064,0.259,0.098,0.403
			c0.032,0.145,0.06,0.285,0.079,0.422c0.02,0.139,0.035,0.254,0.049,0.345c0.118-0.21,0.262-0.416,0.433-0.619
			c0.17-0.203,0.376-0.384,0.619-0.54c0.242-0.158,0.514-0.285,0.815-0.385c0.302-0.098,0.636-0.146,1.003-0.146
			c0.562,0,1.091,0.104,1.582,0.314c0.491,0.209,0.92,0.527,1.287,0.953s0.652,0.96,0.855,1.602
			c0.203,0.643,0.305,1.402,0.305,2.281c0,0.852-0.125,1.615-0.373,2.289c-0.25,0.676-0.61,1.248-1.082,1.721
			c-0.472,0.471-1.049,0.834-1.729,1.09c-0.682,0.256-1.454,0.384-2.319,0.384c-0.224,0-0.442-0.009-0.658-0.029
			c-0.217-0.02-0.397-0.043-0.54-0.069v4.521c-0.25,0.039-0.489,0.064-0.718,0.078c-0.229,0.014-0.456,0.02-0.679,0.02
			c-0.224,0-0.449-0.006-0.679-0.02c-0.229-0.014-0.469-0.039-0.717-0.078V46.008z M81.076,54.028
			c0.353,0.104,0.759,0.156,1.218,0.156c0.812,0,1.436-0.262,1.867-0.785c0.433-0.525,0.648-1.318,0.648-2.379
			c0-0.406-0.032-0.783-0.098-1.131c-0.066-0.346-0.178-0.645-0.334-0.895c-0.158-0.248-0.357-0.444-0.6-0.59
			c-0.243-0.143-0.541-0.215-0.895-0.215c-0.328,0-0.606,0.062-0.836,0.186c-0.229,0.125-0.416,0.295-0.56,0.512
			c-0.145,0.217-0.249,0.469-0.315,0.757c-0.065,0.288-0.097,0.597-0.097,0.924V54.028z"/>
		<path fill="#F8B322" d="M90.51,48.15h-1.316c-0.04-0.171-0.069-0.351-0.089-0.54s-0.029-0.371-0.029-0.541
			c0-0.354,0.039-0.701,0.118-1.042h4.049V56.19c-0.472,0.078-0.931,0.117-1.376,0.117c-0.433,0-0.885-0.039-1.356-0.117V48.15z
			 M90.098,44.317c-0.079-0.445-0.118-0.885-0.118-1.316c0-0.42,0.039-0.858,0.118-1.317c0.222-0.04,0.462-0.069,0.718-0.089
			c0.255-0.02,0.487-0.029,0.697-0.029c0.223,0,0.465,0.01,0.727,0.029c0.263,0.02,0.505,0.049,0.728,0.089
			c0.04,0.224,0.065,0.442,0.079,0.659c0.013,0.216,0.02,0.436,0.02,0.658c0,0.209-0.007,0.426-0.02,0.648
			c-0.014,0.223-0.039,0.445-0.079,0.668c-0.223,0.039-0.462,0.066-0.717,0.078c-0.256,0.014-0.495,0.021-0.718,0.021
			c-0.21,0-0.445-0.007-0.707-0.021C90.562,44.384,90.319,44.356,90.098,44.317z"/>
		<path fill="#F8B322" d="M95.994,46.027c0.196-0.038,0.383-0.068,0.56-0.089c0.177-0.02,0.371-0.029,0.58-0.029
			c0.196,0,0.391,0.014,0.58,0.04s0.377,0.059,0.561,0.099c0.039,0.065,0.075,0.16,0.107,0.284c0.033,0.125,0.062,0.256,0.089,0.394
			s0.049,0.275,0.069,0.412c0.02,0.139,0.035,0.254,0.049,0.345c0.288-0.406,0.642-0.77,1.061-1.091
			c0.42-0.32,0.944-0.482,1.572-0.482c0.131,0,0.282,0.008,0.453,0.021c0.17,0.013,0.295,0.032,0.373,0.06
			c0.026,0.131,0.046,0.281,0.059,0.451c0.014,0.17,0.021,0.348,0.021,0.531c0,0.223-0.01,0.465-0.03,0.727
			c-0.02,0.263-0.056,0.512-0.107,0.747c-0.145-0.026-0.305-0.04-0.481-0.04c-0.178,0-0.286,0-0.324,0
			c-0.224,0-0.473,0.023-0.747,0.069c-0.275,0.046-0.537,0.167-0.787,0.364c-0.248,0.196-0.455,0.49-0.619,0.885
			c-0.164,0.393-0.245,0.943-0.245,1.65v4.836c-0.236,0.039-0.472,0.064-0.708,0.078c-0.235,0.014-0.465,0.02-0.688,0.02
			s-0.449-0.006-0.679-0.02c-0.229-0.014-0.468-0.039-0.717-0.078V46.027z"/>
		<path fill="#F8B322" d="M108.771,49.507c0-0.314-0.053-0.57-0.157-0.767s-0.249-0.351-0.433-0.462s-0.41-0.188-0.678-0.227
			c-0.27-0.039-0.567-0.059-0.895-0.059c-0.708,0-1.462,0.138-2.261,0.412c-0.184-0.34-0.321-0.66-0.413-0.963
			c-0.092-0.301-0.137-0.661-0.137-1.08c0.576-0.197,1.152-0.342,1.729-0.433c0.576-0.092,1.113-0.138,1.611-0.138
			c1.363,0,2.428,0.328,3.194,0.982c0.767,0.655,1.15,1.703,1.15,3.146v5.896c-0.459,0.145-1.016,0.282-1.671,0.413
			s-1.396,0.196-2.222,0.196c-0.668,0-1.281-0.06-1.838-0.177s-1.035-0.314-1.435-0.59s-0.708-0.629-0.924-1.062
			s-0.324-0.963-0.324-1.592c0-0.63,0.134-1.157,0.403-1.583c0.268-0.426,0.615-0.766,1.041-1.021s0.9-0.439,1.426-0.551
			c0.523-0.111,1.048-0.167,1.572-0.167c0.38,0,0.799,0.021,1.258,0.06V49.507z M108.771,51.531
			c-0.157-0.026-0.328-0.049-0.512-0.068c-0.184-0.021-0.347-0.03-0.49-0.03c-0.643,0-1.15,0.115-1.524,0.345
			c-0.373,0.229-0.56,0.599-0.56,1.11c0,0.341,0.071,0.604,0.216,0.786c0.145,0.185,0.317,0.317,0.521,0.403
			c0.203,0.085,0.42,0.137,0.649,0.157c0.229,0.019,0.429,0.029,0.6,0.029c0.196,0,0.393-0.017,0.589-0.05
			c0.197-0.032,0.367-0.062,0.512-0.088V51.531z"/>
		<path fill="#F8B322" d="M114.234,48.15h-1.277l-0.099-0.394l3.676-4.697h0.452v2.968h2.379c0.039,0.196,0.065,0.374,0.078,0.53
			c0.013,0.158,0.02,0.322,0.02,0.492c0,0.184-0.007,0.361-0.02,0.531s-0.039,0.36-0.078,0.569h-2.379v3.99
			c0,0.406,0.032,0.733,0.099,0.983c0.065,0.248,0.16,0.445,0.285,0.59c0.124,0.145,0.278,0.242,0.462,0.294
			c0.183,0.053,0.399,0.079,0.648,0.079c0.196,0,0.39-0.017,0.58-0.049c0.189-0.033,0.356-0.062,0.501-0.089
			c0.092,0.249,0.157,0.508,0.197,0.776c0.039,0.269,0.059,0.508,0.059,0.717c0,0.145-0.003,0.266-0.01,0.364
			s-0.017,0.193-0.029,0.285c-0.604,0.144-1.227,0.216-1.868,0.216c-1.192,0-2.103-0.278-2.731-0.835
			c-0.629-0.558-0.944-1.465-0.944-2.723V48.15z"/>
		<path fill="#F8B322" d="M123.708,51.964c0.053,0.786,0.328,1.356,0.826,1.71c0.498,0.354,1.153,0.53,1.966,0.53
			c0.445,0,0.901-0.042,1.366-0.127c0.465-0.086,0.907-0.207,1.326-0.363c0.145,0.262,0.269,0.576,0.374,0.943
			c0.104,0.367,0.164,0.76,0.177,1.18c-1.021,0.393-2.176,0.589-3.459,0.589c-0.943,0-1.753-0.131-2.428-0.394
			c-0.676-0.262-1.226-0.625-1.651-1.091c-0.426-0.465-0.74-1.019-0.943-1.66s-0.305-1.343-0.305-2.104
			c0-0.747,0.104-1.448,0.314-2.104s0.521-1.226,0.934-1.71c0.413-0.484,0.924-0.868,1.533-1.15
			c0.609-0.281,1.319-0.422,2.133-0.422c0.708,0,1.337,0.125,1.887,0.373c0.551,0.249,1.019,0.59,1.405,1.021
			c0.387,0.434,0.679,0.947,0.875,1.543c0.196,0.598,0.295,1.236,0.295,1.918c0,0.248-0.01,0.494-0.029,0.736
			c-0.02,0.243-0.043,0.436-0.069,0.58H123.708z M127.699,50.019c-0.026-0.63-0.2-1.137-0.521-1.523
			c-0.322-0.387-0.771-0.58-1.348-0.58c-0.654,0-1.152,0.184-1.493,0.551c-0.341,0.366-0.544,0.883-0.609,1.553H127.699z"/>
		<path fill="#F8B322" d="M132.534,46.027c0.184-0.038,0.367-0.068,0.551-0.089c0.184-0.02,0.387-0.029,0.609-0.029
			s0.419,0.01,0.59,0.029c0.17,0.021,0.347,0.051,0.53,0.089c0.04,0.065,0.075,0.161,0.108,0.285
			c0.032,0.125,0.062,0.256,0.088,0.394c0.026,0.138,0.05,0.271,0.069,0.402s0.036,0.243,0.049,0.334
			c0.131-0.195,0.288-0.393,0.472-0.589s0.396-0.374,0.639-0.53c0.242-0.158,0.515-0.285,0.816-0.385
			c0.301-0.098,0.635-0.146,1.002-0.146c1.153,0,2.021,0.314,2.604,0.943s0.875,1.619,0.875,2.969v6.486
			c-0.472,0.078-0.938,0.117-1.396,0.117c-0.459,0-0.924-0.039-1.396-0.117v-5.74c0-0.707-0.108-1.252-0.324-1.631
			c-0.217-0.381-0.593-0.57-1.131-0.57c-0.223,0-0.452,0.033-0.688,0.098c-0.236,0.066-0.449,0.193-0.639,0.383
			c-0.19,0.191-0.345,0.457-0.462,0.797c-0.118,0.342-0.178,0.786-0.178,1.336v5.328c-0.471,0.078-0.937,0.117-1.396,0.117
			c-0.458,0-0.924-0.039-1.396-0.117V46.027z"/>
		<path fill="#1A171B" d="M144.426,46.165c0.079-0.013,0.177-0.022,0.295-0.029c0.118-0.006,0.217-0.01,0.296-0.01
			c0.078,0,0.176,0.004,0.294,0.01c0.118,0.007,0.217,0.017,0.295,0.029l0.118,1.377c0.275-0.42,0.671-0.793,1.189-1.121
			c0.518-0.328,1.189-0.491,2.015-0.491c0.615,0,1.18,0.095,1.69,0.284c0.511,0.191,0.946,0.488,1.307,0.895
			c0.361,0.406,0.643,0.918,0.846,1.533c0.203,0.616,0.305,1.357,0.305,2.221c0,0.865-0.118,1.643-0.354,2.33
			c-0.236,0.688-0.58,1.271-1.033,1.749c-0.451,0.479-1.009,0.845-1.67,1.101c-0.662,0.256-1.419,0.384-2.271,0.384
			c-0.314,0-0.655-0.026-1.022-0.079c-0.367-0.052-0.701-0.131-1.002-0.235v4.718c-0.079,0.013-0.19,0.022-0.334,0.029
			c-0.145,0.006-0.25,0.01-0.314,0.01c-0.079,0-0.188-0.004-0.324-0.01c-0.138-0.007-0.246-0.017-0.325-0.029V46.165z
			 M145.724,54.912c0.301,0.118,0.612,0.206,0.934,0.266c0.32,0.059,0.75,0.089,1.287,0.089c0.512,0,0.996-0.082,1.455-0.246
			c0.458-0.164,0.858-0.423,1.199-0.776c0.34-0.354,0.609-0.803,0.806-1.347c0.196-0.543,0.295-1.195,0.295-1.955
			c0-1.206-0.227-2.15-0.679-2.832c-0.451-0.681-1.183-1.021-2.191-1.021c-0.314,0-0.655,0.053-1.021,0.158
			c-0.367,0.104-0.705,0.284-1.013,0.54c-0.308,0.255-0.563,0.589-0.767,1.002s-0.305,0.935-0.305,1.563V54.912z"/>
		<path fill="#1A171B" d="M161.323,49.565c0-0.864-0.203-1.497-0.609-1.896s-1.01-0.6-1.809-0.6c-0.523,0-1.002,0.037-1.435,0.107
			c-0.433,0.072-0.819,0.162-1.16,0.266c-0.065-0.117-0.121-0.287-0.167-0.511c-0.046-0.222-0.068-0.433-0.068-0.628
			c0.341-0.105,0.76-0.193,1.258-0.266s1.009-0.108,1.533-0.108c1.271,0,2.214,0.278,2.831,0.835
			c0.615,0.557,0.923,1.432,0.923,2.624v6.624c-0.459,0.093-1.016,0.184-1.671,0.275s-1.277,0.138-1.867,0.138
			c-1.218,0-2.179-0.242-2.879-0.728c-0.702-0.484-1.052-1.271-1.052-2.358c0-0.524,0.102-0.993,0.305-1.405s0.484-0.76,0.845-1.042
			s0.793-0.494,1.298-0.64c0.504-0.144,1.058-0.215,1.661-0.215c0.472,0,0.878,0.016,1.218,0.049
			c0.341,0.033,0.623,0.062,0.846,0.088V49.565z M161.323,51.315c-0.223-0.026-0.502-0.056-0.836-0.089
			c-0.334-0.032-0.651-0.049-0.953-0.049c-0.982,0-1.742,0.184-2.28,0.55c-0.537,0.367-0.806,0.893-0.806,1.572
			c0,0.434,0.082,0.78,0.246,1.042c0.164,0.263,0.376,0.462,0.639,0.6c0.262,0.138,0.551,0.229,0.865,0.275s0.629,0.069,0.943,0.069
			c0.406,0,0.786-0.02,1.14-0.06c0.354-0.039,0.701-0.091,1.042-0.157V51.315z"/>
		<path fill="#1A171B" d="M165.68,46.165c0.104-0.013,0.206-0.022,0.305-0.029c0.099-0.006,0.192-0.01,0.285-0.01
			c0.104,0,0.203,0.004,0.295,0.01c0.091,0.007,0.189,0.017,0.294,0.029c0.026,0.236,0.046,0.515,0.06,0.836
			c0.013,0.32,0.02,0.612,0.02,0.875c0.263-0.484,0.629-0.895,1.101-1.229c0.473-0.335,1.094-0.502,1.868-0.502
			c0.064,0,0.134,0,0.206,0s0.154,0.007,0.245,0.02c0.04,0.223,0.06,0.433,0.06,0.629c0,0.211-0.02,0.413-0.06,0.609
			c-0.104-0.012-0.187-0.02-0.245-0.02s-0.121,0-0.187,0c-0.892,0-1.605,0.282-2.143,0.846c-0.538,0.562-0.806,1.5-0.806,2.811v5.15
			c-0.079,0.012-0.188,0.021-0.324,0.029c-0.139,0.006-0.247,0.01-0.325,0.01c-0.065,0-0.171-0.004-0.314-0.01
			c-0.144-0.008-0.255-0.018-0.334-0.029V46.165z"/>
		<path fill="#1A171B" d="M173.146,47.267h-1.71c-0.013-0.066-0.022-0.151-0.029-0.256c-0.007-0.105-0.01-0.21-0.01-0.314
			c0-0.105,0.003-0.203,0.01-0.295s0.017-0.17,0.029-0.236h1.71v-1.887l1.219-1.199h0.079v3.086h2.713
			c0.013,0.066,0.022,0.145,0.029,0.236c0.006,0.092,0.01,0.189,0.01,0.295c0,0.104-0.004,0.209-0.01,0.314
			c-0.007,0.104-0.017,0.189-0.029,0.256h-2.713v6.525c0,0.328,0.042,0.586,0.128,0.776c0.085,0.19,0.196,0.337,0.334,0.442
			s0.295,0.174,0.472,0.206s0.356,0.05,0.54,0.05c0.459,0,0.858-0.06,1.199-0.178c0.092,0.342,0.157,0.708,0.196,1.102
			c-0.472,0.144-1.021,0.216-1.65,0.216c-0.747,0-1.354-0.2-1.818-0.6s-0.698-1.052-0.698-1.956V47.267z"/>
		<path fill="#1A171B" d="M180.048,51.374c0,1.336,0.308,2.32,0.924,2.949c0.615,0.629,1.539,0.943,2.771,0.943
			c0.498,0,0.96-0.043,1.386-0.128s0.842-0.2,1.248-0.345c0.065,0.145,0.118,0.322,0.157,0.531s0.065,0.399,0.079,0.57
			c-0.38,0.17-0.826,0.301-1.337,0.393c-0.512,0.092-1.068,0.138-1.671,0.138c-0.864,0-1.608-0.128-2.231-0.384
			c-0.622-0.256-1.133-0.611-1.532-1.07c-0.4-0.459-0.695-1.006-0.885-1.643c-0.19-0.635-0.285-1.332-0.285-2.092
			c0-0.734,0.089-1.422,0.266-2.064s0.445-1.205,0.806-1.69c0.359-0.485,0.822-0.865,1.386-1.14
			c0.563-0.275,1.238-0.413,2.024-0.413c0.655,0,1.238,0.11,1.749,0.334c0.512,0.224,0.94,0.534,1.288,0.934
			c0.347,0.399,0.609,0.878,0.786,1.435c0.177,0.558,0.265,1.164,0.265,1.818c0,0.118-0.003,0.27-0.009,0.452
			c-0.007,0.185-0.017,0.341-0.029,0.472H180.048z M185.944,50.293c0-0.405-0.052-0.806-0.157-1.198
			c-0.104-0.394-0.269-0.738-0.491-1.033c-0.223-0.294-0.512-0.533-0.865-0.717s-0.779-0.275-1.277-0.275
			c-0.917,0-1.631,0.282-2.143,0.846c-0.511,0.562-0.819,1.355-0.924,2.378H185.944z"/>
		<path fill="#1A171B" d="M190.701,47.267h-1.258c-0.014-0.066-0.022-0.145-0.029-0.236s-0.011-0.189-0.011-0.295
			c0-0.104,0.004-0.209,0.011-0.314s0.016-0.189,0.029-0.256h2.556V56.19c-0.079,0.012-0.188,0.021-0.324,0.029
			c-0.139,0.006-0.246,0.01-0.325,0.01c-0.065,0-0.17-0.004-0.314-0.01c-0.144-0.008-0.255-0.018-0.334-0.029V47.267z
			 M190.053,43.708c-0.014-0.117-0.023-0.262-0.029-0.433c-0.007-0.17-0.011-0.313-0.011-0.433c0-0.104,0.004-0.235,0.011-0.393
			c0.006-0.157,0.016-0.288,0.029-0.393c0.118-0.014,0.262-0.023,0.433-0.03c0.17-0.006,0.314-0.009,0.432-0.009
			c0.105,0,0.236,0.003,0.394,0.009c0.157,0.007,0.288,0.017,0.394,0.03c0.013,0.104,0.022,0.235,0.029,0.393
			c0.006,0.157,0.01,0.289,0.01,0.393c0,0.119-0.004,0.263-0.01,0.433c-0.007,0.171-0.017,0.315-0.029,0.433
			c-0.105,0.014-0.236,0.023-0.394,0.029c-0.157,0.008-0.288,0.01-0.394,0.01c-0.117,0-0.262-0.002-0.432-0.01
			C190.314,43.731,190.171,43.722,190.053,43.708z"/>
	</g>
</g>
<g>
	<path fill="#1A171B" d="M79.627,64.18h-2.123c-0.007-0.045-0.013-0.098-0.017-0.16c-0.003-0.062-0.005-0.122-0.005-0.182
		c0-0.051,0.002-0.109,0.005-0.176c0.004-0.065,0.01-0.121,0.017-0.165h5.005c0.008,0.044,0.013,0.096,0.017,0.154
		s0.006,0.117,0.006,0.176c0,0.052-0.002,0.112-0.006,0.182s-0.009,0.126-0.017,0.171h-2.123v7.227
		c-0.051,0.007-0.109,0.013-0.176,0.017c-0.065,0.004-0.132,0.006-0.198,0.006c-0.073,0-0.145-0.002-0.214-0.006
		c-0.07-0.004-0.127-0.01-0.171-0.017V64.18z"/>
	<path fill="#1A171B" d="M83.697,63.321c0.044-0.007,0.104-0.013,0.182-0.017s0.138-0.006,0.182-0.006
		c0.036,0,0.095,0.002,0.176,0.006s0.144,0.01,0.188,0.017v3.476c0.073-0.132,0.168-0.266,0.286-0.401
		c0.117-0.136,0.253-0.258,0.406-0.368c0.154-0.11,0.328-0.198,0.522-0.264c0.194-0.066,0.409-0.1,0.644-0.1
		c0.646,0,1.12,0.192,1.425,0.578c0.304,0.385,0.456,0.926,0.456,1.622v3.542c-0.044,0.007-0.104,0.013-0.181,0.017
		c-0.077,0.004-0.138,0.006-0.182,0.006c-0.037,0-0.096-0.002-0.177-0.006c-0.08-0.004-0.143-0.01-0.187-0.017v-3.322
		c0-0.623-0.103-1.07-0.308-1.342c-0.206-0.271-0.503-0.407-0.892-0.407c-0.257,0-0.497,0.048-0.721,0.144
		c-0.224,0.095-0.416,0.236-0.577,0.423c-0.161,0.188-0.288,0.422-0.38,0.704s-0.137,0.607-0.137,0.974v2.827
		c-0.044,0.007-0.104,0.013-0.182,0.017s-0.138,0.006-0.182,0.006c-0.037,0-0.096-0.002-0.176-0.006
		c-0.081-0.004-0.144-0.01-0.188-0.017V63.321z"/>
	<path fill="#1A171B" d="M89.945,65.796c0.044-0.007,0.106-0.013,0.188-0.017c0.08-0.003,0.139-0.005,0.176-0.005
		c0.044,0,0.104,0.002,0.182,0.005c0.077,0.004,0.138,0.01,0.182,0.017v3.157c0,0.396,0.04,0.721,0.121,0.974
		c0.08,0.253,0.199,0.451,0.357,0.594c0.157,0.144,0.35,0.242,0.577,0.297c0.228,0.056,0.484,0.083,0.77,0.083
		c0.242,0,0.459-0.013,0.649-0.039c0.19-0.025,0.359-0.061,0.506-0.104v-4.961c0.044-0.007,0.106-0.013,0.188-0.017
		c0.08-0.003,0.139-0.005,0.176-0.005c0.044,0,0.104,0.002,0.182,0.005c0.077,0.004,0.138,0.01,0.182,0.017v5.468
		c-0.271,0.073-0.574,0.137-0.908,0.192c-0.334,0.055-0.676,0.082-1.028,0.082c-0.345,0-0.669-0.033-0.974-0.099
		c-0.304-0.066-0.568-0.192-0.792-0.38c-0.224-0.187-0.401-0.445-0.533-0.775s-0.198-0.759-0.198-1.287V65.796z"/>
	<path fill="#1A171B" d="M96.313,65.796c0.059-0.007,0.116-0.013,0.171-0.017c0.055-0.003,0.108-0.005,0.159-0.005
		c0.059,0,0.113,0.002,0.165,0.005c0.052,0.004,0.106,0.01,0.165,0.017c0.015,0.133,0.025,0.288,0.033,0.468
		c0.007,0.18,0.011,0.343,0.011,0.489c0.146-0.271,0.353-0.5,0.616-0.688c0.264-0.187,0.612-0.28,1.045-0.28
		c0.036,0,0.075,0,0.115,0s0.086,0.004,0.138,0.011c0.022,0.125,0.033,0.242,0.033,0.353c0,0.117-0.011,0.23-0.033,0.341
		c-0.059-0.007-0.104-0.011-0.138-0.011s-0.067,0-0.104,0c-0.498,0-0.898,0.157-1.199,0.473s-0.45,0.84-0.45,1.573v2.882
		c-0.044,0.007-0.104,0.013-0.182,0.017s-0.138,0.006-0.182,0.006c-0.037,0-0.096-0.002-0.176-0.006
		c-0.081-0.004-0.144-0.01-0.188-0.017V65.796z"/>
	<path fill="#1A171B" d="M102.947,70.846c0.645,0.015,1.105,0.148,1.38,0.401c0.275,0.253,0.413,0.588,0.413,1.006
		c0,0.286-0.073,0.545-0.221,0.775c-0.146,0.231-0.352,0.43-0.615,0.595c-0.265,0.165-0.578,0.293-0.94,0.385
		c-0.363,0.092-0.758,0.138-1.183,0.138c-0.33,0-0.633-0.026-0.908-0.077c-0.274-0.052-0.513-0.134-0.715-0.248
		c-0.201-0.113-0.357-0.264-0.467-0.45c-0.11-0.188-0.165-0.417-0.165-0.688c0-0.279,0.08-0.547,0.241-0.804s0.37-0.447,0.627-0.571
		c-0.139-0.088-0.257-0.2-0.352-0.336c-0.096-0.136-0.143-0.303-0.143-0.5c0-0.286,0.067-0.524,0.203-0.716
		c0.136-0.19,0.317-0.362,0.544-0.517c-0.256-0.161-0.462-0.378-0.615-0.649c-0.154-0.271-0.231-0.594-0.231-0.968
		c0-0.271,0.046-0.526,0.138-0.765s0.229-0.445,0.412-0.621c0.184-0.176,0.409-0.315,0.677-0.418s0.577-0.154,0.93-0.154
		c0.301,0,0.568,0.039,0.803,0.115c0.234,0.077,0.44,0.179,0.616,0.303c0.073-0.029,0.165-0.062,0.275-0.099
		c0.109-0.037,0.23-0.067,0.362-0.094c0.132-0.025,0.268-0.048,0.407-0.065c0.14-0.019,0.275-0.028,0.407-0.028
		c0.029,0.11,0.044,0.231,0.044,0.363c0,0.14-0.015,0.264-0.044,0.374h-1.045c0.103,0.161,0.182,0.332,0.236,0.512
		s0.082,0.372,0.082,0.577c0,0.315-0.055,0.594-0.165,0.836c-0.109,0.242-0.262,0.445-0.456,0.61s-0.422,0.292-0.682,0.38
		c-0.261,0.088-0.541,0.132-0.842,0.132c-0.315,0-0.591-0.04-0.825-0.121c-0.205,0.132-0.351,0.259-0.435,0.38
		s-0.126,0.259-0.126,0.412c0,0.073,0.011,0.144,0.032,0.209c0.022,0.066,0.068,0.127,0.138,0.182c0.07,0.055,0.167,0.1,0.292,0.132
		c0.124,0.033,0.286,0.05,0.483,0.05L102.947,70.846z M101.385,71.505c-0.345-0.007-0.621,0.09-0.83,0.292
		c-0.209,0.201-0.313,0.468-0.313,0.798c0,0.176,0.04,0.322,0.121,0.439c0.08,0.117,0.192,0.209,0.335,0.275
		c0.144,0.065,0.31,0.111,0.501,0.137c0.19,0.026,0.392,0.039,0.604,0.039c0.683,0,1.214-0.115,1.595-0.347
		c0.382-0.23,0.572-0.508,0.572-0.83c0-0.279-0.095-0.478-0.286-0.595c-0.19-0.117-0.502-0.18-0.935-0.187L101.385,71.505z
		 M100.571,67.622c0,0.382,0.111,0.702,0.335,0.963c0.224,0.26,0.574,0.391,1.051,0.391s0.828-0.131,1.056-0.391
		c0.228-0.261,0.341-0.581,0.341-0.963c0-0.381-0.113-0.702-0.341-0.962c-0.228-0.261-0.579-0.391-1.056-0.391
		s-0.827,0.13-1.051,0.391C100.683,66.92,100.571,67.241,100.571,67.622z"/>
	<path fill="#1A171B" d="M109.04,67.699c0-0.484-0.113-0.838-0.341-1.062s-0.564-0.335-1.012-0.335c-0.293,0-0.562,0.02-0.803,0.06
		c-0.242,0.041-0.459,0.091-0.649,0.149c-0.037-0.066-0.067-0.162-0.094-0.286c-0.025-0.125-0.038-0.242-0.038-0.353
		c0.19-0.059,0.425-0.107,0.704-0.148c0.278-0.04,0.564-0.061,0.857-0.061c0.712,0,1.239,0.156,1.584,0.468s0.518,0.801,0.518,1.469
		v3.707c-0.257,0.051-0.568,0.103-0.936,0.153c-0.366,0.052-0.715,0.077-1.045,0.077c-0.682,0-1.219-0.136-1.611-0.407
		c-0.393-0.271-0.588-0.711-0.588-1.319c0-0.294,0.057-0.556,0.17-0.787c0.113-0.23,0.271-0.425,0.473-0.583
		c0.202-0.157,0.444-0.276,0.727-0.357c0.282-0.08,0.592-0.121,0.93-0.121c0.264,0,0.491,0.01,0.682,0.028
		c0.19,0.018,0.349,0.034,0.473,0.049V67.699z M109.04,68.679c-0.124-0.015-0.28-0.031-0.467-0.05
		c-0.188-0.019-0.365-0.027-0.534-0.027c-0.55,0-0.975,0.103-1.275,0.308s-0.451,0.499-0.451,0.88c0,0.242,0.046,0.437,0.138,0.583
		s0.211,0.259,0.357,0.336s0.308,0.128,0.483,0.153c0.177,0.026,0.353,0.039,0.528,0.039c0.228,0,0.44-0.011,0.638-0.033
		c0.198-0.021,0.393-0.051,0.583-0.088V68.679z"/>
	<path fill="#1A171B" d="M111.549,65.796c0.044-0.007,0.106-0.013,0.188-0.017c0.08-0.003,0.139-0.005,0.176-0.005
		c0.044,0,0.104,0.002,0.182,0.005c0.077,0.004,0.138,0.01,0.182,0.017v3.157c0,0.396,0.04,0.721,0.121,0.974
		c0.08,0.253,0.199,0.451,0.357,0.594c0.157,0.144,0.35,0.242,0.577,0.297c0.228,0.056,0.484,0.083,0.77,0.083
		c0.242,0,0.459-0.013,0.649-0.039c0.19-0.025,0.359-0.061,0.506-0.104v-4.961c0.044-0.007,0.106-0.013,0.188-0.017
		c0.08-0.003,0.139-0.005,0.176-0.005c0.044,0,0.104,0.002,0.182,0.005c0.077,0.004,0.138,0.01,0.182,0.017v5.468
		c-0.271,0.073-0.574,0.137-0.908,0.192c-0.334,0.055-0.676,0.082-1.028,0.082c-0.345,0-0.669-0.033-0.974-0.099
		c-0.304-0.066-0.568-0.192-0.792-0.38c-0.224-0.187-0.401-0.445-0.533-0.775s-0.198-0.759-0.198-1.287V65.796z"/>
	<path fill="#1A171B" d="M125.772,66.391V65.39l0.682-0.66h0.044v1.661h1.375c0.008,0.051,0.013,0.104,0.017,0.159
		s0.006,0.112,0.006,0.171s-0.002,0.115-0.006,0.17s-0.009,0.112-0.017,0.171h-1.375v1.826c0,0.447-0.077,0.836-0.23,1.166
		c-0.154,0.329-0.369,0.604-0.644,0.824c-0.275,0.221-0.604,0.386-0.984,0.495c-0.382,0.11-0.804,0.165-1.266,0.165
		c-0.403,0-0.783-0.046-1.139-0.138c-0.355-0.091-0.667-0.232-0.935-0.423s-0.479-0.437-0.633-0.737
		c-0.153-0.301-0.23-0.66-0.23-1.078c0-0.22,0.032-0.449,0.099-0.688s0.161-0.462,0.286-0.671s0.276-0.397,0.456-0.566
		s0.384-0.297,0.611-0.385c-0.346-0.125-0.631-0.319-0.858-0.583c-0.228-0.265-0.341-0.623-0.341-1.078
		c0-0.315,0.061-0.589,0.182-0.819c0.121-0.231,0.285-0.42,0.494-0.566c0.21-0.147,0.453-0.257,0.732-0.33
		c0.278-0.073,0.571-0.11,0.88-0.11c0.176,0,0.368,0.011,0.577,0.033c0.209,0.021,0.431,0.069,0.666,0.143
		c-0.016,0.132-0.035,0.238-0.061,0.319c-0.026,0.081-0.064,0.169-0.116,0.264c-0.153-0.036-0.31-0.069-0.467-0.099
		c-0.158-0.029-0.34-0.044-0.545-0.044c-0.278,0-0.517,0.036-0.715,0.109c-0.198,0.074-0.359,0.167-0.484,0.281
		c-0.125,0.113-0.218,0.243-0.28,0.391c-0.062,0.146-0.094,0.293-0.094,0.439c0,0.396,0.127,0.693,0.38,0.891
		c0.253,0.198,0.654,0.298,1.204,0.298H125.772z M125.772,67.062h-2.508c-0.315,0-0.597,0.057-0.842,0.17
		c-0.246,0.114-0.455,0.267-0.627,0.457c-0.173,0.19-0.305,0.407-0.396,0.648c-0.092,0.242-0.138,0.495-0.138,0.76
		c0,0.542,0.184,0.964,0.551,1.265c0.366,0.301,0.895,0.451,1.584,0.451c0.491,0,0.889-0.059,1.193-0.176
		c0.304-0.118,0.541-0.275,0.709-0.474c0.169-0.198,0.286-0.427,0.353-0.688c0.065-0.26,0.106-0.533,0.121-0.819V67.062z"/>
	<path fill="#1A171B" d="M131.624,70.526c0.103,0.029,0.209,0.062,0.318,0.099c0.11,0.037,0.232,0.07,0.369,0.1
		c0.135,0.029,0.287,0.055,0.456,0.076c0.169,0.022,0.363,0.033,0.583,0.033c0.352,0,0.654-0.042,0.907-0.126
		c0.253-0.085,0.462-0.198,0.627-0.341c0.165-0.144,0.288-0.312,0.369-0.507c0.08-0.193,0.121-0.404,0.121-0.632
		c0-0.221-0.028-0.409-0.083-0.566c-0.055-0.158-0.15-0.303-0.286-0.435s-0.322-0.259-0.561-0.38s-0.537-0.251-0.896-0.391
		c-0.257-0.095-0.501-0.198-0.731-0.308c-0.231-0.11-0.435-0.244-0.61-0.401c-0.177-0.158-0.315-0.347-0.419-0.566
		c-0.103-0.221-0.153-0.495-0.153-0.825c0-0.594,0.214-1.074,0.644-1.441c0.429-0.366,1.054-0.55,1.875-0.55
		c0.161,0,0.325,0.008,0.49,0.022c0.164,0.015,0.318,0.032,0.462,0.055c0.143,0.021,0.274,0.048,0.396,0.077
		s0.218,0.055,0.292,0.077c-0.016,0.109-0.035,0.222-0.061,0.335c-0.026,0.114-0.058,0.222-0.094,0.324
		c-0.176-0.059-0.401-0.111-0.677-0.159c-0.274-0.048-0.548-0.071-0.819-0.071c-0.608,0-1.045,0.125-1.309,0.374
		c-0.265,0.249-0.396,0.564-0.396,0.946c0,0.197,0.04,0.37,0.121,0.517s0.192,0.275,0.336,0.385c0.143,0.11,0.313,0.211,0.511,0.303
		c0.198,0.092,0.411,0.182,0.639,0.27c0.308,0.125,0.596,0.253,0.863,0.385s0.496,0.286,0.688,0.462
		c0.19,0.176,0.341,0.384,0.451,0.622c0.109,0.238,0.165,0.526,0.165,0.863c0,0.381-0.068,0.721-0.204,1.018
		s-0.328,0.546-0.577,0.748c-0.249,0.201-0.554,0.355-0.913,0.462s-0.763,0.159-1.21,0.159c-0.433,0-0.792-0.031-1.078-0.094
		c-0.286-0.062-0.554-0.134-0.803-0.214c0.015-0.11,0.04-0.229,0.077-0.357C131.539,70.744,131.579,70.629,131.624,70.526z"/>
	<path fill="#1A171B" d="M141.446,70.702c0.037,0.073,0.072,0.173,0.104,0.297c0.033,0.125,0.058,0.228,0.072,0.309
		c-0.184,0.065-0.393,0.121-0.627,0.165c-0.235,0.044-0.495,0.065-0.781,0.065c-0.917,0-1.613-0.251-2.09-0.753
		c-0.477-0.503-0.715-1.23-0.715-2.184c0-0.418,0.059-0.805,0.176-1.161c0.117-0.355,0.289-0.665,0.517-0.929
		c0.228-0.265,0.512-0.472,0.853-0.622s0.735-0.226,1.183-0.226c0.278,0,0.545,0.021,0.798,0.061c0.253,0.041,0.452,0.086,0.6,0.138
		c0,0.096-0.014,0.205-0.039,0.33s-0.053,0.224-0.082,0.297c-0.147-0.051-0.332-0.096-0.556-0.132
		c-0.224-0.037-0.464-0.055-0.721-0.055c-0.33,0-0.618,0.057-0.863,0.17c-0.246,0.114-0.451,0.273-0.616,0.479
		s-0.288,0.447-0.368,0.727c-0.081,0.278-0.121,0.586-0.121,0.924c0,0.792,0.188,1.373,0.566,1.743s0.889,0.556,1.534,0.556
		c0.22,0,0.431-0.019,0.633-0.055C141.104,70.809,141.285,70.761,141.446,70.702z"/>
	<path fill="#1A171B" d="M143.008,63.321c0.044-0.007,0.104-0.013,0.182-0.017s0.138-0.006,0.182-0.006
		c0.036,0,0.095,0.002,0.176,0.006s0.144,0.01,0.188,0.017v3.476c0.073-0.132,0.168-0.266,0.286-0.401
		c0.117-0.136,0.253-0.258,0.406-0.368c0.154-0.11,0.328-0.198,0.522-0.264c0.194-0.066,0.409-0.1,0.644-0.1
		c0.646,0,1.12,0.192,1.425,0.578c0.304,0.385,0.456,0.926,0.456,1.622v3.542c-0.044,0.007-0.104,0.013-0.181,0.017
		c-0.077,0.004-0.138,0.006-0.182,0.006c-0.037,0-0.096-0.002-0.177-0.006c-0.08-0.004-0.143-0.01-0.187-0.017v-3.322
		c0-0.623-0.103-1.07-0.308-1.342c-0.206-0.271-0.503-0.407-0.892-0.407c-0.257,0-0.497,0.048-0.721,0.144
		c-0.224,0.095-0.416,0.236-0.577,0.423c-0.161,0.188-0.288,0.422-0.38,0.704s-0.137,0.607-0.137,0.974v2.827
		c-0.044,0.007-0.104,0.013-0.182,0.017s-0.138,0.006-0.182,0.006c-0.037,0-0.096-0.002-0.176-0.006
		c-0.081-0.004-0.144-0.01-0.188-0.017V63.321z"/>
	<path fill="#1A171B" d="M152.391,67.699c0-0.484-0.113-0.838-0.341-1.062s-0.564-0.335-1.012-0.335c-0.293,0-0.562,0.02-0.803,0.06
		c-0.242,0.041-0.459,0.091-0.649,0.149c-0.037-0.066-0.067-0.162-0.094-0.286c-0.025-0.125-0.038-0.242-0.038-0.353
		c0.19-0.059,0.425-0.107,0.704-0.148c0.278-0.04,0.564-0.061,0.857-0.061c0.712,0,1.239,0.156,1.584,0.468s0.518,0.801,0.518,1.469
		v3.707c-0.257,0.051-0.568,0.103-0.936,0.153c-0.366,0.052-0.715,0.077-1.045,0.077c-0.682,0-1.219-0.136-1.611-0.407
		c-0.393-0.271-0.588-0.711-0.588-1.319c0-0.294,0.057-0.556,0.17-0.787c0.113-0.23,0.271-0.425,0.473-0.583
		c0.202-0.157,0.444-0.276,0.727-0.357c0.282-0.08,0.592-0.121,0.93-0.121c0.264,0,0.491,0.01,0.682,0.028
		c0.19,0.018,0.349,0.034,0.473,0.049V67.699z M152.391,68.679c-0.124-0.015-0.28-0.031-0.467-0.05
		c-0.188-0.019-0.365-0.027-0.534-0.027c-0.55,0-0.975,0.103-1.275,0.308s-0.451,0.499-0.451,0.88c0,0.242,0.046,0.437,0.138,0.583
		s0.211,0.259,0.357,0.336s0.308,0.128,0.483,0.153c0.177,0.026,0.353,0.039,0.528,0.039c0.228,0,0.44-0.011,0.638-0.033
		c0.198-0.021,0.393-0.051,0.583-0.088V68.679z"/>
	<path fill="#1A171B" d="M155.34,66.412h-0.957c-0.008-0.036-0.013-0.08-0.017-0.132c-0.004-0.051-0.006-0.106-0.006-0.165
		s0.002-0.117,0.006-0.176s0.009-0.106,0.017-0.144h0.957v-0.439c0-0.689,0.151-1.206,0.456-1.551s0.787-0.518,1.446-0.518
		c0.154,0,0.303,0.013,0.446,0.039c0.143,0.025,0.258,0.049,0.346,0.071c-0.015,0.14-0.038,0.255-0.071,0.347
		s-0.067,0.181-0.104,0.27c-0.065-0.015-0.152-0.033-0.259-0.056c-0.105-0.021-0.222-0.033-0.346-0.033
		c-0.191,0-0.359,0.021-0.506,0.061c-0.147,0.041-0.27,0.114-0.369,0.221c-0.099,0.106-0.176,0.255-0.23,0.445
		c-0.056,0.19-0.083,0.437-0.083,0.737v0.406h2.641v-0.495c0-0.688,0.151-1.206,0.456-1.551c0.304-0.345,0.786-0.517,1.446-0.517
		c0.154,0,0.295,0.009,0.424,0.027c0.128,0.019,0.236,0.038,0.324,0.061c-0.015,0.14-0.031,0.253-0.05,0.341
		c-0.018,0.088-0.042,0.184-0.071,0.286c-0.065-0.015-0.153-0.031-0.264-0.05c-0.11-0.018-0.228-0.027-0.353-0.027
		c-0.19,0-0.359,0.021-0.506,0.061s-0.27,0.114-0.368,0.22c-0.099,0.106-0.176,0.255-0.231,0.446
		c-0.055,0.19-0.082,0.436-0.082,0.736v0.462h1.54c0.007,0.037,0.013,0.085,0.017,0.144c0.003,0.059,0.005,0.117,0.005,0.176
		s-0.002,0.114-0.005,0.165c-0.004,0.052-0.01,0.096-0.017,0.132h-1.54v4.994c-0.044,0.007-0.104,0.013-0.182,0.017
		s-0.138,0.006-0.182,0.006c-0.036,0-0.095-0.002-0.176-0.006s-0.143-0.01-0.187-0.017v-4.994h-2.641v4.994
		c-0.044,0.007-0.104,0.013-0.182,0.017s-0.137,0.006-0.182,0.006c-0.036,0-0.095-0.002-0.176-0.006
		c-0.08-0.004-0.143-0.01-0.187-0.017V66.412z"/>
	<path fill="#1A171B" d="M162.159,63.321c0.044-0.007,0.104-0.013,0.182-0.017s0.138-0.006,0.182-0.006
		c0.036,0,0.095,0.002,0.176,0.006s0.144,0.01,0.188,0.017v3.476c0.073-0.132,0.168-0.266,0.286-0.401
		c0.117-0.136,0.253-0.258,0.406-0.368c0.154-0.11,0.328-0.198,0.522-0.264c0.194-0.066,0.409-0.1,0.644-0.1
		c0.646,0,1.12,0.192,1.425,0.578c0.304,0.385,0.456,0.926,0.456,1.622v3.542c-0.044,0.007-0.104,0.013-0.181,0.017
		c-0.077,0.004-0.138,0.006-0.182,0.006c-0.037,0-0.096-0.002-0.177-0.006c-0.08-0.004-0.143-0.01-0.187-0.017v-3.322
		c0-0.623-0.103-1.07-0.308-1.342c-0.206-0.271-0.503-0.407-0.892-0.407c-0.257,0-0.497,0.048-0.721,0.144
		c-0.224,0.095-0.416,0.236-0.577,0.423c-0.161,0.188-0.288,0.422-0.38,0.704s-0.137,0.607-0.137,0.974v2.827
		c-0.044,0.007-0.104,0.013-0.182,0.017s-0.138,0.006-0.182,0.006c-0.037,0-0.096-0.002-0.176-0.006
		c-0.081-0.004-0.144-0.01-0.188-0.017V63.321z"/>
	<path fill="#1A171B" d="M171.542,67.699c0-0.484-0.113-0.838-0.341-1.062s-0.564-0.335-1.012-0.335c-0.293,0-0.562,0.02-0.803,0.06
		c-0.242,0.041-0.459,0.091-0.649,0.149c-0.037-0.066-0.067-0.162-0.094-0.286c-0.025-0.125-0.038-0.242-0.038-0.353
		c0.19-0.059,0.425-0.107,0.704-0.148c0.278-0.04,0.564-0.061,0.857-0.061c0.712,0,1.239,0.156,1.584,0.468s0.518,0.801,0.518,1.469
		v3.707c-0.257,0.051-0.568,0.103-0.936,0.153c-0.366,0.052-0.715,0.077-1.045,0.077c-0.682,0-1.219-0.136-1.611-0.407
		c-0.393-0.271-0.588-0.711-0.588-1.319c0-0.294,0.057-0.556,0.17-0.787c0.113-0.23,0.271-0.425,0.473-0.583
		c0.202-0.157,0.444-0.276,0.727-0.357c0.282-0.08,0.592-0.121,0.93-0.121c0.264,0,0.491,0.01,0.682,0.028
		c0.19,0.018,0.349,0.034,0.473,0.049V67.699z M171.542,68.679c-0.124-0.015-0.28-0.031-0.467-0.05
		c-0.188-0.019-0.365-0.027-0.534-0.027c-0.55,0-0.975,0.103-1.275,0.308s-0.451,0.499-0.451,0.88c0,0.242,0.046,0.437,0.138,0.583
		s0.211,0.259,0.357,0.336s0.308,0.128,0.483,0.153c0.177,0.026,0.353,0.039,0.528,0.039c0.228,0,0.44-0.011,0.638-0.033
		c0.198-0.021,0.393-0.051,0.583-0.088V68.679z"/>
	<path fill="#1A171B" d="M174.05,65.796c0.044-0.007,0.106-0.013,0.188-0.017c0.08-0.003,0.139-0.005,0.176-0.005
		c0.044,0,0.104,0.002,0.182,0.005c0.077,0.004,0.138,0.01,0.182,0.017v3.157c0,0.396,0.04,0.721,0.121,0.974
		c0.08,0.253,0.199,0.451,0.357,0.594c0.157,0.144,0.35,0.242,0.577,0.297c0.228,0.056,0.484,0.083,0.77,0.083
		c0.242,0,0.459-0.013,0.649-0.039c0.19-0.025,0.359-0.061,0.506-0.104v-4.961c0.044-0.007,0.106-0.013,0.188-0.017
		c0.08-0.003,0.139-0.005,0.176-0.005c0.044,0,0.104,0.002,0.182,0.005c0.077,0.004,0.138,0.01,0.182,0.017v5.468
		c-0.271,0.073-0.574,0.137-0.908,0.192c-0.334,0.055-0.676,0.082-1.028,0.082c-0.345,0-0.669-0.033-0.974-0.099
		c-0.304-0.066-0.568-0.192-0.792-0.38c-0.224-0.187-0.401-0.445-0.533-0.775s-0.198-0.759-0.198-1.287V65.796z"/>
	<path fill="#1A171B" d="M180.266,70.637c0.161,0.065,0.37,0.122,0.627,0.17c0.256,0.048,0.502,0.071,0.736,0.071
		c0.44,0,0.788-0.097,1.045-0.291s0.386-0.435,0.386-0.721c0-0.198-0.039-0.361-0.116-0.489c-0.077-0.129-0.18-0.236-0.308-0.324
		c-0.129-0.089-0.273-0.16-0.435-0.215s-0.326-0.112-0.495-0.171c-0.184-0.059-0.365-0.124-0.544-0.197
		c-0.181-0.073-0.34-0.167-0.479-0.281c-0.14-0.113-0.252-0.251-0.336-0.412s-0.127-0.363-0.127-0.605
		c0-0.447,0.164-0.81,0.49-1.089c0.326-0.278,0.83-0.418,1.513-0.418c0.285,0,0.562,0.026,0.83,0.077
		c0.268,0.052,0.475,0.106,0.621,0.165c-0.036,0.213-0.088,0.422-0.153,0.627c-0.154-0.051-0.351-0.103-0.589-0.154
		c-0.238-0.051-0.485-0.076-0.742-0.076c-0.447,0-0.765,0.078-0.952,0.236c-0.187,0.157-0.28,0.364-0.28,0.621
		c0,0.14,0.031,0.259,0.094,0.357c0.062,0.1,0.146,0.184,0.253,0.253c0.106,0.07,0.228,0.131,0.363,0.182
		c0.136,0.052,0.28,0.099,0.435,0.144c0.197,0.065,0.397,0.137,0.6,0.214c0.201,0.077,0.385,0.178,0.55,0.303
		s0.301,0.282,0.406,0.473c0.106,0.191,0.16,0.43,0.16,0.715c0,0.265-0.054,0.505-0.16,0.721c-0.105,0.217-0.255,0.4-0.445,0.55
		c-0.19,0.15-0.418,0.267-0.682,0.347c-0.264,0.081-0.554,0.121-0.869,0.121c-0.352,0-0.665-0.021-0.94-0.065
		s-0.497-0.103-0.665-0.177C180.101,71.076,180.17,70.856,180.266,70.637z"/>
	<path fill="#1A171B" d="M185.853,68.711c0,0.748,0.173,1.298,0.518,1.65c0.345,0.352,0.861,0.528,1.551,0.528
		c0.278,0,0.537-0.024,0.775-0.072c0.238-0.047,0.471-0.111,0.698-0.192c0.037,0.081,0.066,0.18,0.088,0.297
		c0.022,0.118,0.037,0.225,0.044,0.319c-0.212,0.096-0.462,0.169-0.747,0.22c-0.286,0.052-0.599,0.077-0.936,0.077
		c-0.484,0-0.9-0.071-1.248-0.214c-0.349-0.144-0.635-0.343-0.858-0.6s-0.389-0.563-0.495-0.919s-0.159-0.746-0.159-1.172
		c0-0.41,0.05-0.795,0.148-1.154s0.249-0.675,0.451-0.946c0.201-0.271,0.46-0.484,0.775-0.638c0.315-0.154,0.692-0.231,1.133-0.231
		c0.366,0,0.693,0.062,0.979,0.188c0.285,0.124,0.525,0.299,0.72,0.522s0.342,0.491,0.44,0.803s0.148,0.651,0.148,1.018
		c0,0.065-0.002,0.15-0.006,0.253s-0.009,0.19-0.017,0.264H185.853z M189.153,68.106c0-0.228-0.03-0.451-0.089-0.671
		c-0.059-0.221-0.15-0.413-0.274-0.578c-0.125-0.165-0.286-0.299-0.484-0.401s-0.437-0.153-0.715-0.153
		c-0.514,0-0.913,0.157-1.199,0.473s-0.458,0.759-0.517,1.331H189.153z"/>
	<path fill="#1A171B" d="M191.474,65.796c0.059-0.007,0.116-0.013,0.171-0.017c0.055-0.003,0.108-0.005,0.159-0.005
		c0.059,0,0.113,0.002,0.165,0.005c0.052,0.004,0.106,0.01,0.165,0.017c0.015,0.133,0.025,0.297,0.033,0.495
		c0.007,0.198,0.011,0.371,0.011,0.518c0.073-0.133,0.169-0.266,0.286-0.401s0.255-0.259,0.412-0.369
		c0.158-0.109,0.34-0.199,0.545-0.27c0.205-0.069,0.429-0.104,0.671-0.104c0.646,0,1.114,0.192,1.408,0.578
		c0.293,0.385,0.439,0.926,0.439,1.622v3.542c-0.044,0.007-0.104,0.013-0.181,0.017c-0.077,0.004-0.138,0.006-0.182,0.006
		c-0.037,0-0.096-0.002-0.177-0.006c-0.08-0.004-0.143-0.01-0.187-0.017v-3.322c0-0.623-0.098-1.07-0.292-1.342
		s-0.485-0.407-0.874-0.407c-0.257,0-0.499,0.052-0.726,0.154c-0.228,0.103-0.424,0.251-0.589,0.445s-0.295,0.435-0.391,0.721
		s-0.143,0.612-0.143,0.979v2.772c-0.044,0.007-0.104,0.013-0.182,0.017s-0.138,0.006-0.182,0.006c-0.037,0-0.096-0.002-0.176-0.006
		c-0.081-0.004-0.144-0.01-0.188-0.017V65.796z"/>
</g>
</svg>
